<svg xmlns="http://www.w3.org/2000/svg" width="115" height="114" viewBox="0 0 115 114" fill="none"><path d="M81.8134 97.6559C80.9426 97.6585 80.2346 96.9547 80.2319 96.084L80.2072 87.9806C80.2046 87.1098 80.9083 86.4018 81.7791 86.3991C82.6498 86.3965 83.359 87.1002 83.3616 87.971L83.3863 96.0744C83.389 96.9451 82.6841 97.6532 81.8134 97.6559Z" fill="#1b8354"/><path d="M14.7948 97.8596C13.9242 97.8623 13.2161 97.1586 13.2135 96.2879L13.117 64.5988C13.0986 58.5615 17.9962 53.6352 24.0348 53.6168L62.8892 53.4985C63.7596 53.4958 64.4676 54.2006 64.4703 55.071C64.4729 55.9417 63.7692 56.6496 62.8988 56.6523L24.0444 56.7706C19.7449 56.7837 16.2566 60.291 16.2697 64.5892L16.3662 96.2783C16.3689 97.149 15.6652 97.857 14.7948 97.8596Z" fill="#1b8354"/><path d="M59.5306 56.4528C59.4466 56.453 59.3625 56.4478 59.2765 56.4343C58.4164 56.2974 57.8302 55.4897 57.9662 54.6296L59.7237 43.5471C59.8919 42.4871 59.3268 41.4817 58.2505 40.9211L51.7135 37.5064C50.9411 37.103 50.6425 36.1502 51.0461 35.3789C51.4495 34.6062 52.4023 34.3076 53.1736 34.7112L59.7094 38.1248C61.9911 39.3124 63.22 41.6347 62.839 44.0404L61.0814 55.124C60.9592 55.898 60.2911 56.4505 59.5306 56.4528Z" fill="#1b8354"/><path d="M36.8254 56.522C36.065 56.5243 35.3933 55.9754 35.2666 55.2021L33.4416 44.1305C33.0456 41.7261 34.2607 39.3964 36.5373 38.1938L43.05 34.7416C43.8188 34.3321 44.7733 34.625 45.1814 35.3963C45.5898 36.1651 45.2969 37.1197 44.5267 37.5278L38.012 40.9811C36.938 41.5494 36.3791 42.5582 36.5538 43.6183L38.3788 54.6888C38.5201 55.548 37.9387 56.3593 37.0794 56.5014C36.9932 56.5154 36.9095 56.5217 36.8254 56.522Z" fill="#1b8354"/><path d="M48.0655 19.4605C45.459 19.4684 43.3443 21.5402 43.352 24.08C43.3598 26.6177 45.487 28.6765 48.0936 28.6685C50.6999 28.6606 52.8145 26.5889 52.8067 24.0512C52.799 21.5114 50.6718 19.4526 48.0655 19.4605ZM48.1032 31.8225C43.7577 31.8357 40.2122 28.3673 40.1992 24.0896C40.1862 19.8106 43.7104 16.3195 48.0559 16.3063C52.4014 16.293 55.948 19.7626 55.961 24.0416C55.974 28.3193 52.4487 31.8093 48.1032 31.8225Z" fill="#1b8354"/><path d="M88.071 94.7768C88.0035 94.7771 87.9359 94.7717 87.867 94.7637C87.3029 94.6923 86.8204 94.3207 86.6049 93.7943L81.0243 80.0821C80.6955 79.2747 81.0832 78.3537 81.8898 78.026C82.6972 77.6983 83.617 78.0864 83.9455 78.8916L88.4713 90.0106L90.101 87.8191C91.3061 86.1964 93.2926 85.4159 95.2804 85.7632L97.7017 86.1932L93.0616 74.792C92.733 73.9846 93.1207 73.0648 93.9282 72.7373C94.7345 72.4063 95.6543 72.7952 95.9831 73.6037L101.7 87.6518C101.917 88.1825 101.827 88.7905 101.466 89.2379C101.105 89.6841 100.53 89.8975 99.9645 89.7987L94.7278 88.8687C93.9234 88.7261 93.1203 89.0439 92.6326 89.7011L89.3314 94.1407C89.0327 94.5418 88.5644 94.7753 88.071 94.7768Z" fill="#1b8354"/><path d="M75.5963 94.8151C75.1033 94.8166 74.6334 94.5865 74.332 94.1872L71.0042 89.7678C70.5125 89.1136 69.7072 88.7996 68.9037 88.9481L63.673 89.91C63.1094 90.0112 62.5316 89.8024 62.1678 89.3584C61.8043 88.9133 61.7109 88.3058 61.9242 87.7738L67.5545 73.6911C67.8781 72.8806 68.7968 72.4862 69.6053 72.8122C70.4136 73.1347 70.807 74.0522 70.4842 74.8616L65.9138 86.2909L68.3336 85.8461C70.3203 85.4778 72.3093 86.2562 73.5242 87.8704L75.1673 90.052L79.6253 78.9056C79.9489 78.0984 80.8663 77.7048 81.6756 78.0275C82.4839 78.3503 82.8773 79.2689 82.5537 80.0783L77.0563 93.8242C76.8454 94.3519 76.3643 94.7265 75.8003 94.8013C75.7317 94.8097 75.6642 94.8149 75.5963 94.8151Z" fill="#1b8354"/><path d="M77.218 62.9507L78.6613 63.9926C79.4728 64.5781 79.812 65.6126 79.5051 66.5647L78.9603 68.2587L80.3973 67.208C81.2051 66.6185 82.2926 66.6129 83.1039 67.1998L84.5461 68.2417L83.9911 66.551C83.6795 65.6008 84.0126 64.5643 84.819 63.9739L86.257 62.9232L84.4765 62.9286C83.476 62.9317 82.5937 62.2949 82.2821 61.3444L81.7271 59.654L81.1824 61.3489C80.8755 62.3013 79.9979 62.9423 78.9974 62.9453L77.218 62.9507ZM86.1812 72.771C85.7065 72.7724 85.2326 72.6275 84.8271 72.3341L81.7589 70.1189L78.7055 72.3528C77.8978 72.9423 76.8098 72.9456 75.9985 72.361C75.1872 71.7756 74.8481 70.7422 75.1539 69.79L76.3124 66.1882L73.2454 63.973C72.4341 63.3876 72.095 62.3553 72.4008 61.4029C72.7077 60.4508 73.5853 59.8076 74.5858 59.8045L78.3693 59.793L79.5267 56.1914C79.8339 55.239 80.7111 54.5969 81.7116 54.5939C82.7122 54.5908 83.5934 55.2276 83.9061 56.1781L85.0868 59.7725L88.8691 59.761C89.8707 59.758 90.7519 60.3958 91.0635 61.3461C91.3765 62.2966 91.042 63.3309 90.2357 63.9213L87.1811 66.1551L88.3618 69.7498C88.6734 70.7001 88.3403 71.7355 87.534 72.3259C87.13 72.6206 86.6558 72.7696 86.1812 72.771Z" fill="#1b8354"/><path d="M81.78 76.9674C82.8218 76.9642 83.805 77.3418 84.6723 77.6763C85.3309 77.9306 86.1509 78.2401 86.4825 78.1365C86.8561 78.0144 87.3405 77.2492 87.7303 76.6361C88.2155 75.8698 88.7671 75.0019 89.5748 74.4102C90.3924 73.811 91.3932 73.545 92.2772 73.3111C92.9748 73.1268 93.8414 72.8962 94.0654 72.5877C94.2814 72.2893 94.2285 71.4004 94.1861 70.6858C94.132 69.7685 94.0699 68.7302 94.3833 67.756C94.6847 66.8169 95.3283 66.0306 95.8967 65.336C96.3858 64.7378 96.9402 64.0597 96.9389 63.6452C96.9377 63.2296 96.3791 62.5546 95.8853 61.9583C95.3138 61.2686 94.6654 60.485 94.3572 59.5475C94.0389 58.5767 94.0948 57.5377 94.1432 56.6201C94.1813 55.9056 94.2288 55.0163 94.0109 54.719C93.7862 54.4121 92.9171 54.1877 92.2184 54.0065C91.3341 53.778 90.3306 53.5181 89.5093 52.9239C88.6981 52.3371 88.1412 51.4728 87.6513 50.7095C87.2578 50.0974 86.7688 49.3363 86.3944 49.2165C86.0611 49.1105 85.2441 49.4294 84.587 49.6877C83.7218 50.0274 82.7409 50.4124 81.6991 50.4156C80.6573 50.4188 79.6745 50.0398 78.8072 49.7064C78.1485 49.4521 77.3303 49.1404 76.9969 49.2451C76.623 49.3672 76.1388 50.1313 75.7491 50.7457C75.2636 51.512 74.712 52.3797 73.9043 52.9714C73.0879 53.5706 72.0863 53.8366 71.2023 54.0705C70.5044 54.2559 69.6367 54.4857 69.4141 54.7939C69.1989 55.0925 69.2518 55.9826 69.2934 56.6968C69.3485 57.6131 69.4096 58.6517 69.0972 59.6244C68.7955 60.5638 68.151 61.3513 67.5837 62.0445C67.0933 62.6438 66.5392 63.3222 66.5404 63.7378C66.5417 64.1523 67.0999 64.827 67.594 65.4222C68.1655 66.1133 68.8148 66.8957 69.1222 67.8329C69.4405 68.8052 69.3858 69.8439 69.3362 70.7604C69.299 71.4752 69.2515 72.3656 69.4696 72.6626C69.6941 72.9697 70.5632 73.195 71.261 73.3751C72.1465 73.6036 73.1496 73.8635 73.9708 74.4577C74.781 75.0445 75.3379 75.909 75.828 76.6724C76.2215 77.283 76.7103 78.0442 77.085 78.1651C77.419 78.2666 78.2353 77.9522 78.8924 77.6939C79.7585 77.3542 80.7393 76.9705 81.78 76.9674ZM77.2518 81.3394C76.8808 81.3405 76.5031 81.2905 76.121 81.1673C74.6695 80.7015 73.8409 79.4123 73.1755 78.378C72.8194 77.8237 72.4511 77.251 72.1218 77.013C71.7829 76.7685 71.1157 76.595 70.4705 76.4288C69.226 76.1065 67.814 75.741 66.9245 74.5252C66.0416 73.3202 66.1191 71.871 66.1871 70.5933C66.2223 69.9213 66.2593 69.2272 66.1249 68.8175C66.0039 68.448 65.5768 67.9322 65.1651 67.4349C64.3745 66.4804 63.3911 65.2933 63.3864 63.7474C63.3817 62.2004 64.3579 61.007 65.1426 60.048C65.5512 59.5482 65.9752 59.0298 66.094 58.6596C66.2259 58.2488 66.1846 57.5541 66.1454 56.8831C66.0695 55.6048 65.9832 54.1564 66.8587 52.946C67.7408 51.7256 69.1506 51.3526 70.3932 51.0217C71.0373 50.8505 71.7034 50.674 72.0408 50.4274C72.3686 50.1874 72.7335 49.6125 73.0862 49.0563C73.7453 48.0167 74.5661 46.7237 76.0135 46.2488C77.4128 45.7887 78.7552 46.3061 79.9404 46.7628C80.5794 47.0086 81.2389 47.2629 81.6895 47.2615C82.1401 47.2601 82.7983 47.0018 83.4356 46.7521C84.618 46.2894 85.9562 45.766 87.3596 46.2143C88.8096 46.6803 89.6384 47.9683 90.3036 49.0039C90.66 49.5579 91.0283 50.1306 91.3573 50.3686C91.6962 50.6131 92.3635 50.7855 93.0086 50.9528C94.2546 51.2751 95.6651 51.6406 96.5547 52.8556C97.4378 54.0606 97.3604 55.5095 97.2921 56.7874C97.2572 57.4595 97.2199 58.1544 97.3543 58.5644C97.4756 58.9339 97.9024 59.4496 98.3143 59.947C99.1049 60.9012 100.088 62.0886 100.093 63.6356C100.097 65.1815 99.1216 66.3746 98.3379 67.3339C97.9279 67.8337 97.5042 68.352 97.3852 68.7223C97.2533 69.1328 97.2949 69.8267 97.3338 70.4985C97.4099 71.7757 97.4962 73.2244 96.6215 74.4359C95.7383 75.6559 94.3289 76.0301 93.086 76.3599C92.4419 76.53 91.7757 76.7076 91.4383 76.9542C91.1107 77.1942 90.7459 77.7691 90.3929 78.3255C89.734 79.3639 88.9131 80.6582 87.4659 81.1328C86.0664 81.5929 84.7239 81.0755 83.5388 80.62C82.9011 80.3741 82.2402 80.1198 81.7896 80.1212C81.339 80.1225 80.6811 80.3809 80.0435 80.6306C79.1838 80.967 78.2412 81.3364 77.2518 81.3394Z" fill="#1b8354"/></svg>