<svg xmlns="http://www.w3.org/2000/svg" width="115" height="114" viewBox="0 0 115 114" fill="none"><path d="M72.4434 92.326C71.4738 92.3289 70.684 91.5451 70.6811 90.5752L70.5003 31.2204C70.4902 27.9089 67.7889 25.2241 64.4774 25.2342L50.8955 25.2755C50.3121 25.2773 48.2819 25.4099 46.6548 27.047C45.0277 28.6828 44.9073 30.7138 44.9091 31.2983L45.1367 84.8488C45.1408 85.8187 44.357 86.6085 43.3871 86.6127C42.4185 86.6157 41.6274 85.8331 41.6232 84.8632L41.396 31.3103C41.3924 30.123 41.6538 27.0938 44.1631 24.5705C46.6711 22.0459 49.6988 21.7659 50.8848 21.7623L64.4667 21.7209C69.7154 21.705 73.9986 25.961 74.0146 31.2097L74.1953 90.5645C74.1983 91.5344 73.4132 92.323 72.4434 92.326Z" fill="#1b8354"/><path d="M64.6497 45.9818L50.8479 46.0239C49.878 46.0268 49.0895 45.243 49.0865 44.2731C49.0836 43.302 49.8673 42.5134 50.8372 42.5104L64.639 42.4684C65.6088 42.4654 66.3987 43.2493 66.4016 44.2204C66.4046 45.1902 65.6195 45.9789 64.6497 45.9818Z" fill="#1b8354"/><path d="M64.6299 39.3842L50.8281 39.4262C49.8583 39.4292 49.0697 38.645 49.0668 37.6755C49.0638 36.7044 49.8476 35.9157 50.8174 35.9128L64.6192 35.8708C65.589 35.8678 66.3789 36.6516 66.3819 37.6227C66.3848 38.5923 65.5997 39.3812 64.6299 39.3842Z" fill="#1b8354"/><path d="M55.5495 60.5514C55.5535 61.8372 54.5139 62.8834 53.2281 62.8873C51.9424 62.8912 50.8967 61.8514 50.8927 60.5656C50.8888 59.2798 51.9282 58.234 53.214 58.2301C54.4998 58.2262 55.5456 59.2656 55.5495 60.5514Z" fill="#1b8354"/><path d="M93.7549 45.8932L79.9528 45.9352C78.9832 45.9382 78.1945 45.1543 78.1916 44.1844C78.1886 43.2133 78.9725 42.4247 79.9421 42.4218L93.7442 42.3797C94.714 42.3768 95.5039 43.1606 95.5069 44.1317C95.5098 45.1016 94.7247 45.8902 93.7549 45.8932Z" fill="#1b8354"/><path d="M93.7353 39.2958L79.9332 39.3378C78.9637 39.3408 78.175 38.5566 78.172 37.5871C78.1691 36.616 78.953 35.8273 79.9225 35.8244L93.7246 35.7823C94.6945 35.7794 95.4844 36.5632 95.4873 37.5343C95.4903 38.5039 94.7052 39.2928 93.7353 39.2958Z" fill="#1b8354"/><path d="M84.6548 60.4628C84.6587 61.7486 83.6192 62.7947 82.3334 62.7986C81.0476 62.8025 80.0019 61.7627 79.998 60.4769C79.9941 59.1912 81.0334 58.1454 82.3192 58.1415C83.605 58.1375 84.6509 59.177 84.6548 60.4628Z" fill="#1b8354"/><path d="M35.4773 46.0705L21.6754 46.1125C20.7055 46.1155 19.9167 45.3316 19.9138 44.3617C19.9108 43.3906 20.6948 42.602 21.6647 42.5991L35.4666 42.557C36.4365 42.5541 37.2263 43.3379 37.2293 44.309C37.2322 45.2789 36.4472 46.0675 35.4773 46.0705Z" fill="#1b8354"/><path d="M35.457 39.4731L21.6551 39.5152C20.6852 39.5181 19.8965 38.734 19.8935 37.7644C19.8906 36.7933 20.6745 36.0047 21.6444 36.0017L35.4463 35.9597C36.4162 35.9567 37.2061 36.7406 37.209 37.7117C37.212 38.6812 36.4269 39.4702 35.457 39.4731Z" fill="#1b8354"/><path d="M26.3772 60.6401C26.3811 61.9259 25.3418 62.972 24.056 62.976C22.7702 62.9799 21.7243 61.9401 21.7204 60.6543C21.7165 59.3685 22.756 58.3227 24.0418 58.3188C25.3276 58.3149 26.3733 59.3543 26.3772 60.6401Z" fill="#1b8354"/><path d="M99.5851 92.3791L50.9573 92.5272C49.9875 92.5302 49.1976 91.7463 49.1947 90.7765C49.1917 89.8054 49.9768 89.0167 50.9466 89.0137L99.5744 88.8656C99.6886 88.8653 99.7808 88.7726 99.7805 88.6584L99.6053 31.1316C99.5952 27.8211 96.8938 25.1352 93.582 25.1453L80.0004 25.1866C76.689 25.1967 74.004 27.899 74.0141 31.2095C74.017 32.1803 73.232 32.969 72.2621 32.9719C71.2923 32.9749 70.5035 32.191 70.5006 31.2202C70.4846 25.9715 74.741 21.6891 79.9897 21.6731L93.5713 21.6318C98.82 21.6158 103.102 25.8722 103.118 31.1209L103.294 88.6477C103.3 90.6992 101.636 92.3729 99.5851 92.3791Z" fill="#1b8354"/><path d="M36.718 92.5701L16.1298 92.6328C14.0786 92.639 12.4038 90.9755 12.3975 88.924L12.2224 31.3972C12.2064 26.1485 16.464 21.8661 21.7115 21.8501L35.2944 21.8088C40.5431 21.7928 44.8253 26.0492 44.8413 31.2979C44.8443 32.2687 44.0604 33.0573 43.0894 33.0603C42.1195 33.0632 41.331 32.2794 41.328 31.3086C41.3179 27.9981 38.6153 25.3122 35.3051 25.3223L21.7222 25.3636C18.4116 25.3737 15.7254 28.076 15.7355 31.3865L15.9107 88.9133C15.911 89.0275 16.0049 89.1196 16.1191 89.1193L36.7073 89.0566C37.6768 89.0536 38.4666 89.8375 38.4696 90.8086C38.4725 91.7785 37.6875 92.5671 36.718 92.5701Z" fill="#1b8354"/></svg>