<svg xmlns="http://www.w3.org/2000/svg" width="115" height="114" viewBox="0 0 115 114" fill="none"><path d="M61.0885 75.8736L69.2854 96.0128C69.4135 96.3268 69.6752 96.4045 69.8195 96.4222C69.9635 96.4405 70.2367 96.4316 70.4393 96.1586L74.2921 90.9752C76.2282 88.3729 79.4127 87.1102 82.6042 87.6756L88.4888 88.7212C88.8256 88.7849 89.0317 88.5978 89.1247 88.4843C89.2175 88.3695 89.3533 88.1306 89.2244 87.8112L80.3731 66.0648C75.3179 71.538 68.4842 75.0175 61.0885 75.8736ZM69.9326 99.4917C69.7672 99.4922 69.6021 99.482 69.4345 99.4614C68.0793 99.2886 66.9632 98.4319 66.4487 97.1665L56.6478 73.0884L58.8117 72.9876C66.9894 72.6068 74.5791 68.6778 79.6348 62.2091L81.2627 60.1248L92.0608 86.6574C92.5731 87.9163 92.3602 89.3546 91.5054 90.41C90.6507 91.4667 89.2898 91.9729 87.9523 91.7367L82.0677 90.6922C80.0254 90.3264 77.9887 91.1376 76.7502 92.8025L72.8972 97.9859C72.184 98.9456 71.101 99.4881 69.9326 99.4917Z" fill="#1b8354"/><path d="M34.163 87.6853C36.8124 87.6772 39.3223 88.9038 40.9593 91.0767L44.8437 96.2366C45.0479 96.5081 45.3212 96.5156 45.4653 96.4961C45.6103 96.477 45.8718 96.3986 45.998 96.0835L54.0721 75.895C46.6713 75.0837 39.8155 71.6459 34.7267 66.2039L26.0094 88.0048C25.8822 88.3239 26.0191 88.5619 26.1121 88.6759C26.2056 88.7891 26.4128 88.9737 26.7495 88.9092L32.6284 87.8278C33.142 87.7339 33.6556 87.6869 34.163 87.6853ZM45.3719 99.5663C44.2024 99.5698 43.1159 99.0341 42.3968 98.0785L38.5127 92.919C37.2641 91.2617 35.2213 90.465 33.1822 90.8408L27.3041 91.9211C25.9681 92.169 24.6044 91.6668 23.744 90.6164C22.8828 89.5662 22.6613 88.1292 23.1649 86.8672L33.8009 60.2693L35.4419 62.3437C40.5365 68.7815 48.15 72.6639 56.331 72.9949L58.4944 73.0828L48.8413 97.2199C48.3335 98.4876 47.2229 99.3532 45.8696 99.5331C45.7024 99.5551 45.5359 99.5658 45.3719 99.5663Z" fill="#1b8354"/><path d="M57.5806 76.0809C57.1198 76.0823 56.6643 76.073 56.2076 76.0553C47.1333 75.688 38.6902 71.3831 33.0403 64.2445C28.6699 58.7241 26.3476 52.0755 26.3261 45.0174C26.2738 27.8352 40.2097 13.8141 57.3908 13.7618C64.6132 13.7398 71.6599 16.246 77.2341 20.8189C77.8871 21.354 77.9824 22.3188 77.4463 22.9731C76.9101 23.6261 75.9453 23.7211 75.2912 23.186C70.2659 19.0637 63.9115 16.8046 57.4001 16.8244C41.9077 16.8716 29.3414 29.5146 29.3886 45.0081C29.408 51.3722 31.5013 57.3669 35.4424 62.3433C40.5371 68.7821 48.1506 72.6645 56.3306 72.9956C57.1538 73.027 57.9874 73.0245 58.8126 72.988C66.9904 72.6072 74.579 68.6785 79.6344 62.2098C83.5451 57.2084 85.6019 51.2011 85.5825 44.837C85.5648 39.0161 83.7842 33.4377 80.434 28.7065C79.9456 28.0162 80.1091 27.0601 80.7992 26.572C81.4895 26.0836 82.4446 26.2459 82.9337 26.9362C86.6501 32.1865 88.6254 38.372 88.6451 44.8276C88.6666 51.8857 86.3848 58.5483 82.0482 64.0953C76.4428 71.2682 68.0251 75.6244 58.9544 76.047C58.4969 76.0671 58.0412 76.0794 57.5806 76.0809Z" fill="#1b8354"/><path d="M44.6305 42.1276L50.8859 46.6425C51.904 47.3775 52.3295 48.6739 51.9454 49.8699L49.5833 57.2141L55.811 52.6612C56.8246 51.9197 58.19 51.9156 59.207 52.6508L65.4622 57.1658L63.0564 49.8361C62.665 48.6424 63.0828 47.3434 64.0964 46.6023L70.324 42.0494L62.6091 42.0728C61.3538 42.0767 60.2466 41.278 59.8552 40.0843L57.4495 32.7549L55.0874 40.0988C54.7033 41.2949 53.6007 42.1003 52.3456 42.1041L44.6305 42.1276ZM49.264 60.5678C48.6729 60.5696 48.0823 60.3849 47.5643 60.0115C46.5301 59.2656 46.1144 57.9989 46.5047 56.7838L48.9905 49.0517L42.4063 44.2986C41.3721 43.5516 40.9564 42.2849 41.3466 41.0709C41.7371 39.8568 42.8129 39.0705 44.0884 39.0666L52.2102 39.0419L54.6962 31.3088C55.0864 30.0958 56.1625 29.3087 57.4379 29.3048C58.7134 29.3009 59.794 30.0804 60.1929 31.292L62.7259 39.0099L70.8474 38.9851C72.1218 38.9812 73.2037 39.761 73.6014 40.9726C73.9993 42.1843 73.5902 43.4535 72.5627 44.2068L66.0052 48.9999L68.5381 56.7167C68.936 57.9283 68.5269 59.1986 67.4984 59.9508C66.4687 60.7019 65.1352 60.7049 64.1021 59.9601L57.5168 55.208L50.9614 60.0001C50.4466 60.3766 49.8552 60.566 49.264 60.5678Z" fill="#1b8354"/></svg>