<svg xmlns="http://www.w3.org/2000/svg" width="115" height="114" viewBox="0 0 115 114" fill="none"><path d="M49.1156 20.7878H49.1144C48.1758 20.7878 47.4155 21.5488 47.4155 22.4872C47.4991 24.7386 50.7319 24.7388 50.815 22.4872C50.815 21.5488 50.0542 20.7878 49.1156 20.7878Z" fill="#1b8354"/><path d="M82.2521 72.1097C81.3825 72.1097 80.5306 72.187 79.703 72.3348V22.4871C79.703 21.5487 78.9422 20.7877 78.0036 20.7877H57.4401C55.4705 11.7796 42.7538 11.7859 40.7876 20.7877H20.2243C19.2857 20.7877 18.5249 21.5487 18.5249 22.4871V90.4626C18.5249 91.401 19.2857 92.162 20.2243 92.162H33.253C36.6773 100.715 48.15 103.873 55.4914 97.911C60.3766 101.957 68.3459 102.02 73.335 97.911C82.5569 105.344 96.8043 98.5017 96.6967 86.5543C96.6967 78.5896 90.2169 72.1097 82.2521 72.1097ZM76.304 24.1865V73.3917C75.2395 73.8747 74.2435 74.483 73.3348 75.198C73.1935 75.0868 73.0502 74.9786 72.9052 74.8731V29.2847C72.9052 28.3463 72.1444 27.5853 71.2058 27.5853H66.9574V24.1865H76.304ZM64.4085 89.1036C63.0029 89.1036 61.8594 87.9601 61.8594 86.5545C61.9875 83.1775 66.8299 83.1783 66.9575 86.5545C66.9575 87.9602 65.814 89.1036 64.4085 89.1036ZM68.4729 90.8932C68.4739 90.8966 68.4749 90.8998 68.4759 90.9032C68.4729 90.9019 68.4697 90.9005 68.4666 90.8992C68.4686 90.8971 68.4707 90.8952 68.4729 90.8932ZM68.4729 82.2158C64.7516 78.6787 58.4451 81.3681 58.4608 86.5545C58.4608 88.267 59.1883 89.8127 60.3505 90.899C58.768 91.5898 57.3689 92.6747 56.308 94.0565C47.5158 84.0977 59.9035 70.058 70.9074 77.6225C69.837 78.9791 69.0045 80.5313 68.4729 82.2158ZM46.5648 89.1036C45.1593 89.1036 44.0158 87.9601 44.0158 86.5545C44.1439 83.1775 48.9863 83.1783 49.1139 86.5545C49.1139 87.9602 47.9704 89.1036 46.5648 89.1036ZM50.6293 90.8932C50.6303 90.8964 50.6313 90.8998 50.6323 90.9031C50.6293 90.9017 50.6261 90.9003 50.623 90.899C50.625 90.8971 50.6271 90.8952 50.6293 90.8932ZM32.8671 81.9658H28.7211V30.9841H31.2702C31.2702 31.9225 32.031 32.6835 32.9696 32.6835H65.258C66.1966 32.6835 66.9574 31.9225 66.9574 30.9841H69.5065V73.0396C64.9157 71.2207 59.1976 72.1658 55.4912 75.198C47.7848 68.9532 35.7875 72.7383 32.8671 81.9658ZM34.6689 24.1865H42.3162C43.2548 24.1865 44.0156 23.4255 44.0156 22.4871C44.2722 15.7324 53.9569 15.7354 54.2119 22.4871C54.2119 23.4255 54.9728 24.1865 55.9113 24.1865H63.5586V29.2847H34.6689V24.1865ZM21.9237 88.7632V24.1865H31.2703V27.5853H27.0219C26.0833 27.5853 25.3225 28.3463 25.3225 29.2847V83.6652C25.3225 84.6036 26.0833 85.3646 27.0219 85.3646H32.1688C32.0755 86.487 32.1176 87.6623 32.2888 88.7632H21.9237ZM35.5188 86.5545C35.4468 77.6199 45.9004 72.3111 53.0635 77.6227C51.9932 78.9791 51.1607 80.5313 50.6291 82.2158C46.9078 78.6787 40.6013 81.3681 40.617 86.5545C40.617 88.267 41.3445 89.8127 42.5067 90.899C40.9242 91.5898 39.5251 92.6747 38.4642 94.0565C36.6372 92.0852 35.5188 89.4479 35.5188 86.5545ZM41.1276 96.1674C43.7524 92.5695 49.3801 92.5712 52.0029 96.1688C48.7555 98.0738 44.3242 98.0534 41.1276 96.1674ZM58.9712 96.1674C61.5961 92.5695 67.2237 92.5712 69.8467 96.1688C66.5991 98.0738 62.1676 98.0534 58.9712 96.1674ZM76.8149 96.1674C79.4391 92.5702 85.0657 92.571 87.6891 96.1674C84.525 98.0592 79.979 98.0592 76.8149 96.1674ZM82.2521 89.1036C80.8465 89.1036 79.703 87.9601 79.703 86.5545C79.8311 83.1775 84.6735 83.1783 84.8011 86.5545C84.8011 87.9602 83.6576 89.1036 82.2521 89.1036ZM90.3525 94.0566C89.2916 92.6749 87.8925 91.59 86.31 90.8992C90.2203 87.289 87.6362 80.5998 82.2519 80.6068C76.8677 80.5998 74.2836 87.2902 78.1939 90.8992C76.6114 91.59 75.2123 92.6749 74.1514 94.0566C67.6427 87.1321 72.6498 75.478 82.2522 75.5086C91.854 75.4779 96.8617 87.134 90.3525 94.0566Z" fill="#1b8354"/><path d="M35.7324 44.3645C36.396 45.0281 37.4721 45.0281 38.1357 44.3645L42.6675 39.8327C43.3311 39.1691 43.3311 38.0931 42.6675 37.4293C42.0037 36.7658 40.9278 36.7658 40.264 37.4293L36.9341 40.7594L35.8697 39.6953C35.2061 39.0318 34.1301 39.0318 33.4665 39.6953C32.8028 40.3589 32.8028 41.4349 33.4665 42.0987L35.7324 44.3645Z" fill="#1b8354"/><path d="M49.1139 42.5967H63.5587C65.8111 42.5131 65.8094 39.2807 63.5587 39.1979H49.1139C46.8615 39.2815 46.8634 42.514 49.1139 42.5967Z" fill="#1b8354"/><path d="M35.7324 56.2606C36.396 56.9242 37.4721 56.9242 38.1357 56.2606L42.6675 51.7288C43.3311 51.0652 43.3311 49.9891 42.6675 49.3253C42.0037 48.6619 40.9278 48.6619 40.264 49.3253L36.9341 52.6555L35.8697 51.5913C35.2061 50.9279 34.1301 50.9279 33.4665 51.5913C32.8028 52.2549 32.8028 53.331 33.4665 53.9948L35.7324 56.2606Z" fill="#1b8354"/><path d="M49.1139 54.4926H63.5587C65.8111 54.409 65.8094 51.1765 63.5587 51.0938H49.1139C46.8615 51.1774 46.8634 54.4098 49.1139 54.4926Z" fill="#1b8354"/><path d="M38.1356 68.1562L42.6674 63.6244C43.331 62.9608 43.331 61.8848 42.6674 61.221C42.0036 60.5575 40.9277 60.5575 40.2639 61.221L36.934 64.5511L35.8698 63.4868C35.2064 62.8235 34.1301 62.8233 33.4665 63.4868C32.8029 64.1504 32.8027 65.2264 33.4665 65.8902L35.7323 68.1562C36.3652 68.8145 37.5027 68.8144 38.1356 68.1562Z" fill="#1b8354"/><path d="M49.1139 66.3879H63.5587C65.8111 66.3043 65.8094 63.0719 63.5587 62.9891H49.1139C46.8615 63.0727 46.8634 66.3052 49.1139 66.3879Z" fill="#1b8354"/></svg>