<svg xmlns="http://www.w3.org/2000/svg" width="115" height="114" viewBox="0 0 115 114" fill="none"><path d="M65.5558 36.3904C65.4433 36.3907 65.3299 36.3778 65.2152 36.3527C64.3978 36.1682 63.8842 35.356 64.0684 34.5378C64.483 32.7014 64.7043 31.2404 64.7622 29.9392C64.8054 28.9869 64.3092 28.076 63.4994 27.6178C63.0273 27.3514 62.511 27.1169 61.9644 26.8698C61.1243 26.4891 60.2561 26.0947 59.4542 25.5346C58.7664 25.0547 58.5986 24.1084 59.0784 23.4213C59.5593 22.7342 60.5045 22.5674 61.1916 23.0462C61.7638 23.4465 62.4703 23.7659 63.2169 24.1047C63.8004 24.3687 64.4038 24.6429 64.9936 24.9769C66.8173 26.0076 67.8901 27.9612 67.7947 30.0761C67.7278 31.5608 67.485 33.1909 67.0302 35.2059C66.8705 35.9097 66.2475 36.3882 65.5558 36.3904Z" fill="#1b8354"/><path d="M49.2218 36.4401C48.5298 36.4422 47.9026 35.9675 47.74 35.2646C47.2729 33.2514 47.0202 31.6239 46.9443 30.1397C46.836 28.0253 47.8966 26.0652 49.7139 25.0234C50.302 24.6859 50.9037 24.408 51.4845 24.1404C52.2298 23.7971 52.9334 23.4735 53.5043 23.0696C54.1884 22.5867 55.135 22.7477 55.6201 23.4319C56.1038 24.116 55.9409 25.0634 55.2568 25.5474C54.4585 26.1123 53.5924 26.512 52.7549 26.8978C52.2096 27.1493 51.695 27.3859 51.2242 27.6552C50.4175 28.1184 49.9267 29.0323 49.9757 29.9843C50.0418 31.285 50.2709 32.7447 50.6963 34.5785C50.8869 35.3956 50.378 36.2109 49.5619 36.4004C49.4474 36.4272 49.3342 36.4398 49.2218 36.4401Z" fill="#1b8354"/><path d="M57.3184 13.2954C55.769 13.3002 54.5119 14.5269 54.5165 16.0302C54.521 17.5327 55.7856 18.7519 57.335 18.7472C58.8847 18.7424 60.1419 17.5156 60.1373 16.0131C60.1327 14.5098 58.8681 13.2907 57.3184 13.2954ZM57.3443 21.7824C54.1212 21.7922 51.4909 19.2164 51.4812 16.0395C51.4715 12.8629 54.0861 10.27 57.3092 10.2602C60.5322 10.2504 63.1627 12.8273 63.1724 16.0039C63.1821 19.1808 60.5673 21.7726 57.3443 21.7824Z" fill="#1b8354"/><path d="M65.7653 105.107C65.6528 105.108 65.5394 105.095 65.4247 105.07C64.6072 104.885 64.0937 104.073 64.2779 103.255C64.6924 101.418 64.9138 99.957 64.9717 98.6561C65.0149 97.7038 64.5187 96.7929 63.7089 96.3344C63.2378 96.0683 62.7227 95.8346 62.1771 95.5874C61.336 95.2068 60.4667 94.8126 59.6637 94.2515C58.9758 93.7716 58.808 92.825 59.2879 92.1379C59.7687 91.4511 60.714 91.2843 61.4011 91.7631C61.9744 92.1634 62.6809 92.4836 63.4296 92.8237C64.0121 93.0874 64.6143 93.3596 65.2031 93.6927C67.0268 94.7245 68.0995 96.6781 68.0041 98.7928C67.9373 100.277 67.6945 101.908 67.2396 103.923C67.08 104.627 66.457 105.105 65.7653 105.107Z" fill="#1b8354"/><path d="M49.4312 105.157C48.7393 105.159 48.1121 104.685 47.9495 103.982C47.4824 101.968 47.2296 100.341 47.1538 98.8565C47.0455 96.7424 48.106 94.7823 49.9234 93.7405C50.5104 93.4027 51.111 93.1269 51.6919 92.8596C52.4372 92.5149 53.1429 92.1905 53.7137 91.7867C54.3979 91.3027 55.3445 91.4648 55.8295 92.1487C56.3133 92.8328 56.1504 93.7804 55.4662 94.2644C54.667 94.8305 53.7997 95.2299 52.9612 95.6157C52.4169 95.8661 51.9034 96.103 51.4329 96.3731C50.6269 96.8355 50.1362 97.7493 50.1852 98.7013C50.2512 100.002 50.4804 101.462 50.9058 103.296C51.0964 104.113 50.5874 104.928 49.7714 105.117C49.6569 105.144 49.5437 105.157 49.4312 105.157Z" fill="#1b8354"/><path d="M57.5276 82.012C55.9782 82.0167 54.7211 83.2438 54.7257 84.7471C54.7303 86.2496 55.9948 87.4687 57.5442 87.464C59.094 87.4593 60.3511 86.2325 60.3465 84.73C60.3419 83.2267 59.0774 82.0073 57.5276 82.012ZM57.5535 90.4992C54.3305 90.5091 51.7001 87.9332 51.6904 84.7564C51.6807 81.5795 54.2954 78.9869 57.5184 78.977C60.7414 78.9672 63.372 81.5439 63.3816 84.7207C63.3913 87.8976 60.7765 90.4894 57.5535 90.4992Z" fill="#1b8354"/><path d="M31.3925 71.8627C31.2801 71.863 31.1668 71.8502 31.0521 71.825C30.2349 71.6406 29.7211 70.8284 29.9053 70.0101C30.3209 68.1727 30.5411 66.7106 30.5989 65.4105C30.6424 64.4593 30.1461 63.5484 29.3363 63.0902C28.8642 62.8238 28.3479 62.5893 27.8013 62.3419C26.9612 61.9614 26.0929 61.566 25.2913 61.0059C24.6032 60.5261 24.4353 59.5805 24.9151 58.8937C25.395 58.2066 26.3414 58.0388 27.0285 58.5186C27.6021 58.9179 28.3074 59.2382 29.0548 59.577C29.6383 59.8407 30.2408 60.1153 30.8309 60.4493C32.6543 61.48 33.727 63.4335 33.6316 65.5474C33.5647 67.0311 33.3219 68.6621 32.8671 70.6782C32.7085 71.3821 32.0842 71.8606 31.3925 71.8627Z" fill="#1b8354"/><path d="M15.059 71.9124C14.3671 71.9146 13.74 71.4398 13.5772 70.737C13.1103 68.7237 12.8573 67.0941 12.7814 65.6109C12.6731 63.4977 13.734 61.5376 15.5514 60.4958C16.1391 60.1582 16.7397 59.88 17.3216 59.6128C18.0672 59.2694 18.7707 58.9448 19.3416 58.542C20.0257 58.058 20.973 58.218 21.457 58.9042C21.941 59.5881 21.779 60.5347 21.094 61.0187C20.2956 61.5837 19.4298 61.9844 18.592 62.3699C18.047 62.6206 17.532 62.8583 17.0615 63.1276C16.2545 63.5907 15.764 64.5046 15.813 65.4556C15.8788 66.7553 16.108 68.216 16.5348 70.0508C16.724 70.868 16.2152 71.6832 15.3989 71.8727C15.2846 71.8996 15.1712 71.9121 15.059 71.9124Z" fill="#1b8354"/><path d="M23.1555 48.7665C21.6058 48.7712 20.3486 49.9983 20.3532 51.5016C20.3578 53.0041 21.6224 54.2232 23.1721 54.2185C24.7215 54.2137 25.9786 52.9869 25.974 51.4844C25.9695 49.9811 24.7049 48.7618 23.1555 48.7665ZM23.1813 57.2537C19.9583 57.2635 17.3278 54.6877 17.3181 51.5108C17.3084 48.3339 19.9232 45.7413 23.1462 45.7315C26.3693 45.7217 28.9996 48.2983 29.0093 51.4752C29.019 54.6521 26.4044 57.2439 23.1813 57.2537Z" fill="#1b8354"/><path d="M98.6334 71.658C98.521 71.6583 98.4077 71.6454 98.293 71.6203C97.4758 71.4358 96.9619 70.6237 97.1464 69.8054C97.5617 67.968 97.782 66.5059 97.8401 65.2058C97.8834 64.2546 97.387 63.3437 96.5772 62.8855C96.1051 62.619 95.5889 62.3845 95.042 62.1372C94.2022 61.7567 93.3338 61.3613 92.5322 60.8012C91.8451 60.3214 91.6762 59.3758 92.156 58.6879C92.6369 58.0019 93.5835 57.834 94.2692 58.3139C94.8428 58.7131 95.5483 59.0335 96.2957 59.3723C96.8792 59.636 97.4815 59.9106 98.0716 60.2446C99.8952 61.2752 100.968 63.2288 100.872 65.3427C100.805 66.8264 100.563 68.4574 100.108 70.4735C99.9496 71.1774 99.3251 71.6559 98.6334 71.658Z" fill="#1b8354"/><path d="M82.3 71.7078C81.608 71.7099 80.9808 71.2352 80.8179 70.5323C80.3511 68.519 80.0985 66.8894 80.0224 65.4063C79.9141 63.293 80.9748 61.3329 82.7921 60.2911C83.3799 59.9535 83.9809 59.6753 84.5626 59.4081C85.3081 59.0647 86.0115 58.7401 86.5823 58.3373C87.2665 57.8533 88.2129 58.0143 88.698 58.6985C89.182 59.3834 89.02 60.33 88.3348 60.814C87.5366 61.379 86.6706 61.7797 85.8328 62.1652C85.2878 62.4159 84.7729 62.6536 84.3024 62.9229C83.4954 63.3861 83.0049 64.2999 83.054 65.2509C83.12 66.5516 83.349 68.0113 83.7744 69.8462C83.9649 70.6633 83.4561 71.4786 82.6398 71.668C82.5256 71.6949 82.4122 71.7074 82.3 71.7078Z" fill="#1b8354"/><path d="M90.3962 48.5615C88.8465 48.5662 87.5897 49.7933 87.5943 51.2966C87.5988 52.7991 88.8631 54.0182 90.4128 54.0135C91.9623 54.0088 93.2195 52.782 93.2149 51.2795C93.2103 49.7762 91.9457 48.5568 90.3962 48.5615ZM90.4221 57.0488C87.199 57.0586 84.5687 54.4827 84.559 51.3058C84.5493 48.129 87.1639 45.5363 90.387 45.5265C93.61 45.5167 96.2404 48.0934 96.25 51.2702C96.2597 54.4471 93.6451 57.039 90.4221 57.0488Z" fill="#1b8354"/><path d="M26.4413 42.8485C26.1968 42.8493 25.9478 42.7912 25.7175 42.667C24.9802 42.2682 24.7046 41.3484 25.1024 40.6112C28.8857 33.5961 34.9789 27.9629 42.2594 24.7511C43.0268 24.413 43.9224 24.7619 44.2605 25.5271C44.5989 26.2937 44.2523 27.1891 43.4844 27.5285C36.8184 30.4695 31.2383 35.6266 27.7736 42.0509C27.4998 42.5586 26.98 42.8469 26.4413 42.8485Z" fill="#1b8354"/><path d="M46.8222 92.2487C46.6827 92.2492 46.5395 92.2311 46.3988 92.1893C44.749 91.7167 43.1189 91.1187 41.5546 90.413C35.0659 87.4858 29.6331 82.7423 25.8447 76.6949C25.3993 75.9855 25.6152 75.0483 26.3254 74.6032C27.036 74.1581 27.972 74.3735 28.4171 75.083C31.8859 80.6207 36.8608 84.9657 42.8029 87.6457C44.2347 88.2915 45.7261 88.8381 47.235 89.2711C48.0409 89.5028 48.5066 90.3425 48.2759 91.1484C48.0849 91.8134 47.4805 92.2467 46.8222 92.2487Z" fill="#1b8354"/><path d="M68.3495 92.1833C67.6914 92.1853 67.0844 91.7556 66.889 91.0918C66.6534 90.2873 67.1139 89.4449 67.9184 89.2082C69.4246 88.766 70.9128 88.2103 72.3407 87.5559C78.2663 84.8397 83.2146 80.4645 86.6496 74.9058C87.0904 74.1936 88.0262 73.9725 88.7383 74.4132C89.4516 74.854 89.6727 75.7898 89.232 76.502C85.4802 82.5723 80.0763 87.3488 73.6048 90.3155C72.0458 91.0307 70.4192 91.6386 68.7726 92.1213C68.6319 92.1626 68.4892 92.1828 68.3495 92.1833Z" fill="#1b8354"/><path d="M86.9652 42.6644C86.4265 42.666 85.905 42.3809 85.6284 41.8749C82.3734 35.9278 77.4467 31.188 71.38 28.1702C70.6301 27.7966 70.3239 26.8852 70.6975 26.1356C71.0713 25.386 71.9814 25.0777 72.7323 25.4523C79.3574 28.7496 84.737 33.9247 88.2906 40.4189C88.6928 41.1537 88.4227 42.0751 87.6879 42.4784C87.4583 42.604 87.2097 42.6636 86.9652 42.6644Z" fill="#1b8354"/><path d="M48.2614 56.2766C46.9281 56.2807 46.1543 56.9098 45.7892 57.7256C45.5389 58.2839 45.5263 58.9189 45.6615 59.515C45.9659 60.8641 46.6683 61.6083 48.1641 61.6038C49.9396 61.5984 50.6189 60.5717 50.6137 58.8867C50.6087 57.2479 49.9684 56.2714 48.2614 56.2766ZM48.1248 63.8339C44.2101 63.8458 42.7668 60.8004 42.7539 56.5663C42.7407 52.241 44.2318 48.5943 48.534 48.5812C49.9628 48.5769 51.2428 48.952 52.2482 49.878C52.6346 50.2338 52.6437 50.8428 52.2788 51.2176L52.0842 51.4155C51.7627 51.7441 51.2402 51.8045 50.8762 51.5242C50.2395 51.0328 49.3893 50.7413 48.4506 50.7442C46.2649 50.7508 45.5642 52.3236 45.4611 55.7393L45.4627 56.2621C45.9602 55.1906 47.0052 54.209 49.0302 54.2028C52.0811 54.1935 53.203 56.4663 53.21 58.7656C53.2188 61.6788 51.4255 63.8238 48.1248 63.8339Z" fill="#1b8354"/><path d="M48.2622 56.4943C46.868 56.4985 46.2562 57.2152 45.987 57.8146C45.719 58.4138 45.7766 59.0436 45.8724 59.4674C46.1767 60.8178 46.8619 61.391 48.1637 61.387C49.6924 61.3823 50.4027 60.5885 50.3975 58.8879C50.3924 57.2278 49.7342 56.4898 48.2622 56.4943ZM48.165 61.8204C46.6617 61.825 45.7986 61.1086 45.4497 59.5631C45.2921 58.8634 45.3405 58.1978 45.5908 57.6384C46.0444 56.6239 46.9926 56.0645 48.2609 56.0606C49.9605 56.0555 50.8254 57.0061 50.8312 58.8865C50.8371 60.8277 49.9404 61.815 48.165 61.8204ZM48.5349 48.7989C43.673 48.8137 42.9614 53.6725 42.9702 56.5661C42.9845 61.2559 44.7186 63.6283 48.1243 63.6179C51.1365 63.6088 53.0015 61.7502 52.9924 58.7664C52.9893 57.744 52.6938 54.4083 49.0297 54.4195C46.9824 54.4257 46.066 55.4754 45.6581 56.3543L45.2485 57.2384L45.2439 55.7402C45.3384 52.6144 45.9186 50.5351 48.4489 50.5274C49.4053 50.5245 50.3143 50.8177 51.0077 51.3532C51.274 51.559 51.6793 51.5212 51.9283 51.2653L52.123 51.0674C52.2602 50.9261 52.3342 50.7402 52.3283 50.5419C52.3224 50.3475 52.243 50.1681 52.102 50.0386C51.2049 49.2109 50.0048 48.7945 48.5349 48.7989ZM48.1256 64.0516C44.4849 64.0627 42.5515 61.4755 42.5365 56.5675C42.5204 51.2897 44.6501 48.3771 48.5336 48.3653C50.1156 48.3605 51.4159 48.8164 52.396 49.7195C52.6245 49.9299 52.7544 50.2181 52.7617 50.5299C52.7707 50.8469 52.6534 51.1445 52.4326 51.3699L52.2389 51.5688C51.8307 51.9846 51.1883 52.0402 50.7422 51.6962C50.1255 51.2193 49.3111 50.9582 48.4502 50.9608C46.5615 50.9666 45.8238 52.152 45.687 55.4648C46.2705 54.6904 47.2827 53.9911 49.0284 53.9858C52.2599 53.976 53.419 56.4481 53.4261 58.7651C53.4358 61.9672 51.355 64.0418 48.1256 64.0516Z" fill="#1b8354"/><path d="M60.5311 56.5311C60.5328 57.0971 60.0752 57.5571 59.5095 57.5588L56.1869 57.569C55.6209 57.5707 55.1606 57.1135 55.1589 56.5475C55.1572 55.9818 55.6146 55.5216 56.1806 55.5198L59.5032 55.5097C60.069 55.508 60.5293 55.9654 60.5311 56.5311Z" fill="#1b8354"/><path d="M56.1811 55.7366C55.736 55.738 55.3749 56.1014 55.3762 56.5464C55.3776 56.9917 55.7409 57.3527 56.186 57.3513L59.5099 57.3412C59.9552 57.3398 60.3161 56.9767 60.3147 56.5314C60.3134 56.0863 59.9503 55.7251 59.505 55.7265L56.1811 55.7366ZM59.5112 57.7759L56.1873 57.786C55.5028 57.7881 54.9446 57.2323 54.9426 56.5477C54.9405 55.8632 55.4952 55.3053 56.1798 55.3032L59.5037 55.2931C60.1882 55.291 60.7463 55.8455 60.7484 56.5301C60.7505 57.2146 60.1958 57.7738 59.5112 57.7759Z" fill="#1b8354"/><path d="M66.66 56.2895C67.9763 56.2855 68.7463 55.6678 69.1101 54.8501C69.3593 54.2897 69.3721 53.6512 69.239 53.0533C68.9389 51.7021 68.2501 50.9576 66.7351 50.9622C64.982 50.9675 64.2796 51.9945 64.2847 53.6784C64.2897 55.3183 64.9297 56.2948 66.66 56.2895ZM66.7733 48.7312C70.6883 48.7193 72.1328 51.7658 72.1456 55.9768C72.1588 60.3021 70.6898 63.9707 66.3875 63.9838C64.8651 63.9885 63.543 63.5745 62.5195 62.5414C62.2247 62.2431 62.2442 61.7571 62.5348 61.4568L62.9292 61.0546C63.2172 60.7609 63.6759 60.7457 63.9968 61.003C64.6368 61.5178 65.5026 61.8247 66.4476 61.8218C68.6334 61.8151 69.3342 60.2426 69.4372 56.8038C69.4608 56.7136 69.4599 56.4407 69.4595 56.3041C68.962 57.3745 67.8951 58.3572 65.8919 58.3633C62.8179 58.3726 61.6963 56.0999 61.6893 53.8006C61.6805 50.9094 63.4726 48.7413 66.7733 48.7312Z" fill="#1b8354"/><path d="M66.7356 51.1793C65.2058 51.184 64.4965 51.9779 64.5016 53.6774C64.5067 55.3383 65.1712 56.0765 66.6589 56.072C68.0407 56.0678 68.6463 55.3572 68.9124 54.7623C69.1792 54.1618 69.1216 53.527 69.0269 53.1008C68.7279 51.7496 68.0427 51.1753 66.7356 51.1793ZM66.6602 56.5067C64.9217 56.512 64.0739 55.5862 64.0681 53.6787C64.0622 51.7386 64.9589 50.7511 66.7343 50.7457C68.244 50.7411 69.1069 51.4599 69.4506 53.0062C69.6071 53.7091 69.5578 54.3771 69.3076 54.9383C68.8592 55.9456 67.919 56.5028 66.6602 56.5067ZM63.4848 61.039C63.3378 61.0395 63.1939 61.0956 63.0853 61.207L62.6915 61.6085C62.475 61.8306 62.4665 62.1802 62.6727 62.3886C63.5975 63.321 64.8114 63.7719 66.3861 63.7671C71.2281 63.7523 71.9366 58.8801 71.9277 55.9772C71.9135 51.3031 70.1793 48.938 66.7735 48.9484C63.7624 48.9576 61.8975 50.8161 61.9066 53.7999C61.9097 54.8223 62.2062 58.158 65.8913 58.1468C67.9375 58.1406 68.8539 57.0909 69.2629 56.2131L69.674 55.33L69.6769 56.3031C69.6778 56.572 69.673 56.7577 69.6492 56.8554C69.561 59.9434 68.9792 62.0312 66.449 62.0389C65.4801 62.0419 64.5615 61.7338 63.8617 61.1734C63.749 61.0833 63.6161 61.0386 63.4848 61.039ZM66.3874 64.2018C64.6908 64.2069 63.3751 63.7134 62.3652 62.694C61.9933 62.318 61.9999 61.6955 62.3822 61.306L62.7766 60.9038C63.1378 60.5329 63.7224 60.5028 64.134 60.8344C64.7572 61.3333 65.5787 61.6069 66.449 61.6042C68.3294 61.5985 69.0701 60.4183 69.2113 57.1246C68.6527 57.8379 67.6514 58.5748 65.894 58.5802C62.6458 58.5901 61.4812 56.1182 61.4742 53.8012C61.4644 50.5991 63.5443 48.5246 66.7736 48.5148C70.4155 48.5037 72.3478 51.0835 72.3627 55.9759C72.3788 61.2682 70.2563 64.19 66.3874 64.2018Z" fill="#1b8354"/></svg>