<svg xmlns="http://www.w3.org/2000/svg" width="32" height="36" viewBox="0 0 77 86" fill="none"><path d="M36.2504 57.0802L42.1808 57.0621L42.1734 54.6237C42.1589 49.8689 43.7927 45.211 46.7731 41.508L55.5393 30.6146C56.796 29.0535 57.4851 27.09 57.479 25.0864L57.4141 3.7567L19.8783 3.80768L19.943 25.054C19.9494 27.139 20.7006 29.1586 22.0588 30.741L31.2256 41.4261C34.447 45.1795 36.2287 49.9716 36.2438 54.9177L36.2504 57.0802ZM43.6623 60.0035L34.7868 60.0305C33.9725 60.033 33.3113 59.3757 33.3088 58.5616L33.2977 54.9267C33.2848 50.6805 31.7548 46.5673 28.9897 43.3443L19.8226 32.6595C18.0094 30.5464 17.0057 27.8481 16.9972 25.063L16.928 2.34128C16.9268 1.94998 17.0814 1.57443 17.3568 1.29736C17.6322 1.02029 18.0068 0.865444 18.3971 0.864255L58.8803 0.809204C59.6926 0.807761 60.3529 1.46506 60.3554 2.27726L60.4248 25.0774C60.433 27.7535 59.5126 30.3762 57.8346 32.4622L49.0685 43.3548C46.5092 46.5337 45.107 50.5326 45.1195 54.6147L45.1314 58.5256C45.1338 59.3397 44.4766 60.001 43.6623 60.0035Z" fill="#1B8354"/><path d="M49.365 68.2509C48.8821 68.2524 48.4073 68.0162 48.1239 67.581L43.6332 60.6745C43.409 60.3287 43.0306 60.1242 42.6199 60.1254L35.0151 60.1486C34.6042 60.1498 34.2269 60.3566 34.0047 60.7038L29.5565 67.6376C29.1173 68.3206 28.2058 68.519 27.5207 68.0819C26.8367 67.6427 26.6373 66.7315 27.0764 66.0464L31.5256 59.1127C32.2894 57.921 33.5907 57.2068 35.0061 57.2025L42.611 57.1793C44.0264 57.175 45.3319 57.8813 46.1037 59.0683L50.594 65.9748C51.0374 66.6572 50.8434 67.5696 50.162 68.013C49.9159 68.1728 49.6392 68.2501 49.365 68.2509Z" fill="#1B8354"/><path d="M54.2984 85.086L41.779 85.1241C40.966 85.1266 40.3047 84.469 40.3022 83.656C40.2998 82.8418 40.957 82.1805 41.77 82.178L54.2895 82.1399C55.2474 82.1369 56.1286 81.6971 56.7063 80.9331C57.2848 80.1701 57.4682 79.2026 57.2108 78.28L55.0606 70.5809C54.6936 69.2673 53.4854 68.353 52.1208 68.3571L25.5644 68.438C24.2 68.4422 22.9973 69.3639 22.6386 70.6797L20.5353 78.3917C20.2836 79.3159 20.4729 80.2822 21.056 81.0417C21.6383 81.8022 22.5219 82.2366 23.4798 82.2337L35.5287 82.197C36.3417 82.1945 37.0029 82.8518 37.0054 83.6661C37.0079 84.4791 36.3506 85.1406 35.5376 85.1431L23.4888 85.1798C21.6026 85.1855 19.8634 84.3307 18.7166 82.8341C17.5708 81.3375 17.1972 79.4362 17.6929 77.6167L19.7961 69.9047C20.5026 67.314 22.8704 65.5001 25.5554 65.4919L52.1118 65.4111C54.7971 65.4029 57.176 67.2034 57.898 69.7887L60.0481 77.4877C60.5552 79.3042 60.193 81.2077 59.0564 82.7113C57.9185 84.2148 56.1836 85.0802 54.2984 85.086Z" fill="#1B8354"/><path d="M15.5229 4.54084C15.0948 4.54214 14.7476 4.8918 14.7489 5.31968C14.7502 5.74781 15.0995 6.09402 15.5276 6.09272C15.9555 6.09142 16.302 5.74308 16.3007 5.31495C16.2994 4.88707 15.9508 4.53954 15.5229 4.54084ZM15.5353 8.618C13.7152 8.62354 12.2292 7.14751 12.2236 5.32737C12.2181 3.50619 13.6951 2.02111 15.5152 2.01557C17.3351 2.01002 18.8216 3.48608 18.8271 5.30726C18.8326 7.1274 17.3552 8.61245 15.5353 8.618Z" fill="#1B8354"/><path d="M20.2497 32.2601C19.8536 32.2613 19.4566 32.1034 19.1652 31.7894C18.3625 30.9246 17.0536 29.6916 15.6687 28.3854C14.147 26.952 12.5742 25.4691 11.3443 24.1756C-0.290245 11.9297 0.944526 5.54285 1.12392 4.85469C1.29212 4.20698 1.87574 3.75471 2.54429 3.75267L9.42246 3.73172C10.2357 3.72925 10.8969 4.38651 10.8994 5.19974C10.9065 7.53956 12.4362 8.58138 13.9474 8.57678C15.2508 8.57281 16.7687 7.73771 16.7616 5.39994C16.7591 4.58594 17.4163 3.92465 18.2303 3.92217C19.0436 3.91969 19.7049 4.57697 19.7074 5.39097C19.7196 9.40489 16.8239 11.5139 13.9564 11.5226C12.4025 11.5273 10.9403 10.9531 9.83864 9.90582C9.17329 9.27198 8.4081 8.23994 8.09649 6.68185L3.99206 6.69435C4.23069 8.80306 5.69435 13.9517 13.4802 22.1464C14.6538 23.3809 16.1969 24.8356 17.6889 26.2413C19.1105 27.582 20.4546 28.8476 21.3245 29.7846C21.8777 30.38 21.8437 31.3125 21.2474 31.8668C20.9648 32.1284 20.6076 32.259 20.2497 32.2601Z" fill="#1B8354"/><path d="M62.0308 4.39939C61.6026 4.4007 61.2551 4.75035 61.2564 5.17823C61.2577 5.60636 61.6074 5.95257 62.0355 5.95127C62.4634 5.94997 62.8108 5.60163 62.8095 5.1735C62.8082 4.74562 62.4586 4.39809 62.0308 4.39939ZM62.0432 8.47655C60.223 8.48209 58.7368 7.00606 58.7313 5.18592C58.7258 3.36475 60.2029 1.87966 62.0231 1.87412C63.843 1.86857 65.3293 3.34464 65.3348 5.16581C65.3403 6.98595 63.8631 8.471 62.0432 8.47655Z" fill="#1B8354"/><path d="M57.4724 32.1465C57.1148 32.1476 56.7566 32.0192 56.4727 31.7593C55.8727 31.2087 55.8332 30.2764 56.3826 29.6777C57.247 28.7354 58.5831 27.4617 59.9965 26.1123C61.4799 24.6975 63.014 23.2334 64.1803 21.9919C71.977 13.6856 73.3851 8.57479 73.5896 6.48223L69.4717 6.49477C68.862 9.6922 66.2389 11.3632 63.6393 11.3711C60.772 11.3799 57.8633 9.28856 57.8511 5.27464C57.8486 4.46063 58.5059 3.79935 59.3192 3.79687C60.1334 3.79439 60.7947 4.45166 60.7972 5.26567C60.8043 7.60343 62.3272 8.42928 63.6304 8.42531C64.4099 8.42294 65.1663 8.12511 65.7035 7.60783C66.3306 7.00274 66.6611 6.11099 66.6578 5.02977C66.6553 4.21653 67.3126 3.55526 68.1259 3.55278L75.0033 3.53184C75.6726 3.5298 76.2589 3.97851 76.4313 4.62518C76.6146 5.31224 77.8884 11.6915 66.3284 24.008C65.1065 25.3089 63.5427 26.8014 62.0297 28.2441C60.6531 29.5586 59.3514 30.7996 58.5542 31.6693C58.2647 31.985 57.8688 32.1453 57.4724 32.1465Z" fill="#1B8354"/></svg>