<svg xmlns="http://www.w3.org/2000/svg" width="18" height="20" viewBox="0 0 18 20" fill="none"><path fill-rule="evenodd" clip-rule="evenodd" d="M12.5 4.75C11.259 4.75 10.25 3.741 10.25 2.5C10.25 1.259 11.259 0.25 12.5 0.25C13.741 0.25 14.75 1.259 14.75 2.5C14.75 3.741 13.741 4.75 12.5 4.75ZM12.5 1.75C12.086 1.75 11.75 2.086 11.75 2.5C11.75 2.914 12.086 3.25 12.5 3.25C12.914 3.25 13.25 2.914 13.25 2.5C13.25 2.086 12.914 1.75 12.5 1.75Z" fill="#1B8354"/><path fill-rule="evenodd" clip-rule="evenodd" d="M11.9977 19.75C11.6627 19.75 11.3577 19.524 11.2717 19.184L10.6076 16.564C10.4216 15.835 10.0357 15.167 9.49367 14.635L8.00168 13.164C6.94168 12.333 6.35564 11.868 6.08664 11.139C5.96664 10.808 5.91067 10.467 5.91867 10.122C5.93667 9.35097 6.33564 8.73296 7.06164 7.60996L7.55461 6.84902C5.32261 7.15502 4.35367 8.13496 3.66667 9.48897C3.47967 9.85796 3.02766 10.006 2.65866 9.81797C2.28966 9.62997 2.14166 9.17896 2.32966 8.80996C3.57466 6.35596 5.56361 5.291 8.97961 5.25H9.86965C10.4414 5.25 10.7868 5.25 11.1347 5.40596C11.1437 5.40996 11.1526 5.41404 11.1626 5.41904C11.5066 5.59004 11.7647 5.89103 12.2277 6.45303C12.3017 6.54103 12.3857 6.62601 12.4607 6.68701C13.7037 7.60401 15.0426 7.27298 16.4406 5.70098C16.7156 5.39198 17.1896 5.36397 17.4996 5.63896C17.8096 5.91396 17.8366 6.38805 17.5616 6.69805C15.3576 9.17605 13.3827 8.86002 12.2307 8.29502L9.46564 12.498L10.5487 13.566C11.2847 14.289 11.8087 15.199 12.0637 16.194L12.7277 18.816C12.8297 19.218 12.5867 19.626 12.1847 19.727C12.1227 19.743 12.0606 19.75 11.9996 19.75H11.9977ZM9.40666 6.75L8.32169 8.42652C7.74531 9.31856 7.42764 9.81021 7.41965 10.158C7.41565 10.316 7.4417 10.473 7.4967 10.625C7.5827 10.858 7.83967 11.109 8.32267 11.504L11.0397 7.37402C10.8537 7.14902 10.6067 6.851 10.5027 6.771C10.4107 6.751 10.1357 6.75098 9.86867 6.75098L9.40666 6.75Z" fill="#1B8354"/><path d="M1.50512 16.6198C1.87711 16.7078 2.24915 16.7498 2.61615 16.7498L2.61512 16.7507C4.30312 16.7507 5.8761 15.8518 6.6641 14.3488C6.8561 13.9818 6.71518 13.5278 6.34818 13.3358C5.98118 13.1438 5.52714 13.2847 5.33514 13.6517C4.70414 14.8547 3.23913 15.4887 1.85013 15.1597L1.17216 14.9998C0.769155 14.9038 0.365154 15.1548 0.270155 15.5578C0.175153 15.9608 0.425113 16.3647 0.828113 16.4597L1.50512 16.6198Z" fill="#1B8354"/></svg>