<svg width="24" height="28" viewBox="0 0 24 28" fill="none" xmlns="http://www.w3.org/2000/svg">
<path fill-rule="evenodd" clip-rule="evenodd" d="M14.92 4.78681C12.967 4.73773 11.033 4.73773 9.07999 4.7868L9.02182 4.78826C7.497 4.82655 6.27002 4.85735 5.2867 5.0286C4.2572 5.20789 3.42048 5.55177 2.71362 6.26132C2.00971 6.9679 1.66764 7.7926 1.49176 8.8054C1.32429 9.76978 1.29878 10.9668 1.26719 12.4496L1.26593 12.5084C1.24469 13.5047 1.24469 14.4953 1.26594 15.4916L1.26719 15.5504C1.29879 17.0332 1.32429 18.2302 1.49176 19.1946C1.66764 20.2074 2.00972 21.0321 2.71362 21.7387C3.42048 22.4482 4.2572 22.7921 5.2867 22.9714C6.27001 23.1426 7.49697 23.1735 9.02177 23.2117L9.07999 23.2132C11.033 23.2623 12.967 23.2623 14.92 23.2132L14.9782 23.2117C16.503 23.1735 17.73 23.1426 18.7133 22.9714C19.7428 22.7921 20.5795 22.4482 21.2864 21.7387C21.9903 21.0321 22.3324 20.2074 22.5082 19.1946C22.6757 18.2302 22.7012 17.0332 22.7328 15.5503L22.7341 15.4916C22.7553 14.4953 22.7553 13.5047 22.7341 12.5084L22.7328 12.4497C22.7012 10.9668 22.6757 9.76979 22.5082 8.80542C22.3324 7.79261 21.9903 6.96792 21.2864 6.26134C20.5795 5.55179 19.7428 5.20791 18.7133 5.02862C17.73 4.85737 16.503 4.82656 14.9782 4.78827L14.92 4.78681ZM9.11766 6.28633C11.0456 6.23789 12.9544 6.23789 14.8823 6.28633C16.479 6.32645 17.5947 6.35638 18.4559 6.50637C19.2835 6.65049 19.7994 6.89411 20.2237 7.31998C20.3977 7.49459 20.5405 7.68255 20.6582 7.89829L14.7173 11.2644C13.4621 11.9757 12.7003 12.25 12.0001 12.25C11.2999 12.25 10.5381 11.9757 9.28285 11.2644L3.34181 7.8982C3.4595 7.68249 3.60237 7.49455 3.77629 7.31997C4.20055 6.89409 4.71652 6.65048 5.54405 6.50636C6.40529 6.35637 7.52099 6.32644 9.11766 6.28633ZM2.92102 9.38383C2.81754 10.1756 2.79468 11.1765 2.76559 12.5404C2.7448 13.5154 2.7448 14.4846 2.7656 15.4596C2.79877 17.0152 2.82385 18.0984 2.96964 18.938C3.10923 19.7418 3.34907 20.2512 3.77629 20.68C4.20056 21.1059 4.71653 21.3495 5.54406 21.4936C6.4053 21.6436 7.521 21.6736 9.11767 21.7137C11.0456 21.7621 12.9544 21.7621 14.8823 21.7137C16.479 21.6736 17.5947 21.6436 18.4559 21.4936C19.2835 21.3495 19.7994 21.1059 20.2237 20.68C20.6509 20.2512 20.8908 19.7418 21.0304 18.938C21.1762 18.0984 21.2012 17.0152 21.2344 15.4596C21.2552 14.4846 21.2552 13.5154 21.2344 12.5404C21.2053 11.1765 21.1825 10.1757 21.079 9.38394L15.4568 12.5695C14.1635 13.3023 13.1126 13.75 12.0001 13.75C10.8876 13.75 9.83667 13.3023 8.54339 12.5695L2.92102 9.38383Z" fill="#1B8354"/>
</svg>
