<svg xmlns="http://www.w3.org/2000/svg" width="32" height="32" viewBox="0 0 32 32" fill="none"><path d="M0.5 4C0.5 2.067 2.067 0.5 4 0.5H28C29.933 0.5 31.5 2.067 31.5 4V28C31.5 29.933 29.933 31.5 28 31.5H4C2.067 31.5 0.5 29.933 0.5 28V4Z" stroke="white" stroke-opacity="0.3"/><path fill-rule="evenodd" clip-rule="evenodd" d="M16.0001 19.125C14.2742 19.125 12.8751 17.7259 12.8751 16C12.8751 14.2741 14.2742 12.875 16.0001 12.875C17.726 12.875 19.1251 14.2741 19.1251 16C19.1251 17.7259 17.726 19.125 16.0001 19.125ZM14.1251 16C14.1251 17.0355 14.9645 17.875 16.0001 17.875C17.0356 17.875 17.8751 17.0355 17.8751 16C17.8751 14.9645 17.0356 14.125 16.0001 14.125C14.9645 14.125 14.1251 14.9645 14.1251 16Z" fill="white"/><path fill-rule="evenodd" clip-rule="evenodd" d="M16.0001 9.54166C13.8579 9.54166 12.0217 10.4845 10.6003 11.5941C9.17769 12.7048 8.12613 14.0164 7.53792 14.8413L7.49357 14.9031C7.28261 15.1965 7.04175 15.5315 7.04175 16C7.04175 16.4685 7.28261 16.8035 7.49357 17.0969L7.53792 17.1587C8.12614 17.9835 9.17769 19.2952 10.6003 20.4058C12.0217 21.5155 13.8579 22.4583 16.0001 22.4583C18.1422 22.4583 19.9785 21.5155 21.3998 20.4058C22.8225 19.2952 23.874 17.9835 24.4622 17.1587L24.5066 17.0969C24.7176 16.8035 24.9584 16.4685 24.9584 16C24.9584 15.5315 24.7176 15.1965 24.5066 14.9031L24.4622 14.8413C23.874 14.0164 22.8225 12.7048 21.3998 11.5941C19.9785 10.4845 18.1422 9.54166 16.0001 9.54166ZM8.55564 15.567C9.10581 14.7956 10.0771 13.5885 11.3695 12.5794C12.6633 11.5694 14.2345 10.7917 16.0001 10.7917C17.7656 10.7917 19.3369 11.5694 20.6306 12.5794C21.9231 13.5885 22.8944 14.7956 23.4445 15.567C23.5806 15.7579 23.6454 15.8511 23.684 15.9253C23.7086 15.9724 23.7085 15.9853 23.7084 15.998L23.7084 16L23.7084 16.002C23.7085 16.0146 23.7086 16.0276 23.684 16.0747C23.6454 16.1489 23.5806 16.2421 23.4445 16.4329C22.8944 17.2044 21.9231 18.4115 20.6306 19.4205C19.3369 20.4306 17.7656 21.2083 16.0001 21.2083C14.2345 21.2083 12.6633 20.4306 11.3695 19.4205C10.0771 18.4115 9.10581 17.2044 8.55564 16.4329C8.41954 16.2421 8.35476 16.1489 8.31615 16.0747C8.2916 16.0276 8.29167 16.0146 8.29174 16.002L8.29175 16L8.29174 15.998C8.29167 15.9853 8.2916 15.9724 8.31615 15.9253C8.35476 15.8511 8.41954 15.7579 8.55564 15.567Z" fill="white"/></svg>