<svg xmlns="http://www.w3.org/2000/svg" width="22" height="22" viewBox="0 0 22 22" fill="none"><path fill-rule="evenodd" clip-rule="evenodd" d="M11 0.25C5.06294 0.25 0.25 5.06294 0.25 11C0.25 16.9371 5.06294 21.75 11 21.75C16.9371 21.75 21.75 16.9371 21.75 11C21.75 5.06294 16.9371 0.25 11 0.25ZM9.77338 1.83061C10.1747 1.77744 10.5841 1.75 11 1.75C11.4203 1.75 11.834 1.77803 12.2394 1.83232L11.0144 2.7038L9.77338 1.83061ZM7.83948 2.30401C6.02109 2.96505 4.4687 4.18019 3.38646 5.74528L4.78945 8.92424L7.78008 9.67189C7.84381 9.59245 7.91801 9.51977 8.00223 9.45602L10.2502 7.75455V4.00016L7.83948 2.30401ZM11.7502 4.02122V7.75501L13.7713 9.28482L17.142 8.0208L18.219 5.21596C17.1687 3.90683 15.7697 2.88949 14.1629 2.30486L11.7502 4.02122ZM19.2288 6.77081L18.7085 8.12576L20.0596 9.12365C19.8885 8.29329 19.6061 7.50359 19.2288 6.77081ZM20.2491 11.1284L17.8508 9.35703L14.4918 10.6166C14.4828 10.6973 14.4661 10.7776 14.4415 10.8565L13.6011 13.5511C13.609 13.5618 13.6167 13.5728 13.6242 13.584L15.6181 16.5747L18.0306 17.0114C19.3884 15.4248 20.2186 13.3732 20.2491 11.1284ZM16.6903 18.2932L15.1118 18.0075L14.5758 19.5335C15.3379 19.2138 16.0481 18.795 16.6903 18.2932ZM12.7955 20.0759L13.9085 16.907C13.9226 16.8667 13.9399 16.8283 13.9601 16.7919L12.4317 14.4994C12.4186 14.4998 12.4054 14.5 12.3922 14.5H9.6076C9.46925 14.5 9.33646 14.4772 9.21252 14.4352L7.8014 16.1991L7.76744 19.6695C8.7737 20.0448 9.86289 20.25 11 20.25C11.6143 20.25 12.2147 20.1901 12.7955 20.0759ZM6.27437 18.9535L6.29423 16.9248L3.91763 16.9503C4.58381 17.7424 5.38041 18.4212 6.27437 18.9535ZM2.99748 15.6422L2.99553 15.4601L6.5017 15.4225L8.28653 13.1915L7.66182 11.1885L4.24649 10.3347L1.81811 12.1282C1.97235 13.3966 2.38332 14.5858 2.99748 15.6422ZM1.77653 10.2942L3.26822 9.19242L2.47692 7.39946C2.09587 8.30035 1.85349 9.27417 1.77653 10.2942ZM9.03554 10.5551L10.9999 9.06833L12.9642 10.5551L12.2017 13H9.79807L9.03554 10.5551Z" fill="#1B8354"/></svg>