<svg xmlns="http://www.w3.org/2000/svg" width="32" height="32" viewBox="0 0 32 32" fill="none"><path d="M0.5 4C0.5 2.067 2.067 0.5 4 0.5H28C29.933 0.5 31.5 2.067 31.5 4V28C31.5 29.933 29.933 31.5 28 31.5H4C2.067 31.5 0.5 29.933 0.5 28V4Z" stroke="white" stroke-opacity="0.3"/><path d="M15.9393 24.1248C15.8901 24.1248 15.8409 24.1189 15.7909 24.1073C15.4559 24.0256 15.2501 23.6873 15.3318 23.3523C15.416 23.0065 15.8184 21.8214 17.4551 21.1106C17.4742 21.1023 17.4942 21.0947 17.5142 21.0881C17.5384 21.0772 17.5667 21.0647 17.6009 21.0531C18.2976 20.7964 19.1601 20.3598 19.4876 20.0965C19.5035 20.084 19.5201 20.0715 19.5376 20.0606L21.8668 18.5406C21.9076 18.5031 21.9068 18.4848 21.9059 18.4781C21.9026 18.4181 21.8351 18.2923 21.6926 18.1998C20.6468 17.504 19.6801 17.9081 18.2118 18.6564C18.1109 18.7081 18.0101 18.7597 17.9093 18.8097C17.1151 19.2031 16.1368 19.1448 15.3526 18.6581C14.6085 18.1965 14.1643 17.4272 14.1643 16.6014C14.1643 15.7756 14.6085 15.0006 15.4143 14.454C16.5443 13.6881 18.2418 13.4456 19.3809 13.884L21.1826 14.4098C21.3509 14.4598 21.5251 14.4406 21.6742 14.3565C21.8192 14.2748 21.9218 14.1431 21.9635 13.9848C22.0418 13.6923 21.8784 13.3898 21.5842 13.2781L19.6201 12.5456C19.6201 12.5456 19.6168 12.5439 19.6143 12.5431L18.8726 12.3156C18.2626 12.1331 17.8218 12.0656 17.4926 12.1056C16.9368 12.1747 15.4501 12.8314 14.6435 13.2289C14.3343 13.3814 13.9593 13.2548 13.8068 12.9448C13.6543 12.6356 13.7809 12.2606 14.0909 12.1081C14.3234 11.9931 16.3926 10.9831 17.3409 10.8648C17.8492 10.8031 18.4509 10.8848 19.2359 11.1198L19.9943 11.3523C20.0026 11.3548 20.011 11.3573 20.0193 11.3606C20.026 11.3631 20.0335 11.3656 20.0401 11.3681L20.0518 11.3722C20.2043 11.4272 20.3676 11.4197 20.5126 11.3514C20.6643 11.2806 20.7776 11.1523 20.8326 10.9915C20.9401 10.6823 20.7876 10.3456 20.4851 10.2215L18.9026 9.56723L18.7676 9.51727C18.3201 9.35227 18.0734 9.26223 17.8509 9.20973C17.5742 9.1464 17.2676 9.11725 16.9426 9.12558L16.9193 9.12729C16.8376 9.13229 16.7918 9.13563 16.6126 9.1723C16.606 9.17396 16.5993 9.1748 16.5926 9.17563C16.4151 9.20563 16.3159 9.23892 16.0976 9.31308L15.6693 9.45892C14.2434 9.94392 13.6526 10.1448 13.0393 10.5906C11.4135 11.7764 10.4276 13.1264 10.1734 13.9389C9.90259 14.8056 9.90259 15.8706 9.90259 17.9939V23.5023C9.90259 23.8473 9.62259 24.1273 9.27759 24.1273C8.93259 24.1273 8.65259 23.8473 8.65259 23.5023V17.9939C8.65259 15.7447 8.65256 14.6156 8.98006 13.5664C9.4484 12.0731 11.0035 10.5289 12.3035 9.58058C13.0718 9.02308 13.8051 8.77313 15.2668 8.27646L15.6976 8.12974C15.9334 8.04974 16.1051 7.99224 16.3735 7.94557C16.611 7.89807 16.7076 7.88896 16.8368 7.88063L16.8701 7.87811C16.8793 7.87811 16.8876 7.87723 16.8967 7.8764C17.3326 7.86473 17.7485 7.90395 18.1335 7.99228C18.4326 8.06228 18.7051 8.16226 19.1993 8.34393L19.3459 8.39813C19.3534 8.40146 19.3618 8.40391 19.3693 8.40724L20.9618 9.06561C21.8768 9.44144 22.3401 10.4664 22.0151 11.3989C21.9418 11.6148 21.8309 11.8114 21.6909 11.9823L22.026 12.1073C22.926 12.4481 23.4184 13.3923 23.1734 14.3048C23.0459 14.7906 22.7318 15.1964 22.2893 15.4456C21.8426 15.6972 21.3251 15.7556 20.8318 15.6089L19.0059 15.0764C18.9868 15.0706 18.9676 15.064 18.9493 15.0573C18.1876 14.7531 16.9176 14.9473 16.1176 15.4889C15.6526 15.8039 15.4167 16.1789 15.4167 16.6014C15.4167 16.9981 15.6342 17.3606 16.0142 17.5965C16.4334 17.8565 16.9467 17.8931 17.3542 17.6914C17.4501 17.6431 17.5485 17.5931 17.6476 17.5431C18.9893 16.8597 20.6593 16.0089 22.3843 17.1564C22.8418 17.4548 23.1326 17.9265 23.1576 18.4148C23.1801 18.844 22.9951 19.2397 22.6384 19.5289C22.6218 19.5422 22.6043 19.5548 22.5868 19.5664L20.2493 21.0923C19.7468 21.4848 18.7509 21.964 18.0459 22.224L18.0343 22.2306C17.9959 22.2506 17.956 22.2664 17.9151 22.2781C17.6768 22.3881 16.7426 22.8664 16.5518 23.6498C16.4826 23.9356 16.2267 24.1273 15.9451 24.1273L15.9393 24.1248ZM18.0068 22.2348C18.0068 22.2348 18.0068 22.2348 18.0059 22.2348C18.0059 22.2348 18.0059 22.2348 18.0068 22.2348Z" fill="white"/></svg>