<svg xmlns="http://www.w3.org/2000/svg" width="22" height="22" viewBox="0 0 22 22" fill="none"><path fill-rule="evenodd" clip-rule="evenodd" d="M11 21.75C16.7777 21.75 21.4908 17.192 21.7397 11.4757C21.7508 11.4096 21.7531 11.3424 21.7465 11.2759C21.7488 11.1842 21.75 11.0923 21.75 11C21.75 5.06294 16.9371 0.25 11 0.25C5.06294 0.25 0.25 5.06294 0.25 11C0.25 16.9371 5.06294 21.75 11 21.75ZM11 1.75C9.88063 1.75 8.80771 1.94883 7.81461 2.31309C7.6298 3.09085 7.58106 4.4558 8.11716 5.95918C9.32789 5.13513 11.0396 4.56435 12.8797 4.34767C14.4033 4.16825 16.068 4.22472 17.6896 4.61154C16.0053 2.84836 13.6309 1.75 11 1.75ZM19.1906 6.69759C17.2507 5.82111 15.0392 5.60374 13.0551 5.83738C11.2376 6.0514 9.70115 6.63203 8.76925 7.33679C9.24982 8.13814 9.92367 8.94051 10.8533 9.68144C14.804 8.67319 17.995 8.77528 20.1842 9.89108C20.0479 8.74977 19.7037 7.67231 19.1906 6.69759ZM3.76077 5.2413C4.43946 4.38926 5.2654 3.65974 6.20009 3.09125C6.08577 5.18894 6.78144 8.38686 9.97428 10.8988C10.1113 12.5809 9.68646 14.0113 9.02382 15.1638C7.96232 14.5405 6.73734 13.2477 5.72211 11.5094C4.66214 9.69452 3.88446 7.48336 3.76077 5.2413ZM2.51861 7.30245C2.02423 8.43486 1.75 9.6854 1.75 11C1.75 14.0495 3.22568 16.7543 5.5019 18.4394C5.55688 18.3906 5.62003 18.3491 5.69052 18.3171C6.3939 17.9982 7.33209 17.3466 8.15347 16.3906C6.82001 15.5699 5.4807 14.0704 4.42684 12.2659C3.57641 10.8098 2.88198 9.10519 2.51861 7.30245ZM6.97638 19.3314C8.12117 19.8853 9.39744 20.2102 10.7457 20.2466C12.3741 18.9458 13.6016 17.1125 14.3633 15.2468C15.0907 13.4652 15.3596 11.7385 15.2093 10.4987C14.1134 10.5484 12.8744 10.7301 11.489 11.0687C11.7068 15.3122 8.96272 18.1438 6.97638 19.3314ZM20.2254 11.6804C19.4066 11.0563 18.2424 10.6353 16.7195 10.5179C16.8598 12.0644 16.5039 13.972 15.752 15.8138C15.1577 17.2696 14.297 18.732 13.1785 19.992C17.0229 19.0639 19.9306 15.7346 20.2254 11.6804Z" fill="#1B8354"/></svg>