<svg xmlns="http://www.w3.org/2000/svg" width="32" height="32" viewBox="0 0 32 32" fill="none"><path d="M0.5 4C0.5 2.067 2.067 0.5 4 0.5H28C29.933 0.5 31.5 2.067 31.5 4V28C31.5 29.933 29.933 31.5 28 31.5H4C2.067 31.5 0.5 29.933 0.5 28V4Z" stroke="white" stroke-opacity="0.3"/><path fill-rule="evenodd" clip-rule="evenodd" d="M11.6249 16C11.6249 13.5838 13.5837 11.625 15.9999 11.625C18.4162 11.625 20.3749 13.5838 20.3749 16C20.3749 18.4163 18.4162 20.375 15.9999 20.375C13.5837 20.375 11.6249 18.4163 11.6249 16ZM15.9999 12.875C14.274 12.875 12.8749 14.2742 12.8749 16C12.8749 17.7259 14.274 19.125 15.9999 19.125C17.7258 19.125 19.1249 17.7259 19.1249 16C19.1249 14.2742 17.7258 12.875 15.9999 12.875Z" fill="white"/><path d="M20.5898 12.25C21.05 12.25 21.4231 11.8769 21.4231 11.4167C21.4231 10.9565 21.05 10.5834 20.5898 10.5834H20.5823C20.122 10.5834 19.7489 10.9565 19.7489 11.4167C19.7489 11.8769 20.122 12.25 20.5823 12.25H20.5898Z" fill="white"/><path fill-rule="evenodd" clip-rule="evenodd" d="M16.0476 7.45837C17.8731 7.45836 19.3071 7.45836 20.4266 7.60887C21.5738 7.76311 22.484 8.08564 23.1992 8.8008C23.9143 9.51597 24.2369 10.4262 24.3911 11.5734C24.5416 12.6929 24.5416 14.1268 24.5416 15.9524V16.0477C24.5416 17.8733 24.5416 19.3072 24.3911 20.4267C24.2369 21.5739 23.9143 22.4841 23.1992 23.1993C22.484 23.9144 21.5738 24.237 20.4266 24.3912C19.3071 24.5417 17.8732 24.5417 16.0476 24.5417H15.9523C14.1267 24.5417 12.6928 24.5417 11.5733 24.3912C10.4261 24.237 9.51585 23.9144 8.80068 23.1993C8.08551 22.4841 7.76299 21.5739 7.60875 20.4267C7.45823 19.3072 7.45824 17.8733 7.45825 16.0477V15.9524C7.45824 14.1268 7.45823 12.6929 7.60875 11.5734C7.76299 10.4262 8.08551 9.51597 8.80068 8.8008C9.51585 8.08564 10.4261 7.76311 11.5733 7.60887C12.6928 7.45836 14.1267 7.45836 15.9522 7.45837H16.0476ZM11.7398 8.84772C10.7312 8.98333 10.1288 9.24048 9.68456 9.68469C9.24036 10.1289 8.9832 10.7313 8.8476 11.74C8.70958 12.7665 8.70825 14.1164 8.70825 16C8.70825 17.8837 8.70958 19.2335 8.8476 20.2601C8.9832 21.2687 9.24036 21.8712 9.68456 22.3154C10.1288 22.7596 10.7312 23.0168 11.7398 23.1524C12.7664 23.2904 14.1163 23.2917 15.9999 23.2917C17.8836 23.2917 19.2334 23.2904 20.26 23.1524C21.2686 23.0168 21.8711 22.7596 22.3153 22.3154C22.7595 21.8712 23.0166 21.2687 23.1522 20.2601C23.2903 19.2335 23.2916 17.8837 23.2916 16C23.2916 14.1164 23.2903 12.7665 23.1522 11.74C23.0166 10.7313 22.7595 10.1289 22.3153 9.68469C21.8711 9.24048 21.2686 8.98333 20.26 8.84772C19.2334 8.7097 17.8836 8.70837 15.9999 8.70837C14.1163 8.70837 12.7664 8.7097 11.7398 8.84772Z" fill="white"/></svg>