<svg xmlns="http://www.w3.org/2000/svg" width="21" height="19" viewBox="0 0 21 19" fill="none"><path fill-rule="evenodd" clip-rule="evenodd" d="M5.61684 1.82258C5.61684 0.815998 6.32411 0 7.19658 0C8.06904 0 8.77631 0.815998 8.77631 1.82258C8.77631 2.82917 8.06904 3.64517 7.19658 3.64517C6.32411 3.64517 5.61684 2.82917 5.61684 1.82258ZM7.19658 1.21506C6.90576 1.21506 6.67 1.48705 6.67 1.82258C6.67 2.15811 6.90576 2.43011 7.19658 2.43011C7.4874 2.43011 7.72316 2.15811 7.72316 1.82258C7.72316 1.48705 7.4874 1.21506 7.19658 1.21506Z" fill="#1B8354"/><path fill-rule="evenodd" clip-rule="evenodd" d="M5.8898 3.78214L7.1389 4.45485C7.3637 4.57575 7.54151 4.67139 7.70041 4.80824C7.81208 4.90443 7.91451 5.01434 8.00613 5.1359C8.13582 5.30798 8.2341 5.50667 8.36088 5.76299L8.38217 5.80603C8.66094 6.36903 8.74364 6.51991 8.84408 6.62124C8.92542 6.7033 9.01703 6.76579 9.11417 6.80691C9.23049 6.85615 9.3704 6.86494 9.91459 6.86494H10.3561C10.6469 6.86494 10.8827 7.13694 10.8827 7.47246C10.8827 7.80799 10.6469 8.07999 10.3561 8.07999L9.83742 8.08005C9.40883 8.0805 9.0662 8.08087 8.75138 7.9476C8.53114 7.85436 8.32787 7.71453 8.15083 7.53592C7.91083 7.2938 7.74327 6.96571 7.5359 6.54662L6.10165 8.91052H6.14343C6.75116 8.91052 7.32342 9.24064 7.68806 9.80157L9.37311 12.3937C9.5476 12.6621 9.50045 13.0429 9.26779 13.2442C9.03514 13.4455 8.70508 13.3911 8.53058 13.1227L6.84553 10.5306C6.67979 10.2756 6.41967 10.1256 6.14343 10.1256H3.65614L4.07722 10.8057C4.65424 11.7377 4.52462 13.0227 3.7775 13.7769L1.9265 15.6455C1.70763 15.8665 1.37496 15.8409 1.18345 15.5884C0.991945 15.3359 1.01412 14.952 1.23299 14.7311L3.08399 12.8625C3.42359 12.5197 3.48251 11.9356 3.22023 11.5119L2.20441 9.87117C2.0877 9.68266 2.07407 9.43399 2.16926 9.23002L4.39611 4.45871C4.32779 4.46755 4.24249 4.49557 4.10526 4.57183C3.93882 4.66433 3.73555 4.80439 3.42462 5.0197L2.77746 5.46781C2.47077 5.68018 2.39091 5.73989 2.32583 5.8135C2.2597 5.88831 2.20354 5.98352 2.00768 6.33951L0.971228 8.22343C0.815379 8.50671 0.489991 8.59059 0.244455 8.41079C-0.00108142 8.23098 -0.0737864 7.85557 0.0820637 7.57229L1.14497 5.64025C1.3022 5.35412 1.42472 5.13116 1.58855 4.94585C1.75339 4.75941 1.94757 4.62512 2.19407 4.45465L2.902 3.96448C3.18829 3.76622 3.43303 3.59675 3.64823 3.47715C3.87773 3.34961 4.10749 3.25864 4.36889 3.24264C4.63046 3.22663 4.86704 3.28916 5.10652 3.38825C5.33083 3.48107 5.58864 3.61993 5.8898 3.78214ZM5.40422 4.86156C5.424 4.8722 5.44421 4.88308 5.46487 4.89421L6.65492 5.53513C6.71674 5.56842 6.76849 5.59645 6.81227 5.62048L4.8161 8.91052H3.51451L5.40422 4.86156Z" fill="#1B8354"/><path fill-rule="evenodd" clip-rule="evenodd" d="M9.16281 17.6326C8.51444 18.3061 7.51558 18.2457 6.93179 17.4977C6.34799 16.7497 6.40034 15.5972 7.04871 14.9237C7.69708 14.2502 8.69594 14.3106 9.27973 15.0586C9.86353 15.8066 9.81118 16.9591 9.16281 17.6326ZM7.71444 16.6847C7.90903 16.934 8.24199 16.9541 8.45811 16.7296C8.67423 16.5051 8.69168 16.121 8.49708 15.8716C8.30249 15.6223 7.96953 15.6022 7.75341 15.8267C7.53729 16.0512 7.51984 16.4353 7.71444 16.6847Z" fill="#1B8354"/><path fill-rule="evenodd" clip-rule="evenodd" d="M10.2424 16.0874L9.83986 14.5663C9.76732 14.2926 9.70995 14.0762 9.69177 13.8484C9.679 13.6883 9.68126 13.5269 9.69826 13.367C9.72232 13.1407 9.78454 12.9235 9.86481 12.6432L9.87828 12.5962C10.0544 11.9805 10.0962 11.8086 10.0943 11.6547C10.0927 11.53 10.0717 11.4097 10.0332 11.2989C9.98706 11.1662 9.8991 11.0404 9.53496 10.5738L9.23952 10.1952C9.04493 9.94586 9.06238 9.56173 9.2785 9.33721C9.49462 9.1127 9.82758 9.13283 10.0222 9.38218L10.3693 9.82687C10.6564 10.194 10.8859 10.4876 11.0107 10.8466C11.098 11.0979 11.1439 11.3657 11.1474 11.637C11.152 12.0048 11.0528 12.368 10.9216 12.8262L13.4039 12.4742L13.376 12.4383C12.9693 11.9173 12.799 11.2057 12.9164 10.5178L13.4585 7.33857C13.5146 7.00935 13.7915 6.79498 14.0768 6.85975C14.3622 6.92452 14.548 7.2439 14.4918 7.57312L13.9497 10.7523C13.8964 11.065 13.9738 11.3885 14.1586 11.6253L15.8229 13.7579L15.9793 12.9418C16.1935 11.8234 17.1079 11.0747 18.0937 11.2106L20.5358 11.5473C20.8246 11.5871 21.0307 11.8894 20.9962 12.2226C20.9617 12.5558 20.6997 12.7936 20.4109 12.7538L17.9687 12.4171C17.5206 12.3553 17.105 12.6956 17.0076 13.204L16.6305 15.1728C16.5871 15.399 16.4361 15.5771 16.241 15.6319L11.6776 16.9153C11.729 16.968 11.8042 17.0224 11.9451 17.089C12.1161 17.1698 12.3423 17.2504 12.689 17.3729L13.4107 17.6279C13.7527 17.7488 13.8446 17.7773 13.9356 17.7838C14.028 17.7905 14.1269 17.7749 14.4873 17.7046L16.3943 17.3327C16.681 17.2767 16.9528 17.4996 17.0013 17.8304C17.0497 18.1613 16.8566 18.4748 16.5698 18.5307L14.6141 18.9122C14.3246 18.9688 14.099 19.013 13.87 18.9965C13.6397 18.9799 13.4232 18.9033 13.1485 18.806L12.359 18.527C12.0398 18.4142 11.7669 18.3178 11.5458 18.2133C11.3101 18.1019 11.0978 17.9658 10.9125 17.7524C10.7272 17.5388 10.6092 17.2941 10.5128 17.0225C10.4225 16.7681 10.3394 16.4541 10.2424 16.0874ZM11.2626 15.7814C11.2562 15.7573 11.2497 15.7327 11.243 15.7076L10.8595 14.2584C10.8396 14.1831 10.8231 14.12 10.8092 14.0664L14.2641 13.5764L15.1351 14.6923L11.2626 15.7814Z" fill="#1B8354"/></svg>