<svg xmlns="http://www.w3.org/2000/svg" width="32" height="32" viewBox="0 0 32 32" fill="none"><path d="M0.5 4C0.5 2.067 2.067 0.5 4 0.5H28C29.933 0.5 31.5 2.067 31.5 4V28C31.5 29.933 29.933 31.5 28 31.5H4C2.067 31.5 0.5 29.933 0.5 28V4Z" stroke="white" stroke-opacity="0.3"/><path fill-rule="evenodd" clip-rule="evenodd" d="M7.04175 9.54169C7.04175 8.16098 8.16104 7.04169 9.54175 7.04169C10.9225 7.04169 12.0417 8.16098 12.0417 9.54169C12.0417 10.9224 10.9225 12.0417 9.54175 12.0417C8.16104 12.0417 7.04175 10.9224 7.04175 9.54169ZM9.54175 8.29169C8.85139 8.29169 8.29175 8.85133 8.29175 9.54169C8.29175 10.232 8.85139 10.7917 9.54175 10.7917C10.2321 10.7917 10.7917 10.232 10.7917 9.54169C10.7917 8.85133 10.2321 8.29169 9.54175 8.29169Z" fill="white"/><path fill-rule="evenodd" clip-rule="evenodd" d="M9.29613 13.2917H9.78738C10.1481 13.2916 10.4788 13.2916 10.7478 13.3278C11.044 13.3676 11.3571 13.4613 11.6146 13.7188C11.8721 13.9763 11.9658 14.2895 12.0057 14.5857C12.0418 14.8547 12.0418 15.1854 12.0418 15.5461L12.0418 22.704C12.0418 23.0647 12.0418 23.3954 12.0057 23.6644C11.9658 23.9606 11.8721 24.2737 11.6146 24.5312C11.3571 24.7887 11.044 24.8824 10.7478 24.9223C10.4787 24.9584 10.1481 24.9584 9.78737 24.9584H9.29613C8.93545 24.9584 8.60476 24.9584 8.33575 24.9223C8.03951 24.8824 7.72641 24.7887 7.46889 24.5312C7.21137 24.2737 7.11766 23.9606 7.07784 23.6644C7.04167 23.3954 7.04171 23.0647 7.04175 22.704L7.04175 15.5461C7.04171 15.1854 7.04167 14.8547 7.07784 14.5857C7.11766 14.2895 7.21137 13.9763 7.46889 13.7188C7.72641 13.4613 8.03951 13.3676 8.33575 13.3278C8.60476 13.2916 8.93545 13.2916 9.29613 13.2917ZM8.35279 14.6027L8.35481 14.6016C8.35642 14.6007 8.35919 14.5994 8.36339 14.5977C8.38154 14.5902 8.42184 14.5774 8.50231 14.5666C8.67791 14.543 8.92291 14.5417 9.33342 14.5417H9.75009C10.1606 14.5417 10.4056 14.543 10.5812 14.5666C10.6617 14.5774 10.702 14.5902 10.7201 14.5977C10.7243 14.5994 10.7271 14.6007 10.7287 14.6016L10.7307 14.6027L10.7319 14.6048C10.7327 14.6064 10.7341 14.6091 10.7358 14.6133C10.7433 14.6315 10.756 14.6718 10.7668 14.7522C10.7904 14.9278 10.7918 15.1729 10.7918 15.5834L10.7918 22.6667C10.7918 23.0772 10.7904 23.3222 10.7668 23.4978C10.756 23.5783 10.7433 23.6186 10.7358 23.6367C10.7341 23.6409 10.7327 23.6437 10.7319 23.6453L10.7307 23.6473L10.7287 23.6485C10.7271 23.6493 10.7243 23.6507 10.7201 23.6524C10.702 23.6599 10.6617 23.6726 10.5812 23.6834C10.4056 23.707 10.1606 23.7084 9.75009 23.7084H9.33342C8.92291 23.7084 8.67791 23.707 8.50231 23.6834C8.42184 23.6726 8.38154 23.6599 8.36339 23.6524C8.35919 23.6507 8.35642 23.6493 8.35481 23.6485L8.35278 23.6473L8.35164 23.6453C8.3508 23.6437 8.34945 23.6409 8.34772 23.6367C8.34025 23.6186 8.32751 23.5783 8.31669 23.4978C8.29308 23.3222 8.29175 23.0772 8.29175 22.6667L8.29175 15.5834C8.29175 15.1729 8.29308 14.9278 8.31669 14.7522C8.32751 14.6718 8.34025 14.6315 8.34772 14.6133C8.34945 14.6091 8.3508 14.6064 8.35164 14.6048L8.35279 14.6027Z" fill="white"/><path fill-rule="evenodd" clip-rule="evenodd" d="M15.5461 13.2917C15.7875 13.2917 16.7593 13.2917 16.9438 13.3086C17.1433 13.3268 17.3606 13.3688 17.5699 13.4913C17.7859 13.6177 17.9658 13.7975 18.0922 14.0136L18.1022 14.031C18.7603 13.5663 19.5547 13.2919 20.414 13.2919C22.6601 13.2919 24.9585 15.2037 24.9585 17.6669L24.9574 22.288C24.9573 22.6486 24.9573 22.9792 24.921 23.2481C24.8812 23.5443 24.7874 23.8573 24.5299 24.1148C24.2724 24.3722 23.9593 24.4659 23.6632 24.5057C23.3942 24.5419 23.0636 24.5418 22.703 24.5418H22.2127C21.8521 24.5418 21.5214 24.5419 21.2524 24.5057C20.9561 24.4659 20.643 24.3722 20.3855 24.1147C20.128 23.8571 20.0343 23.544 19.9945 23.2478C19.9583 22.9788 19.9583 22.6481 19.9584 22.2874L19.9584 18.5001C19.9584 18.1189 19.6763 17.8751 19.4066 17.8751C18.9756 17.8751 18.7439 18.0404 18.5847 18.3048C18.3975 18.6157 18.2918 19.1074 18.2918 19.7501L18.2918 22.704C18.2918 23.0647 18.2918 23.3954 18.2557 23.6644C18.2158 23.9606 18.1221 24.2737 17.8646 24.5312C17.6071 24.7887 17.294 24.8825 16.9978 24.9223C16.7288 24.9584 16.3981 24.9584 16.0374 24.9584H15.5461C15.1854 24.9584 14.8548 24.9584 14.5857 24.9223C14.2895 24.8824 13.9764 24.7887 13.7189 24.5312C13.4614 24.2737 13.3677 23.9606 13.3278 23.6644C13.2917 23.3954 13.2917 23.0647 13.2918 22.704L13.2918 15.5461C13.2917 15.1854 13.2917 14.8547 13.3278 14.5857C13.3677 14.2895 13.4614 13.9763 13.7189 13.7188C13.9764 13.4613 14.2895 13.3676 14.5857 13.3278C14.8548 13.2916 15.1854 13.2916 15.5461 13.2917ZM15.5834 14.5417C15.1729 14.5417 14.9279 14.543 14.7523 14.5666C14.6959 14.5644 14.5799 14.5985 14.5667 14.7522C14.5431 14.9278 14.5417 15.1728 14.5417 15.5834L14.5417 22.6667C14.5417 23.0772 14.5431 23.3222 14.5667 23.4978C14.5767 23.5994 14.6946 23.6639 14.7523 23.6834C14.9279 23.707 15.1729 23.7084 15.5834 23.7084H16.0001C16.4106 23.7084 16.6556 23.707 16.8312 23.6834C16.8885 23.6689 17.0059 23.6115 17.0168 23.4978C17.0404 23.3222 17.0418 23.0772 17.0418 22.6667L17.0418 19.7501C17.0418 19.0121 17.1562 18.2539 17.5139 17.6599C17.8996 17.0195 18.5379 16.6251 19.4066 16.6251C20.4367 16.6251 21.2084 17.5007 21.2084 18.5001V22.2501C21.2084 22.6606 21.2097 22.9056 21.2333 23.0812C21.2333 23.2129 21.3129 23.235 21.3751 23.2523C21.3915 23.2568 21.4067 23.261 21.4189 23.2668C21.5945 23.2905 21.8395 23.2918 22.25 23.2918L22.6657 23.2918C23.0761 23.2918 23.3211 23.2905 23.4966 23.2669C23.5544 23.2454 23.6725 23.1783 23.6822 23.0813C23.7059 22.9057 23.7073 22.6608 23.7074 22.2504L23.7085 17.6667C23.7084 15.9878 22.0674 14.5419 20.414 14.5419C19.5161 14.5419 18.7037 14.9809 18.1642 15.6901C18.0018 15.9035 17.7213 15.9896 17.4671 15.9039C17.213 15.8182 17.0418 15.5799 17.0418 15.3117C17.0418 15.0375 17.0412 14.8742 17.0301 14.7537C17.0233 14.6276 16.8937 14.5676 16.8298 14.5533C16.7093 14.5423 16.5459 14.5417 16.2718 14.5417L15.5834 14.5417Z" fill="white"/></svg>