<svg width="24" height="28" viewBox="0 0 24 28" fill="none" xmlns="http://www.w3.org/2000/svg">
<path fill-rule="evenodd" clip-rule="evenodd" d="M12.0001 8.75C9.65291 8.75 7.75012 10.6528 7.75012 13C7.75012 15.3472 9.65291 17.25 12.0001 17.25C14.3473 17.25 16.2501 15.3472 16.2501 13C16.2501 10.6528 14.3473 8.75 12.0001 8.75ZM9.25012 13C9.25012 11.4812 10.4813 10.25 12.0001 10.25C13.5189 10.25 14.7501 11.4812 14.7501 13C14.7501 14.5188 13.5189 15.75 12.0001 15.75C10.4813 15.75 9.25012 14.5188 9.25012 13Z" fill="#1B8354"/>
<path fill-rule="evenodd" clip-rule="evenodd" d="M12.0012 3.25C8.17501 3.25 4.52468 5.51303 2.99677 9.08468C1.57481 12.4086 2.3446 15.2373 3.94735 17.6595C5.26141 19.6454 7.17798 21.4178 8.90706 23.0168C9.23672 23.3217 9.55973 23.6204 9.87029 23.9129L9.87195 23.9145C10.447 24.4528 11.2108 24.75 12.0012 24.75C12.7916 24.75 13.5554 24.4528 14.1304 23.9145C14.4239 23.6396 14.7282 23.3592 15.0386 23.0732C16.7865 21.4628 18.73 19.672 20.0579 17.6609C21.6587 15.2362 22.4258 12.4045 21.0056 9.08468C19.4777 5.51303 15.8273 3.25 12.0012 3.25ZM4.37588 9.67465C5.65469 6.68528 8.74179 4.75 12.0012 4.75C15.2606 4.75 18.3476 6.68528 19.6265 9.67465C20.7985 12.4144 20.2071 14.7124 18.8061 16.8344C17.5885 18.6786 15.805 20.3242 14.0518 21.9418C13.7341 22.235 13.4174 22.5272 13.1052 22.8195C12.8128 23.0932 12.4173 23.25 12.0012 23.25C11.5853 23.25 11.1901 23.0934 10.8978 22.8201C10.5653 22.5069 10.2277 22.1942 9.88903 21.8806C8.15816 20.2778 6.40287 18.6523 5.19829 16.8318C3.79592 14.7124 3.20233 12.4179 4.37588 9.67465Z" fill="#1B8354"/>
</svg>
