<svg width="154" height="58" viewBox="0 0 154 58" fill="none" xmlns="http://www.w3.org/2000/svg">
<rect width="154" height="58" fill="white"/>
<path d="M51.9659 35.6167C51.4062 35.2784 50.3862 34.7082 48.9781 34.2347C46.9471 33.5389 44.1127 33.017 40.7547 33.5872C39.6264 33.7805 38.4349 34.0994 37.1982 34.5729C37.0808 34.6213 36.9635 34.6599 36.8462 34.7082C36.2143 34.9595 35.5915 35.2688 34.9596 35.607C34.418 35.897 33.8854 36.2159 33.3528 36.5638C32.1342 37.3466 30.9337 38.2357 29.7692 39.2022C28.4423 30.6106 29.0922 22.6375 29.3991 18.7234C29.3991 18.7041 29.4262 18.6944 29.4443 18.7041C32.2877 20.6176 31.4933 25.962 30.8885 27.4986C30.8795 27.5276 30.9156 27.547 30.9427 27.5276C34.4812 23.053 32.7571 18.1049 32.0259 16.8582C32.0079 16.8292 32.044 16.8002 32.071 16.8195C32.5856 17.2641 33.0008 17.7376 33.3528 18.2208C34.4451 19.7188 34.8513 21.3328 34.9596 22.7631C35.0138 23.5169 34.9957 24.2127 34.9596 24.8119C34.9506 24.9762 34.9415 25.1212 34.9235 25.2662C34.9235 25.2855 34.9415 25.2951 34.9596 25.2855C34.9686 25.2855 34.9776 25.2855 34.9776 25.2758C35.9345 23.2656 36.3948 20.231 34.9596 17.2834C34.5714 16.4813 34.0479 15.6888 33.3528 14.9253C33.1543 14.703 32.9376 14.4904 32.7119 14.2681C32.6939 14.2488 32.7119 14.2101 32.739 14.2198C32.9556 14.2778 33.1543 14.3454 33.3528 14.4131C33.9576 14.6354 34.4902 14.9446 34.9596 15.3215C36.0338 16.172 36.7649 17.3317 37.1982 18.5494C37.5593 19.5545 37.7218 20.5886 37.7218 21.5067C37.7218 21.5454 37.7669 21.5454 37.7759 21.5164C38.4439 18.8973 38.0377 16.9162 37.1982 15.4762C36.6024 14.4421 35.781 13.6882 34.9596 13.1567C34.3999 12.7991 33.8403 12.5479 33.3528 12.3932C33.064 12.2966 32.8112 12.2386 32.5856 12.2096C32.5495 12.2096 32.5585 12.1516 32.5946 12.1516C32.8563 12.1226 33.1091 12.113 33.3528 12.1033C33.9486 12.0936 34.4812 12.1516 34.9596 12.2386C35.9074 12.4319 36.6476 12.7798 37.1982 13.1857C38.1009 13.8332 38.5522 14.5967 38.7057 14.906C38.7147 14.935 38.7598 14.9156 38.7598 14.8866C38.6335 13.5046 38.0377 12.4222 37.2072 11.6491C36.5663 11.0499 35.781 10.6343 34.9686 10.383C34.436 10.2284 33.8944 10.1414 33.3618 10.1318C32.6397 10.1221 31.9447 10.2477 31.3579 10.5183C31.3308 10.528 31.3128 10.499 31.3218 10.47C31.8454 9.66788 32.5856 9.18467 33.3618 8.92373C33.9035 8.74977 34.4541 8.68211 34.9686 8.72077C35.4651 8.74976 35.9164 8.86573 36.2865 9.04936C36.3136 9.05902 36.3317 9.03004 36.3136 9.00105C35.9074 8.50816 35.447 8.12158 34.9686 7.83165C34.4541 7.52239 33.9125 7.33877 33.3618 7.27112C31.9266 7.09716 30.4643 7.75434 29.4894 9.32963C29.4804 9.34896 29.4533 9.34896 29.4443 9.32963C29.2547 8.97205 29.0742 8.5758 28.9117 8.16024C28.5235 7.1938 28.2076 6.1114 28.0361 5.02899C28.0271 4.99034 27.991 4.99034 27.991 5.02899C27.8195 6.1114 27.4945 7.20347 27.1064 8.16991C26.9348 8.58548 26.7633 8.97205 26.5738 9.31997C26.5648 9.3393 26.5377 9.3393 26.5286 9.31997C24.8316 6.56563 21.6452 6.62361 19.7045 9.00105C19.6864 9.02037 19.7045 9.05902 19.7315 9.04936C21.0224 8.39218 23.4686 8.58547 24.6962 10.47C24.7143 10.499 24.6872 10.528 24.6601 10.5183C22.7735 9.66788 19.8489 10.2187 18.2873 12.2096C17.7276 12.9151 17.3485 13.8139 17.2492 14.8866C17.2492 14.9156 17.2853 14.935 17.3034 14.906C17.4207 14.6644 17.7276 14.1425 18.2873 13.6109C19.199 12.7508 20.7877 11.881 23.4144 12.142C23.4505 12.1516 23.4505 12.1999 23.4235 12.1999C22.0785 12.3739 19.3073 13.6593 18.2873 16.5972C17.8359 17.8923 17.7186 19.5159 18.2241 21.5067C18.2331 21.5357 18.2782 21.5357 18.2782 21.4971C18.2782 21.4487 18.2782 21.4101 18.2873 21.3618C18.3143 18.6944 19.7406 15.1186 23.27 14.2101C23.2971 14.2005 23.3151 14.2391 23.2971 14.2584C19.3524 17.9696 19.7406 22.5505 21.0314 25.2565C21.0494 25.2855 21.0855 25.2758 21.0855 25.2468C20.914 23.198 20.7786 19.5545 23.938 16.8002C23.9651 16.7808 24.0012 16.8098 23.9831 16.8388C23.252 18.0952 21.5279 23.0337 25.0663 27.5083C25.0844 27.5373 25.1295 27.518 25.1205 27.4793C24.5247 25.9523 23.7304 20.5983 26.5647 18.6847C26.5828 18.6751 26.6099 18.6847 26.6099 18.7041C26.9168 22.6181 27.5667 30.5912 26.2398 39.1828C23.956 37.3079 21.5459 35.665 19.1629 34.6986C18.865 34.5826 18.5761 34.4763 18.2963 34.37C15.832 33.5002 13.5753 33.2586 11.6075 33.3552C8.44816 33.5002 6.02901 34.5149 4.70208 35.2204C4.43128 35.3654 4.20561 35.5007 4.0341 35.607C3.96189 35.6553 4.01605 35.7616 4.08826 35.7327C4.29587 35.665 4.49447 35.5974 4.70208 35.5394C7.13027 34.8049 9.43207 34.6116 11.6075 34.8145C13.9815 35.0368 16.2111 35.7327 18.2963 36.7378C21.2209 38.1488 23.8658 40.1589 26.2578 42.2851C22.8819 45.4357 20.0294 48.4993 18.2963 49.572C18.206 49.6203 18.1248 49.6783 18.0435 49.7267C17.6283 49.1178 16.9062 48.7699 16.1209 48.9535C15.4348 49.1178 14.8752 49.7073 14.7217 50.4322C14.5863 51.0797 14.7398 51.7852 15.0828 52.1524C16.0035 53.1382 17.0687 53.2058 18.2963 52.655C20.6342 51.6015 23.5408 48.2963 27.1064 44.7978C27.4042 44.5079 27.7021 44.2083 28.009 43.9184C28.3159 44.2083 28.6138 44.4982 28.9117 44.7882C30.5275 46.3731 32.0078 47.9194 33.3618 49.2338C33.9215 49.775 34.4541 50.2775 34.9686 50.7221C35.763 51.4179 36.5122 51.9881 37.2072 52.3844C38.5703 53.1575 39.7528 53.2541 40.7638 52.2974C40.8179 52.249 40.8721 52.2007 40.9262 52.1427C41.1609 51.8915 41.4317 51.07 41.2873 50.4225C41.2061 50.0456 41.0165 49.7073 40.7547 49.4464C40.52 49.2048 40.2131 49.0212 39.8882 48.9438C39.1028 48.7602 38.3807 49.1081 37.9655 49.717C37.7308 49.5913 37.478 49.4174 37.1982 49.2144C36.5573 48.7409 35.8081 48.0741 34.9596 47.2816C34.4541 46.808 33.9215 46.2861 33.3528 45.7353C32.2516 44.6625 31.042 43.4835 29.7602 42.2754C30.8976 41.2607 32.0981 40.2749 33.3528 39.3665C33.8764 38.9896 34.409 38.6223 34.9596 38.2744C35.6908 37.8105 36.4309 37.3853 37.1982 36.989C38.3446 36.3995 39.5271 35.9066 40.7547 35.5297C43.3003 34.7469 46.0354 34.486 48.9781 34.9885C49.9349 35.1528 50.9098 35.3944 51.9117 35.723C51.984 35.7713 52.0381 35.665 51.9659 35.6167Z" fill="#9DA4AE"/>
<path d="M63.4403 34H61.8583V24.228H66.0583C67.8503 24.228 68.9003 25.39 68.9003 27.168C68.9003 28.946 67.8503 30.108 66.0583 30.108H63.4403V34ZM63.4403 25.614V28.722H65.9603C66.7583 28.722 67.2343 28.288 67.2343 27.504V26.832C67.2343 26.048 66.7583 25.614 65.9603 25.614H63.4403ZM73.0576 34H72.0776C71.0416 34 70.5236 33.426 70.5236 32.488V23.64H72.0496V32.754H73.0576V34ZM80.7038 34H79.8498C79.0518 34 78.6318 33.496 78.5338 32.782H78.4638C78.1838 33.692 77.3998 34.168 76.3358 34.168C74.8378 34.168 73.9838 33.314 73.9838 31.998C73.9838 30.556 75.0618 29.814 77.0918 29.814H78.4078V29.198C78.4078 28.316 77.9318 27.798 76.9098 27.798C76.0558 27.798 75.5378 28.218 75.1738 28.792L74.2638 27.966C74.7398 27.154 75.5938 26.552 77.0078 26.552C78.8838 26.552 79.9338 27.476 79.9338 29.1V32.754H80.7038V34ZM76.7698 33.006C77.7078 33.006 78.4078 32.558 78.4078 31.844V30.794H77.1198C76.0558 30.794 75.5378 31.144 75.5378 31.774V32.026C75.5378 32.67 76.0138 33.006 76.7698 33.006ZM85.5044 34H84.1744C83.1244 34 82.5644 33.412 82.5644 32.418V27.966H81.4304V26.72H82.0464C82.5504 26.72 82.7184 26.51 82.7184 26.006V24.732H84.0904V26.72H85.6164V27.966H84.0904V32.754H85.5044V34ZM87.5677 34V27.966H86.4617V26.72H87.5677V25.516C87.5677 24.34 88.1977 23.64 89.4157 23.64H90.6197V24.886H89.0937V26.72H90.6197V27.966H89.0937V34H87.5677ZM94.7488 34.168C92.7188 34.168 91.4028 32.684 91.4028 30.36C91.4028 28.036 92.7188 26.552 94.7488 26.552C96.7788 26.552 98.0948 28.036 98.0948 30.36C98.0948 32.684 96.7788 34.168 94.7488 34.168ZM94.7488 32.908C95.7848 32.908 96.4848 32.264 96.4848 30.976V29.744C96.4848 28.456 95.7848 27.812 94.7488 27.812C93.7128 27.812 93.0128 28.456 93.0128 29.744V30.976C93.0128 32.264 93.7128 32.908 94.7488 32.908ZM101.321 34H99.7951V26.72H101.321V28.12H101.391C101.601 27.378 102.231 26.72 103.393 26.72H103.799V28.19H103.197C101.993 28.19 101.321 28.596 101.321 29.352V34ZM106.681 34H105.155V26.72H106.681V27.924H106.751C107.045 27.168 107.591 26.552 108.697 26.552C109.677 26.552 110.503 27.028 110.853 28.036H110.895C111.161 27.224 111.917 26.552 113.093 26.552C114.535 26.552 115.389 27.588 115.389 29.38V34H113.863V29.562C113.863 28.442 113.443 27.868 112.519 27.868C111.749 27.868 111.035 28.274 111.035 29.114V34H109.509V29.562C109.509 28.428 109.075 27.868 108.178 27.868C107.423 27.868 106.681 28.274 106.681 29.114V34ZM126.479 34H120.921V24.228H122.503V32.6H126.479V34ZM130.706 34.168C128.676 34.168 127.36 32.684 127.36 30.36C127.36 28.036 128.676 26.552 130.706 26.552C132.736 26.552 134.052 28.036 134.052 30.36C134.052 32.684 132.736 34.168 130.706 34.168ZM130.706 32.908C131.742 32.908 132.442 32.264 132.442 30.976V29.744C132.442 28.456 131.742 27.812 130.706 27.812C129.67 27.812 128.97 28.456 128.97 29.744V30.976C128.97 32.264 129.67 32.908 130.706 32.908ZM142.136 34.686C142.136 36.198 141.058 36.968 138.44 36.968C136.06 36.968 135.136 36.324 135.136 35.218C135.136 34.42 135.612 33.986 136.382 33.818V33.664C135.85 33.496 135.556 33.09 135.556 32.544C135.556 31.788 136.144 31.424 136.844 31.256V31.2C135.99 30.794 135.514 30.024 135.514 29.044C135.514 27.56 136.564 26.552 138.412 26.552C138.902 26.552 139.35 26.622 139.728 26.776V26.58C139.728 25.936 140.036 25.544 140.68 25.544H141.8V26.776H140.316V27.07C140.974 27.504 141.338 28.204 141.338 29.044C141.338 30.514 140.274 31.508 138.426 31.508C138.076 31.508 137.74 31.466 137.474 31.396C137.11 31.522 136.774 31.76 136.774 32.124C136.774 32.516 137.152 32.67 137.796 32.67H139.588C141.38 32.67 142.136 33.426 142.136 34.686ZM140.708 34.854C140.708 34.35 140.372 34.028 139.378 34.028H136.914C136.578 34.224 136.41 34.518 136.41 34.868C136.41 35.456 136.844 35.862 137.978 35.862H138.93C140.12 35.862 140.708 35.526 140.708 34.854ZM138.426 30.402C139.322 30.402 139.84 29.996 139.84 29.17V28.89C139.84 28.064 139.322 27.658 138.426 27.658C137.53 27.658 137.012 28.064 137.012 28.89V29.17C137.012 29.996 137.53 30.402 138.426 30.402ZM146.046 34.168C144.016 34.168 142.7 32.684 142.7 30.36C142.7 28.036 144.016 26.552 146.046 26.552C148.076 26.552 149.392 28.036 149.392 30.36C149.392 32.684 148.076 34.168 146.046 34.168ZM146.046 32.908C147.082 32.908 147.782 32.264 147.782 30.976V29.744C147.782 28.456 147.082 27.812 146.046 27.812C145.01 27.812 144.31 28.456 144.31 29.744V30.976C144.31 32.264 145.01 32.908 146.046 32.908Z" fill="#6C737F"/>
</svg>
