<svg width="24" height="28" viewBox="0 0 24 28" fill="none" xmlns="http://www.w3.org/2000/svg">
<path fill-rule="evenodd" clip-rule="evenodd" d="M5.31674 3.28632C5.88343 3.40345 6.33473 3.78419 6.61512 4.28722L7.50833 5.88966C7.83733 6.47986 8.11421 6.97655 8.29502 7.40832C8.48683 7.86634 8.60075 8.318 8.54867 8.81736C8.4966 9.31672 8.29194 9.73516 8.00977 10.1437C7.74376 10.5289 7.37036 10.9578 6.92666 11.4674L4.6988 14.0265C6.46565 16.9224 9.07458 19.5325 11.9735 21.3012L14.5326 19.0733C15.0422 18.6296 15.4711 18.2562 15.8562 17.9902C16.2648 17.708 16.6833 17.5034 17.1826 17.4513C17.682 17.3992 18.1337 17.5132 18.5917 17.705C19.0234 17.8858 19.5201 18.1627 20.1103 18.4917L21.7128 19.3849C22.2158 19.6653 22.5965 20.1166 22.7137 20.6832C22.832 21.2558 22.6574 21.8314 22.2719 22.3044C20.873 24.0208 18.6317 25.1136 16.2805 24.6393C14.8352 24.3478 13.4092 23.8621 11.6845 22.873C8.21918 20.8856 5.11211 17.7768 3.12703 14.3155C2.13792 12.5907 1.6522 11.1648 1.36066 9.7195C0.886361 7.36827 1.9792 5.12699 3.69556 3.72809C4.16859 3.34255 4.74414 3.16798 5.31674 3.28632ZM13.3707 22.0737C14.537 22.6484 15.5515 22.9621 16.5771 23.1689C18.2732 23.5111 19.9854 22.7355 21.1092 21.3568C21.2567 21.1757 21.2576 21.0494 21.2447 20.9869C21.2306 20.9184 21.1733 20.8015 20.9825 20.6951L19.4159 19.8219C18.7803 19.4676 18.3571 19.233 18.0123 19.0885C17.6849 18.9515 17.497 18.9267 17.3382 18.9432C17.1794 18.9598 17.0007 19.0228 16.7086 19.2245C16.401 19.437 16.0353 19.7538 15.4865 20.2317L13.3707 22.0737ZM3.92633 12.6293L5.76832 10.5135C6.24615 9.96466 6.56303 9.599 6.7755 9.29135C6.97718 8.99931 7.0402 8.82062 7.05676 8.66178C7.07332 8.50294 7.04853 8.31509 6.91145 7.98773C6.76702 7.64285 6.5324 7.21968 6.17809 6.58404L5.30491 5.01753C5.19853 4.82669 5.08155 4.76942 5.01313 4.75528C4.95063 4.74236 4.82426 4.74326 4.64323 4.89081C3.26445 6.01457 2.48891 7.72684 2.83104 9.42289C3.03792 10.4485 3.35161 11.4629 3.92633 12.6293Z" fill="#1B8354"/>
</svg>
