<svg xmlns="http://www.w3.org/2000/svg" width="22" height="22" viewBox="0 0 22 22" fill="none"><path fill-rule="evenodd" clip-rule="evenodd" d="M11 0.25C5.06294 0.25 0.25 5.06294 0.25 11C0.25 16.937 5.06293 21.75 11 21.75C11.4142 21.75 11.75 21.4142 11.75 21C11.75 20.5858 11.4142 20.25 11 20.25C10.1197 20.25 9.26816 20.127 8.46156 19.8973C8.94498 18.9043 8.73897 17.8487 8.43648 16.9817C8.16949 16.2166 8.06757 15.9162 8.01515 15.5657C7.96043 15.1998 7.95841 14.7708 7.95841 13.7518C7.95841 12.7615 7.84886 11.799 7.09864 11.1847C6.73819 10.8895 6.29429 10.7302 5.81105 10.6397C5.32891 10.5494 4.75489 10.5182 4.08878 10.5182C3.23884 10.5182 2.46887 10.1731 1.83905 9.71134C2.33809 6.1311 4.88642 3.207 8.2608 2.1623C8.23881 2.44335 8.25012 2.7242 8.29742 2.99695C8.43481 3.78919 8.88585 4.53561 9.71268 4.93694C10.0279 5.08996 10.1546 5.24444 10.2244 5.37346C10.3081 5.52831 10.3493 5.71586 10.3956 6.02725C10.4006 6.06053 10.4055 6.09506 10.4106 6.13071C10.4957 6.72663 10.6258 7.63717 11.6319 8.28832C12.3114 8.72808 13.1618 8.88585 14.063 8.62068C14.9471 8.36051 15.8187 7.71335 16.6314 6.66137C17.1324 6.01291 17.8114 5.68059 18.4629 5.53387C19.5865 7.06523 20.25 8.95512 20.25 11C20.25 11.4142 20.5858 11.75 21 11.75C21.4142 11.75 21.75 11.4142 21.75 11C21.75 5.06293 16.937 0.25 11 0.25ZM17.3796 4.30203C15.72 2.72075 13.4733 1.75 11 1.75C10.6075 1.75 10.2207 1.77444 9.84111 1.82189C9.74748 2.14223 9.72707 2.46219 9.77536 2.74064C9.84508 3.14267 10.0475 3.4321 10.3677 3.5875C10.9324 3.86159 11.3081 4.22391 11.5439 4.66019C11.7658 5.07063 11.8332 5.49685 11.8793 5.8065L11.8832 5.8329C11.9775 6.46693 12.02 6.75273 12.4469 7.02904C12.7671 7.23623 13.1662 7.32096 13.6395 7.18168C14.1299 7.0374 14.7577 6.63317 15.4444 5.74431C16.0026 5.02178 16.6934 4.57211 17.3796 4.30203ZM1.75958 11.4249C1.91834 14.9365 4.0351 17.9381 7.04401 19.3638C7.34167 18.8763 7.30238 18.2846 7.02021 17.4759L7.00022 17.4186C6.75891 16.7272 6.60715 16.2924 6.53165 15.7875C6.45832 15.2972 6.45835 14.7489 6.4584 13.8261L6.45841 13.7518C6.45841 12.7552 6.30798 12.4759 6.14831 12.3452C6.05382 12.2678 5.88028 12.1788 5.53487 12.114C5.18836 12.0491 4.72251 12.0182 4.08878 12.0182C3.2134 12.0182 2.42856 11.7735 1.75958 11.4249Z" fill="#1B8354"/><path fill-rule="evenodd" clip-rule="evenodd" d="M19.9249 18.8872C20.5116 18.0921 20.8583 17.1097 20.8583 16.0459C20.8583 13.3958 18.706 11.25 16.0541 11.25C13.4023 11.25 11.25 13.3958 11.25 16.0459C11.25 18.6961 13.4023 20.8419 16.0541 20.8419C17.1001 20.8419 18.0683 20.5081 18.8574 19.9411L20.4735 21.5341C20.7685 21.8249 21.2434 21.8215 21.5341 21.5265C21.8249 21.2315 21.8215 20.7566 21.5265 20.4659L19.9249 18.8872ZM16.0541 12.75C14.2279 12.75 12.75 14.2271 12.75 16.0459C12.75 17.8648 14.2279 19.3419 16.0541 19.3419C16.9587 19.3419 17.7778 18.9795 18.3742 18.3927C18.9819 17.7948 19.3583 16.9639 19.3583 16.0459C19.3583 14.2271 17.8804 12.75 16.0541 12.75Z" fill="#1B8354"/></svg>