<svg xmlns="http://www.w3.org/2000/svg" width="18" height="20" viewBox="0 0 18 20" fill="none"><path fill-rule="evenodd" clip-rule="evenodd" d="M9.57063 1.44052C9.81389 1.10526 9.73932 0.636283 9.40406 0.39302C9.06881 0.149757 8.59982 0.224332 8.35656 0.559587L5.10027 5.04728L2.8946 7.84141L2.84148 7.90841C2.62604 8.17961 2.39307 8.47288 2.29964 8.83644C2.20614 9.20028 2.26912 9.5694 2.32729 9.91029L2.34155 9.99442L2.4249 10.4922C2.48598 10.8572 2.54276 11.1966 2.62494 11.4713C2.71616 11.7763 2.862 12.0885 3.15606 12.3365C3.44975 12.5841 3.782 12.6755 4.09782 12.7147C4.38298 12.7501 4.72806 12.7501 5.10017 12.7501L5.94954 12.7501C6.36376 12.7501 6.69954 12.4143 6.69954 12.0001C6.69954 11.5858 6.36376 11.2501 5.94954 11.2501H5.14002C4.71437 11.2501 4.46423 11.2487 4.2828 11.2262C4.20028 11.2159 4.15782 11.2038 4.13781 11.1964C4.12865 11.1931 4.12473 11.1908 4.12409 11.1905L4.12299 11.1897L4.12226 11.189C4.12193 11.1886 4.11927 11.1853 4.11459 11.1772C4.10434 11.1594 4.08561 11.1203 4.06203 11.0415C4.01007 10.8678 3.96771 10.6231 3.8977 10.205L3.82096 9.7467C3.78313 9.52078 3.76251 9.39431 3.75429 9.2985C3.75063 9.25582 3.75079 9.23234 3.75141 9.22042C3.7517 9.21478 3.7521 9.21182 3.75225 9.21084L3.75244 9.20977L3.7528 9.2087C3.75316 9.20773 3.75426 9.2049 3.75674 9.19976C3.762 9.1889 3.77325 9.16812 3.79712 9.13234C3.85064 9.05209 3.92983 8.95088 4.07197 8.77082L4.87611 7.75214L9.21828 10.8838L9.21828 19.0001C9.21828 19.4143 9.55407 19.7501 9.96828 19.7501C10.3825 19.7501 10.7183 19.4143 10.7183 19.0001V10.6576L11.9268 7.90808L17.5644 1.49524C17.8378 1.18414 17.8073 0.71025 17.4963 0.436767C17.1852 0.163284 16.7113 0.193774 16.4378 0.504869L11.1899 6.47447L7.81984 3.85339L9.57063 1.44052ZM9.65485 9.34928L5.80639 6.57366L6.28706 5.96476C6.29334 5.9568 6.29945 5.94872 6.30541 5.94052L6.93842 5.06813L10.3652 7.73328L9.65485 9.34928Z" fill="#1B8354"/><path fill-rule="evenodd" clip-rule="evenodd" d="M2.50195 1.25C1.25931 1.25 0.251953 2.25736 0.251953 3.5C0.251953 4.74264 1.25931 5.75 2.50195 5.75C3.74459 5.75 4.75195 4.74264 4.75195 3.5C4.75195 2.25736 3.74459 1.25 2.50195 1.25ZM1.75195 3.5C1.75195 3.08579 2.08774 2.75 2.50195 2.75C2.91617 2.75 3.25195 3.08579 3.25195 3.5C3.25195 3.91421 2.91617 4.25 2.50195 4.25C2.08774 4.25 1.75195 3.91421 1.75195 3.5Z" fill="#1B8354"/></svg>