<svg xmlns="http://www.w3.org/2000/svg" width="12" height="20" viewBox="0 0 12 20" fill="none"><path fill-rule="evenodd" clip-rule="evenodd" d="M8.35989 13.7519C8.10189 13.7519 7.85087 13.6189 7.71087 13.3789C7.50287 13.0209 7.62387 12.5619 7.98187 12.3529L8.92581 11.8029L8.92995 11.8005C9.51664 11.4623 10.1181 11.1155 10.2458 10.9449C10.1348 10.7729 9.58383 10.3989 9.04983 10.0369L7.55 9.02496C7.068 9.71296 6.64998 10.4339 6.27998 11.2119L6.26797 11.2369C5.87397 12.0719 5.71196 12.4289 5.73096 12.7409C5.73096 12.7489 5.73201 12.7579 5.73301 12.7659C5.76485 13.1002 6.10452 13.6027 6.66245 14.4282L6.671 14.4409C6.80138 14.6331 6.93287 14.8287 7.06464 15.0247C7.10974 15.0918 7.15487 15.1589 7.2 15.2259L7.20232 15.2294C7.9886 16.4013 8.80075 17.6118 9.571 18.5139C9.84 18.8289 9.80201 19.302 9.48701 19.571C9.34601 19.692 9.173 19.75 9 19.75V19.7519C8.788 19.7519 8.578 19.6629 8.429 19.4889C7.60201 18.5199 6.764 17.2709 5.954 16.0629C5.92241 16.0159 5.89085 15.9689 5.85932 15.922C5.71521 15.7074 5.57177 15.4937 5.429 15.2829C4.884 14.4769 4.52105 13.9399 4.34805 13.4159L2.54199 12.9259C2.01399 15.1949 1.75 17.5089 1.75 19.0019C1.75 19.4159 1.414 19.7519 1 19.7519C0.586 19.7519 0.25 19.4159 0.25 19.0019C0.25 15.9549 1.25502 9.43892 3.64902 6.30992C2.92802 5.62892 2.459 4.76793 2.304 3.82193C2.17364 3.02664 2.27736 2.22656 2.59645 1.4913C2.74008 1.15991 2.92745 0.84166 3.15687 0.542928C3.40886 0.214928 3.87982 0.152939 4.20882 0.404939C4.48864 0.619927 4.57493 0.994275 4.43777 1.30389C4.41402 1.35792 4.38348 1.41 4.346 1.45894C4.20104 1.64742 4.08165 1.84716 3.98882 2.05439C3.77306 2.5371 3.7013 3.06043 3.78587 3.57691C3.91587 4.37291 4.39885 5.08687 5.14485 5.58687L9.89327 8.79488C11.0474 9.57626 11.6839 10.0072 11.7458 10.8119C11.7568 10.9339 11.7519 11.0659 11.7309 11.1969C11.6796 11.5065 11.545 11.7551 11.3271 11.9853C10.9851 12.3475 10.4369 12.6639 9.68118 13.1001L9.67803 13.1019L8.73701 13.65C8.61816 13.719 8.48816 13.7519 8.35989 13.7519ZM4.36904 11.8679L2.92002 11.475C3.41102 9.78596 4.05503 8.23286 4.85303 7.20386L6.30703 8.18687C5.78303 8.93687 5.328 9.72293 4.925 10.5719L4.91299 10.5979L4.89591 10.6341C4.66691 11.1201 4.4842 11.5078 4.36904 11.8679Z" fill="#1B8354"/><path fill-rule="evenodd" clip-rule="evenodd" d="M8.5 5.75195C7.259 5.75195 6.25 4.74295 6.25 3.50195C6.25 2.26095 7.259 1.25195 8.5 1.25195C9.741 1.25195 10.75 2.26095 10.75 3.50195C10.75 4.74295 9.741 5.75195 8.5 5.75195ZM8.5 2.75195C8.086 2.75195 7.75 3.08795 7.75 3.50195C7.75 3.91595 8.086 4.25195 8.5 4.25195C8.914 4.25195 9.25 3.91595 9.25 3.50195C9.25 3.08795 8.914 2.75195 8.5 2.75195Z" fill="#1B8354"/></svg>