<svg xmlns="http://www.w3.org/2000/svg" width="23" height="20" viewBox="0 0 23 20" fill="none"><g opacity="0.2"><path fill-rule="evenodd" clip-rule="evenodd" d="M12.25 4.5C11.009 4.5 10 3.491 10 2.25C10 1.009 11.009 0 12.25 0C13.491 0 14.5 1.009 14.5 2.25C14.5 3.491 13.491 4.5 12.25 4.5ZM12.25 1.5C11.836 1.5 11.5 1.836 11.5 2.25C11.5 2.664 11.836 3 12.25 3C12.664 3 13 2.664 13 2.25C13 1.836 12.664 1.5 12.25 1.5Z" fill="#1B8354"/><path fill-rule="evenodd" clip-rule="evenodd" d="M11.7477 19.5C11.4127 19.5 11.1077 19.274 11.0217 18.934L10.3576 16.314C10.1716 15.585 9.78567 14.917 9.24367 14.385L7.75168 12.914C6.69168 12.083 6.10564 11.618 5.83664 10.889C5.71664 10.558 5.66067 10.217 5.66867 9.87197C5.68667 9.10097 6.08564 8.48296 6.81164 7.35996L7.30461 6.59902C5.07261 6.90502 4.10367 7.88496 3.41667 9.23897C3.22967 9.60796 2.77766 9.75597 2.40866 9.56797C2.03966 9.37997 1.89166 8.92896 2.07966 8.55996C3.32466 6.10596 5.31361 5.041 8.72961 5H9.61965C10.1914 5 10.5368 5 10.8847 5.15596C10.8937 5.15996 10.9026 5.16404 10.9126 5.16904C11.2566 5.34004 11.5147 5.64103 11.9777 6.20303C12.0517 6.29103 12.1357 6.37601 12.2107 6.43701C13.4537 7.35401 14.7926 7.02298 16.1906 5.45098C16.4656 5.14198 16.9396 5.11397 17.2496 5.38896C17.5596 5.66396 17.5866 6.13805 17.3116 6.44805C15.1076 8.92605 13.1327 8.61002 11.9807 8.04502L9.21564 12.248L10.2987 13.316C11.0347 14.039 11.5587 14.949 11.8137 15.944L12.4777 18.566C12.5797 18.968 12.3367 19.376 11.9347 19.477C11.8727 19.493 11.8106 19.5 11.7496 19.5H11.7477ZM9.15666 6.5L8.07169 8.17652C7.49531 9.06856 7.17764 9.56021 7.16965 9.90801C7.16565 10.066 7.1917 10.223 7.2467 10.375C7.3327 10.608 7.58967 10.859 8.07267 11.254L10.7897 7.12402C10.6037 6.89902 10.3567 6.601 10.2527 6.521C10.1607 6.501 9.88567 6.50098 9.61867 6.50098L9.15666 6.5Z" fill="#1B8354"/><path d="M1.25512 16.3698C1.62711 16.4578 1.99915 16.4998 2.36615 16.4998L2.36512 16.5007C4.05312 16.5007 5.6261 15.6018 6.4141 14.0988C6.6061 13.7318 6.46518 13.2778 6.09818 13.0858C5.73118 12.8938 5.27714 13.0347 5.08514 13.4017C4.45414 14.6047 2.98913 15.2387 1.60013 14.9097L0.922155 14.7498C0.519155 14.6538 0.115154 14.9048 0.0201546 15.3078C-0.0748466 15.7108 0.175113 16.1147 0.578113 16.2097L1.25512 16.3698Z" fill="#1B8354"/></g><path fill-rule="evenodd" clip-rule="evenodd" d="M17.5 4.75C16.259 4.75 15.25 3.741 15.25 2.5C15.25 1.259 16.259 0.25 17.5 0.25C18.741 0.25 19.75 1.259 19.75 2.5C19.75 3.741 18.741 4.75 17.5 4.75ZM17.5 1.75C17.086 1.75 16.75 2.086 16.75 2.5C16.75 2.914 17.086 3.25 17.5 3.25C17.914 3.25 18.25 2.914 18.25 2.5C18.25 2.086 17.914 1.75 17.5 1.75Z" fill="#1B8354"/><path fill-rule="evenodd" clip-rule="evenodd" d="M16.9977 19.75C16.6627 19.75 16.3577 19.524 16.2717 19.184L15.6076 16.564C15.4216 15.835 15.0357 15.167 14.4937 14.635L13.0017 13.164C11.9417 12.333 11.3556 11.868 11.0866 11.139C10.9666 10.808 10.9107 10.467 10.9187 10.122C10.9367 9.35097 11.3356 8.73296 12.0616 7.60996L12.5546 6.84902C10.3226 7.15502 9.35367 8.13496 8.66667 9.48897C8.47967 9.85796 8.02766 10.006 7.65866 9.81797C7.28966 9.62997 7.14166 9.17896 7.32966 8.80996C8.57466 6.35596 10.5636 5.291 13.9796 5.25H14.8696C15.4414 5.25 15.7868 5.25 16.1347 5.40596C16.1437 5.40996 16.1526 5.41404 16.1626 5.41904C16.5066 5.59004 16.7647 5.89103 17.2277 6.45303C17.3017 6.54103 17.3857 6.62601 17.4607 6.68701C18.7037 7.60401 20.0426 7.27298 21.4406 5.70098C21.7156 5.39198 22.1896 5.36397 22.4996 5.63896C22.8096 5.91396 22.8366 6.38805 22.5616 6.69805C20.3576 9.17605 18.3827 8.86002 17.2307 8.29502L14.4656 12.498L15.5487 13.566C16.2847 14.289 16.8087 15.199 17.0637 16.194L17.7277 18.816C17.8297 19.218 17.5867 19.626 17.1847 19.727C17.1227 19.743 17.0606 19.75 16.9996 19.75H16.9977ZM14.4067 6.75L13.3217 8.42652C12.7453 9.31856 12.4276 9.81021 12.4196 10.158C12.4156 10.316 12.4417 10.473 12.4967 10.625C12.5827 10.858 12.8397 11.109 13.3227 11.504L16.0397 7.37402C15.8537 7.14902 15.6067 6.851 15.5027 6.771C15.4107 6.751 15.1357 6.75098 14.8687 6.75098L14.4067 6.75Z" fill="#1B8354"/><path d="M6.50512 16.6198C6.87711 16.7078 7.24915 16.7498 7.61615 16.7498L7.61512 16.7507C9.30312 16.7507 10.8761 15.8518 11.6641 14.3488C11.8561 13.9818 11.7152 13.5278 11.3482 13.3358C10.9812 13.1438 10.5271 13.2847 10.3351 13.6517C9.70414 14.8547 8.23913 15.4887 6.85013 15.1597L6.17216 14.9998C5.76916 14.9038 5.36515 15.1548 5.27015 15.5578C5.17515 15.9608 5.42511 16.3647 5.82811 16.4597L6.50512 16.6198Z" fill="#1B8354"/></svg>