<svg width="832" height="344" viewBox="0 0 832 344" fill="none" xmlns="http://www.w3.org/2000/svg">
<path d="M0 16C0 7.16345 7.16344 0 16 0H816C824.837 0 832 7.16344 832 16V328C832 336.837 824.837 344 816 344H16C7.16346 344 0 336.837 0 328V16Z" fill="#F9FAFB"/>
<path d="M392 172C392 158.745 402.745 148 416 148C429.255 148 440 158.745 440 172C440 185.255 429.255 196 416 196C402.745 196 392 185.255 392 172Z" fill="#079455"/>
<path d="M408.624 163.351C408.855 163.217 409.14 163.216 409.372 163.349L423.372 171.349C423.606 171.482 423.75 171.731 423.75 172C423.75 172.269 423.606 172.518 423.372 172.651L409.372 180.651C409.14 180.784 408.855 180.783 408.624 180.649C408.392 180.514 408.25 180.267 408.25 180V164C408.25 163.733 408.392 163.486 408.624 163.351Z" fill="white"/>
</svg>
