<svg xmlns="http://www.w3.org/2000/svg" width="32" height="32" viewBox="0 0 32 32" fill="none"><path d="M0.5 4C0.5 2.067 2.067 0.5 4 0.5H28C29.933 0.5 31.5 2.067 31.5 4V28C31.5 29.933 29.933 31.5 28 31.5H4C2.067 31.5 0.5 29.933 0.5 28V4Z" stroke="white" stroke-opacity="0.3"/><path fill-rule="evenodd" clip-rule="evenodd" d="M7.94353 8.21547C8.05038 8.00649 8.2653 7.875 8.5 7.875H12.6667C12.8674 7.875 13.0558 7.97137 13.1733 8.13407L17.2867 13.8294L23.0581 8.05806C23.3021 7.81398 23.6979 7.81398 23.9419 8.05806C24.186 8.30214 24.186 8.69786 23.9419 8.94194L18.028 14.8559L24.0067 23.1341C24.1441 23.3243 24.1633 23.5756 24.0565 23.7845C23.9496 23.9935 23.7347 24.125 23.5 24.125H19.3333C19.1326 24.125 18.9442 24.0286 18.8267 23.8659L14.7133 18.1706L8.94194 23.9419C8.69787 24.186 8.30214 24.186 8.05806 23.9419C7.81398 23.6979 7.81398 23.3021 8.05806 23.0581L13.972 17.1441L7.99333 8.86593C7.85591 8.67566 7.83668 8.42444 7.94353 8.21547ZM9.72235 9.125L19.6529 22.875H22.2777L12.3471 9.125H9.72235Z" fill="white"/></svg>