<svg xmlns="http://www.w3.org/2000/svg" width="22" height="20" viewBox="0 0 22 20" fill="none"><path fill-rule="evenodd" clip-rule="evenodd" d="M12.8484 7.14192L12.7666 7.09685C11.9421 6.64251 11.2678 6.27092 10.7127 6.04103C10.1491 5.80766 9.57116 5.65886 8.98278 5.81307C8.64852 5.90068 8.33473 6.05619 8.06659 6.27298C7.57428 6.67099 7.40026 7.24087 7.32391 7.81517C7.25007 8.37066 7.25009 9.08921 7.25012 9.94658V10.0535C7.25009 10.9108 7.25007 11.6294 7.32391 12.1849C7.40026 12.7592 7.57429 13.3291 8.06659 13.7271C8.33473 13.9439 8.64852 14.0994 8.98278 14.187C9.57116 14.3412 10.1491 14.1924 10.7127 13.959C11.2678 13.7291 11.9421 13.3576 12.7666 12.9032L12.8484 12.8581C13.6028 12.4425 14.2258 12.0992 14.6742 11.781C15.1234 11.4623 15.5496 11.0673 15.6907 10.4913C15.7699 10.168 15.7699 9.83208 15.6907 9.50873C15.5496 8.93273 15.1234 8.53776 14.6742 8.21903C14.2258 7.9009 13.6028 7.55759 12.8484 7.14192ZM9.36308 7.26406C9.47033 7.23595 9.66961 7.23262 10.1388 7.4269C10.6073 7.62093 11.2083 7.95082 12.083 8.43284C12.8893 8.87711 13.436 9.17974 13.8062 9.44238C14.1837 9.71024 14.2265 9.83575 14.2338 9.86559C14.2556 9.9545 14.2556 10.0456 14.2338 10.1345C14.2265 10.1643 14.1837 10.2898 13.8062 10.5577C13.436 10.8203 12.8893 11.123 12.083 11.5672C11.2083 12.0493 10.6073 12.3791 10.1388 12.5732C9.66961 12.7674 9.47033 12.7641 9.36308 12.736C9.22612 12.7001 9.10592 12.6385 9.00964 12.5606C8.96395 12.5237 8.86898 12.4246 8.81083 11.9872C8.75171 11.5425 8.75012 10.925 8.75012 10C8.75012 9.0751 8.75171 8.45754 8.81083 8.01285C8.86898 7.57545 8.96395 7.47638 9.00964 7.43945C9.10592 7.36161 9.22612 7.29996 9.36308 7.26406Z" fill="#161616"/><path fill-rule="evenodd" clip-rule="evenodd" d="M11.0001 0.75C9.1415 0.75 7.35585 0.933561 5.69686 1.27174L5.56958 1.29766C3.67495 1.68329 2.41255 1.94024 1.3247 3.33892C0.24852 4.72258 0.249122 6.3272 0.250054 8.8124V11.1876C0.249122 13.6728 0.24852 15.2774 1.3247 16.6611C2.41255 18.0598 3.67495 18.3167 5.56958 18.7023L5.69686 18.7283C7.35585 19.0664 9.1415 19.25 11.0001 19.25C12.8587 19.25 14.6444 19.0664 16.3034 18.7283L16.4306 18.7023C18.3253 18.3167 19.5877 18.0598 20.6755 16.6611C21.7517 15.2774 21.7511 13.6728 21.7502 11.1876V8.81239C21.7511 6.3272 21.7517 4.72258 20.6755 3.33892C19.5877 1.94024 18.3253 1.68329 16.4306 1.29766L16.3034 1.27174C14.6444 0.933561 12.8587 0.75 11.0001 0.75ZM5.99647 2.74151C7.55416 2.42398 9.23934 2.25 11.0001 2.25C12.7609 2.25 14.4461 2.42398 16.0038 2.74151C18.0558 3.15982 18.7703 3.3326 19.4915 4.25983C20.2165 5.19201 20.2501 6.23864 20.2501 9.03645V10.9635C20.2501 13.7614 20.2165 14.808 19.4915 15.7402C18.7703 16.6674 18.0558 16.8402 16.0038 17.2585C14.4461 17.576 12.7609 17.75 11.0001 17.75C9.23934 17.75 7.55416 17.576 5.99647 17.2585C3.94437 16.8402 3.2299 16.6674 2.50873 15.7402C1.7837 14.808 1.75011 13.7614 1.75011 10.9635V9.03645C1.75011 6.23864 1.7837 5.19201 2.50873 4.25983C3.2299 3.3326 3.94437 3.15982 5.99647 2.74151Z" fill="#161616"/></svg>