<svg xmlns="http://www.w3.org/2000/svg" width="32" height="32" viewBox="0 0 32 32" fill="none"><path d="M0.5 4C0.5 2.067 2.067 0.5 4 0.5H28C29.933 0.5 31.5 2.067 31.5 4V28C31.5 29.933 29.933 31.5 28 31.5H4C2.067 31.5 0.5 29.933 0.5 28V4Z" stroke="white" stroke-opacity="0.3"/><path d="M15.7917 12.25C15.7917 11.9048 15.5119 11.625 15.1667 11.625C14.8216 11.625 14.5417 11.9048 14.5417 12.25V14.5417H12.2501C11.9049 14.5417 11.6251 14.8215 11.6251 15.1667C11.6251 15.5118 11.9049 15.7917 12.2501 15.7917H14.5417V18.0833C14.5417 18.4285 14.8216 18.7083 15.1667 18.7083C15.5119 18.7083 15.7917 18.4285 15.7917 18.0833V15.7917H18.0834C18.4286 15.7917 18.7084 15.5118 18.7084 15.1667C18.7084 14.8215 18.4286 14.5417 18.0834 14.5417H15.7917V12.25Z" fill="white"/><path fill-rule="evenodd" clip-rule="evenodd" d="M7.04175 15.1667C7.04175 10.6793 10.6794 7.04166 15.1667 7.04166C19.6541 7.04166 23.2917 10.6793 23.2917 15.1667C23.2917 17.1853 22.5556 19.0321 21.337 20.453L24.7754 23.8914C25.0194 24.1355 25.0194 24.5312 24.7754 24.7753C24.5313 25.0193 24.1356 25.0193 23.8915 24.7753L20.4531 21.3369C19.0322 22.5555 17.1854 23.2917 15.1667 23.2917C10.6794 23.2917 7.04175 19.654 7.04175 15.1667ZM15.1667 8.29166C11.3698 8.29166 8.29175 11.3697 8.29175 15.1667C8.29175 18.9636 11.3698 22.0417 15.1667 22.0417C18.9637 22.0417 22.0417 18.9636 22.0417 15.1667C22.0417 11.3697 18.9637 8.29166 15.1667 8.29166Z" fill="white"/></svg>