<svg width="22" height="17" viewBox="0 0 22 17" fill="none" xmlns="http://www.w3.org/2000/svg">
<path fill-rule="evenodd" clip-rule="evenodd" d="M4.853 5.36454C2.22664 5.89643 0.25 8.21699 0.25 11C0.25 14.1756 2.82436 16.75 6 16.75H16.5C19.3995 16.75 21.75 14.3995 21.75 11.5C21.75 8.85409 19.7927 6.66534 17.2469 6.30273C17.1428 2.94224 14.3858 0.25 11 0.25C7.93585 0.25 5.38731 2.45456 4.853 5.36454ZM6.41211 5.26457C7.54729 5.34508 8.59274 5.75556 9.45099 6.40038C9.78215 6.64919 9.84892 7.11935 9.60011 7.45051C9.3513 7.78167 8.88114 7.84843 8.54998 7.59962C7.83967 7.06595 6.95781 6.75 6 6.75C5.86199 6.75 5.72573 6.75655 5.59147 6.76933C3.4363 6.97442 1.75 8.79073 1.75 11C1.75 13.3472 3.65279 15.25 6 15.25H16.5C18.5711 15.25 20.25 13.5711 20.25 11.5C20.25 9.63819 18.8932 8.09328 17.1144 7.80009C16.9022 8.80257 16.4499 9.71628 15.8211 10.4776C15.5574 10.797 15.0846 10.842 14.7653 10.5783C14.4459 10.3145 14.4008 9.84179 14.6646 9.52242C15.2572 8.8048 15.6424 7.91165 15.7306 6.93273C15.7434 6.79039 15.75 6.64606 15.75 6.5C15.75 3.87665 13.6234 1.75 11 1.75C8.80411 1.75 6.95572 3.24047 6.41211 5.26457Z" fill="#384250"/>
</svg>
