<svg width="22" height="22" viewBox="0 0 22 22" fill="none" xmlns="http://www.w3.org/2000/svg">
<path fill-rule="evenodd" clip-rule="evenodd" d="M5 0.25C5.41421 0.25 5.75 0.585786 5.75 1V1.36589C6.88606 1.24997 8.28402 1.24998 9.98924 1.25H12.0108C13.716 1.24998 15.1139 1.24997 16.25 1.36589V1C16.25 0.585786 16.5858 0.25 17 0.25C17.4142 0.25 17.75 0.585786 17.75 1V1.63479C18.5548 1.86288 19.2335 2.2336 19.7985 2.84436C20.5764 3.68535 20.9222 4.74792 21.0878 6.07951C21.25 7.38431 21.25 9.05648 21.25 11.1901V11.8099C21.25 13.9435 21.25 15.6157 21.0878 16.9205C20.9222 18.2521 20.5764 19.3147 19.7985 20.1556C19.0129 21.0049 18.0072 21.3901 16.7487 21.573C15.5307 21.75 13.9745 21.75 12.0108 21.75H9.98924C8.02555 21.75 6.46932 21.75 5.25129 21.573C3.99276 21.3901 2.98714 21.0049 2.20154 20.1556C1.42363 19.3147 1.07785 18.2521 0.912249 16.9205C0.749981 15.6157 0.749989 13.9435 0.75 11.81V11.19C0.749989 9.05647 0.749981 7.3843 0.912249 6.07951C1.07785 4.74792 1.42363 3.68535 2.20154 2.84436C2.7665 2.2336 3.44524 1.86288 4.25 1.63479V1C4.25 0.585786 4.58579 0.25 5 0.25ZM5 3.75C4.65717 3.75 4.36806 3.51998 4.2786 3.20584C3.87129 3.36791 3.56203 3.58256 3.30269 3.86292C2.83044 4.37347 2.55052 5.07336 2.40261 6.25H19.5974C19.4495 5.07336 19.1696 4.37347 18.6973 3.86292C18.438 3.58256 18.1287 3.36791 17.7214 3.20585C17.6319 3.51998 17.3428 3.75 17 3.75C16.5858 3.75 16.25 3.41421 16.25 3V2.87459C15.189 2.75156 13.8176 2.75 11.95 2.75H10.05C8.18237 2.75 6.81101 2.75156 5.75 2.87459V3C5.75 3.41421 5.41421 3.75 5 3.75ZM19.7111 7.75H2.28892C2.25055 8.70689 2.25 9.8508 2.25 11.2432V11.7568C2.25 13.9551 2.25137 15.5339 2.40078 16.7354C2.54821 17.9208 2.82849 18.6244 3.30269 19.1371C3.76921 19.6414 4.39728 19.9331 5.46704 20.0886C6.56476 20.2481 8.01188 20.25 10.05 20.25H11.95C13.9881 20.25 15.4352 20.2481 16.533 20.0886C17.6027 19.9331 18.2308 19.6414 18.6973 19.1371C19.1715 18.6244 19.4518 17.9208 19.5992 16.7354C19.7486 15.5339 19.75 13.9551 19.75 11.7568V11.2432C19.75 9.8508 19.7495 8.70689 19.7111 7.75Z" fill="#384250"/>
</svg>
