<svg width="22" height="19" viewBox="0 0 22 19" fill="none" xmlns="http://www.w3.org/2000/svg">
<path fill-rule="evenodd" clip-rule="evenodd" d="M13.92 0.191591C11.967 0.142519 10.033 0.142517 8.07999 0.191584L8.02182 0.193045C6.497 0.23133 5.27002 0.262138 4.2867 0.433387C3.2572 0.612678 2.42048 0.956556 1.71362 1.66611C1.00971 2.37269 0.66764 3.19738 0.491759 4.21019C0.324289 5.17456 0.298783 6.37159 0.267187 7.85443L0.265935 7.91317C0.244688 8.90952 0.244688 9.90005 0.265936 10.8964L0.267188 10.9551C0.298786 12.438 0.324293 13.635 0.491763 14.5994C0.667644 15.6122 1.00972 16.4369 1.71362 17.1435C2.42048 17.853 3.2572 18.1969 4.2867 18.3762C5.27001 18.5474 6.49697 18.5782 8.02177 18.6165L8.07999 18.618C10.033 18.6671 11.967 18.6671 13.92 18.618L13.9782 18.6165C15.503 18.5782 16.73 18.5474 17.7133 18.3762C18.7428 18.1969 19.5795 17.853 20.2864 17.1435C20.9903 16.4369 21.3324 15.6122 21.5082 14.5994C21.6757 13.635 21.7012 12.438 21.7328 10.9551L21.7341 10.8964C21.7553 9.90006 21.7553 8.90953 21.7341 7.91319L21.7328 7.85446C21.7012 6.37161 21.6757 5.17458 21.5082 4.2102C21.3324 3.1974 20.9903 2.37271 20.2864 1.66613C19.5795 0.956572 18.7428 0.612694 17.7133 0.433401C16.73 0.26215 15.503 0.23134 13.9782 0.193051L13.92 0.191591ZM8.11766 1.69111C10.0456 1.64267 11.9544 1.64268 13.8823 1.69112C15.479 1.73123 16.5947 1.76117 17.4559 1.91116C18.2835 2.05528 18.7994 2.29889 19.2237 2.72477C19.3977 2.89937 19.5405 3.08733 19.6582 3.30308L13.7173 6.66923C12.4621 7.38049 11.7003 7.65479 11.0001 7.65479C10.2999 7.65479 9.53815 7.38049 8.28285 6.66923L2.34181 3.30299C2.4595 3.08727 2.60237 2.89934 2.77629 2.72475C3.20055 2.29888 3.71652 2.05526 4.54405 1.91114C5.40529 1.76116 6.52099 1.73122 8.11766 1.69111ZM1.92102 4.78861C1.81754 5.58043 1.79468 6.58125 1.76559 7.94515C1.7448 8.92018 1.7448 9.88939 1.7656 10.8644C1.79877 12.4199 1.82385 13.5032 1.96964 14.3427C2.10923 15.1466 2.34907 15.656 2.77629 16.0848C3.20056 16.5107 3.71653 16.7543 4.54406 16.8984C5.4053 17.0484 6.521 17.0783 8.11767 17.1185C10.0456 17.1669 11.9544 17.1669 13.8823 17.1185C15.479 17.0783 16.5947 17.0484 17.4559 16.8984C18.2835 16.7543 18.7994 16.5107 19.2237 16.0848C19.6509 15.656 19.8908 15.1466 20.0304 14.3427C20.1762 13.5032 20.2012 12.4199 20.2344 10.8644C20.2552 9.88939 20.2552 8.92019 20.2344 7.94517C20.2053 6.58132 20.1825 5.58052 20.079 4.78872L14.4568 7.97429C13.1635 8.70708 12.1126 9.15479 11.0001 9.15479C9.88761 9.15479 8.83667 8.70708 7.54339 7.97429L1.92102 4.78861Z" fill="#1B8354"/>
</svg>
