<svg width="48" height="48" viewBox="0 0 48 48" fill="none" xmlns="http://www.w3.org/2000/svg">
<path d="M0 24C0 10.7452 10.7452 0 24 0C37.2548 0 48 10.7452 48 24C48 37.2548 37.2548 48 24 48C10.7452 48 0 37.2548 0 24Z" fill="#F3FCF6"/>
<path d="M21.5615 22.8844C22.5415 23.4614 23.2705 23.7504 23.9995 23.7504C24.7295 23.7504 25.4585 23.4624 26.4395 22.8844L29.3815 21.1444C29.7385 20.9344 29.8564 20.4744 29.6454 20.1174C29.4354 19.7604 28.9755 19.6424 28.6185 19.8534L25.6775 21.5924C24.2035 22.4594 23.7955 22.4594 22.3235 21.5924L19.3815 19.8524C19.0255 19.6414 18.5654 19.7603 18.3544 20.1163C18.1434 20.4723 18.2625 20.9324 18.6185 21.1434L21.5615 22.8844Z" fill="#1B8354"/>
<path fill-rule="evenodd" clip-rule="evenodd" d="M21.0802 33.2084C22.0622 33.2334 23.0312 33.2465 24.0002 33.2465C24.9692 33.2465 25.9382 33.2334 26.9202 33.2084L26.9216 33.2084C30.1587 33.1264 31.9424 33.0812 33.2872 31.7374C34.6292 30.3844 34.6662 28.6484 34.7332 25.4954C34.7542 24.4884 34.7542 23.5104 34.7332 22.5034C34.6662 19.3504 34.6292 17.6134 33.2842 16.2584C31.9412 14.9174 30.1573 14.8715 26.9193 14.7895C24.9543 14.7395 23.0442 14.7395 21.0792 14.7895L21.0779 14.7895C17.8407 14.8715 16.057 14.9166 14.7122 16.2604C13.3702 17.6134 13.3332 19.3494 13.2662 22.5024C13.2452 23.5094 13.2452 24.4874 13.2662 25.4944C13.3332 28.6474 13.3703 30.3845 14.7153 31.7395C16.0583 33.0805 17.8422 33.1264 21.0802 33.2084ZM15.7773 30.6794C14.8563 29.7524 14.8273 28.4074 14.7653 25.4624C14.7443 24.4764 14.7443 23.5184 14.7653 22.5334C14.8273 19.5884 14.8562 18.2445 15.7742 17.3185C16.6932 16.3995 18.079 16.3644 21.1165 16.2874C23.0565 16.2374 24.9423 16.2374 26.8813 16.2874C29.9193 16.3644 31.3053 16.4004 32.2223 17.3164C33.1433 18.2434 33.1722 19.5884 33.2342 22.5334C33.2552 23.5194 33.2552 24.4774 33.2342 25.4624C33.1722 28.4074 33.1432 29.7514 32.2252 30.6774C31.3064 31.5963 29.9208 31.6314 26.884 31.7084L26.8823 31.7084C24.9423 31.7584 23.0573 31.7584 21.1183 31.7084C18.0803 31.6314 16.6943 31.5954 15.7773 30.6794Z" fill="#1B8354"/>
</svg>
