<svg width="49" height="48" viewBox="0 0 49 48" fill="none" xmlns="http://www.w3.org/2000/svg">
<path d="M0.666626 24C0.666626 10.7452 11.4118 0 24.6666 0C37.9215 0 48.6666 10.7452 48.6666 24C48.6666 37.2548 37.9215 48 24.6666 48C11.4118 48 0.666626 37.2548 0.666626 24Z" fill="#F3FCF6"/>
<path d="M24.6656 25.7461C24.2516 25.7461 23.9156 25.4101 23.9156 24.9961V24.6161C23.9156 23.7501 24.4316 23.0931 24.8876 22.5131L24.8987 22.499C25.0466 22.3102 25.1862 22.132 25.2916 21.9651C25.3706 21.8391 25.4156 21.6851 25.4156 21.5361C25.4156 21.1001 25.0796 20.7461 24.6656 20.7461C24.2516 20.7461 23.9156 21.1001 23.9156 21.5361C23.9156 21.9721 23.5796 22.2861 23.1656 22.2861C22.7516 22.2861 22.4156 21.9501 22.4156 21.5361C22.4156 20.2731 23.4246 19.2461 24.6656 19.2461C25.9066 19.2461 26.9156 20.2731 26.9156 21.5361C26.9156 21.9691 26.7936 22.3931 26.5616 22.7641C26.4096 23.0031 26.2356 23.2251 26.0676 23.4391L26.0643 23.4432C25.7453 23.8499 25.4156 24.2703 25.4156 24.6161V24.9961C25.4156 25.4101 25.0796 25.7461 24.6656 25.7461Z" fill="#1B8354"/>
<path d="M23.9205 26.9961C23.9205 27.4101 24.2615 27.7461 24.6755 27.7461C25.0895 27.7461 25.4255 27.4101 25.4255 26.9961C25.4255 26.5821 25.0895 26.2461 24.6755 26.2461H24.6656C24.2516 26.2461 23.9205 26.5821 23.9205 26.9961Z" fill="#1B8354"/>
<path fill-rule="evenodd" clip-rule="evenodd" d="M16.8106 34.248C16.7566 34.248 16.7026 34.248 16.6476 34.246L16.5696 34.244C15.8866 34.223 15.2956 34.2039 14.9396 33.6339L14.9215 33.603C14.5846 33.001 14.8785 32.447 15.2855 31.6802L15.3036 31.646C15.6366 31.021 15.9636 30.1559 15.6536 29.5549C14.6226 28.0189 14.0526 26.499 13.9586 25.036C13.9066 24.167 13.9066 23.289 13.9586 22.423C14.2516 17.822 17.9005 14.124 22.4465 13.82C23.8945 13.728 25.4286 13.728 26.8836 13.82C31.4326 14.125 35.0826 17.822 35.3746 22.421C35.4266 23.29 35.4266 24.1679 35.3746 25.0339C35.0816 29.6349 31.4326 33.332 26.8866 33.637C25.4286 33.739 23.8915 33.739 22.4425 33.637C21.8635 33.601 21.2496 33.4609 20.7186 33.2419L20.5956 33.191L20.5335 33.1655C20.4152 33.1169 20.2992 33.0692 20.2106 33.036C20.1432 33.0817 20.0578 33.142 19.9705 33.2036L19.9175 33.241L19.8556 33.2849C18.9836 33.9339 17.9846 34.25 16.8086 34.25L16.8106 34.248ZM16.4246 32.7379C16.4664 32.7399 16.5095 32.7411 16.5523 32.7422L16.6166 32.744L16.6896 32.746C17.6086 32.767 18.3155 32.561 18.9675 32.075C18.97 32.0735 18.9723 32.0717 18.9746 32.07C18.9768 32.0682 18.9791 32.0665 18.9816 32.065L19.0496 32.017L19.0518 32.0154C19.4863 31.7064 19.7051 31.5509 20.0026 31.5049C20.3286 31.4559 20.6096 31.5709 21.1696 31.8019L21.2916 31.8519C21.6686 32.0079 22.1236 32.111 22.5416 32.137C23.9286 32.234 25.3936 32.235 26.7836 32.137H26.7856C30.5836 31.883 33.6316 28.7869 33.8776 24.9379C33.9256 24.1459 33.9256 23.305 33.8776 22.511C33.6326 18.664 30.5836 15.5689 26.7866 15.3139C25.3956 15.2269 23.9276 15.2269 22.5436 15.3139C18.7486 15.5679 15.6996 18.6629 15.4546 22.5129C15.4066 23.3049 15.4066 24.146 15.4546 24.94C15.5316 26.141 16.0245 27.422 16.9175 28.745C16.9295 28.763 16.9416 28.7819 16.9526 28.8019C17.4816 29.7579 17.3726 30.951 16.6286 32.348L16.6106 32.3809C16.5476 32.4989 16.4816 32.6249 16.4246 32.7379Z" fill="#1B8354"/>
</svg>
