<svg width="22" height="20" viewBox="0 0 22 20" fill="none" xmlns="http://www.w3.org/2000/svg">
<path fill-rule="evenodd" clip-rule="evenodd" d="M11 6.75C9.20507 6.75 7.75 8.20507 7.75 10C7.75 11.7949 9.20507 13.25 11 13.25C12.7949 13.25 14.25 11.7949 14.25 10C14.25 8.20507 12.7949 6.75 11 6.75ZM9.25 10C9.25 9.0335 10.0335 8.25 11 8.25C11.9665 8.25 12.75 9.0335 12.75 10C12.75 10.9665 11.9665 11.75 11 11.75C10.0335 11.75 9.25 10.9665 9.25 10Z" fill="#1B8354"/>
<path d="M4.5 10C5.05228 10 5.5 10.4477 5.5 11V11.009C5.5 11.5613 5.05228 12.009 4.5 12.009C3.94772 12.009 3.5 11.5613 3.5 11.009V11C3.5 10.4477 3.94772 10 4.5 10Z" fill="#1B8354"/>
<path d="M18.5 8.99219C18.5 8.4399 18.0523 7.99219 17.5 7.99219C16.9477 7.99219 16.5 8.4399 16.5 8.99219V9.00117C16.5 9.55345 16.9477 10.0012 17.5 10.0012C18.0523 10.0012 18.5 9.55345 18.5 9.00117V8.99219Z" fill="#1B8354"/>
<path fill-rule="evenodd" clip-rule="evenodd" d="M16 0.75C13.9915 0.75 12.1298 1.14454 10.6826 1.82046C9.46476 2.38927 7.82565 2.75 6 2.75C4.988 2.75 4.02989 2.63907 3.16745 2.44153C1.841 2.13772 0.25 3.04678 0.25 4.61397V15.386C0.25 16.1829 0.357221 16.9655 0.77818 17.6126C1.21749 18.2878 1.9155 18.6936 2.83255 18.9037C3.80949 19.1274 4.88016 19.25 6 19.25C8.00849 19.25 9.87017 18.8555 11.3174 18.1795C12.5352 17.6107 14.1744 17.25 16 17.25C17.012 17.25 17.9701 17.3609 18.8326 17.5585C20.159 17.8623 21.75 16.9532 21.75 15.386V4.61397C21.75 3.81712 21.6428 3.03453 21.2218 2.38745C20.7825 1.71217 20.0845 1.30637 19.1674 1.09633C18.1905 0.872567 17.1198 0.75 16 0.75ZM11.3174 3.17954C12.5352 2.61073 14.1744 2.25 16 2.25C17.012 2.25 17.9701 2.36093 18.8326 2.55847C19.4972 2.7107 19.7992 2.95139 19.9645 3.20542C20.1481 3.48766 20.25 3.91721 20.25 4.61397V15.386C20.25 15.7885 19.7609 16.2323 19.1674 16.0963C18.1905 15.8726 17.1198 15.75 16 15.75C13.9915 15.75 12.1298 16.1445 10.6826 16.8205C9.46476 17.3893 7.82565 17.75 6 17.75C4.988 17.75 4.02989 17.6391 3.16745 17.4415C2.50278 17.2893 2.20079 17.0486 2.03553 16.7946C1.85192 16.5123 1.75 16.0828 1.75 15.386V4.61397C1.75 4.2115 2.23906 3.76774 2.83255 3.90367C3.80949 4.12743 4.88016 4.25 6 4.25C8.00849 4.25 9.87017 3.85546 11.3174 3.17954Z" fill="#1B8354"/>
</svg>
