<svg width="120" height="41" viewBox="0 0 120 41" fill="none" xmlns="http://www.w3.org/2000/svg">
<rect x="0.5" y="0.904785" width="119" height="39" rx="5.5" fill="black"/>
<rect x="0.5" y="0.904785" width="119" height="39" rx="5.5" stroke="#A6A6A6"/>
<path d="M17.8048 19.8665L8.0896 30.4107C8.09051 30.4126 8.09051 30.4154 8.09142 30.4172C8.38981 31.5622 9.41179 32.4048 10.6254 32.4048C11.1108 32.4048 11.5662 32.2704 11.9567 32.0353L11.9877 32.0166L22.9229 25.5641L17.8048 19.8665Z" fill="#EA4335"/>
<path d="M27.6331 18.071L27.624 18.0644L22.9028 15.266L17.5839 20.1061L22.922 25.563L27.6176 22.7926C28.4407 22.3372 29 21.4498 29 20.4271C29 19.41 28.4489 18.5273 27.6331 18.071Z" fill="#FBBC04"/>
<path d="M8.08942 10.3982C8.03102 10.6184 8 10.8498 8 11.0887V29.7212C8 29.9601 8.03102 30.1915 8.09034 30.4108L18.1386 20.1362L8.08942 10.3982Z" fill="#4285F4"/>
<path d="M17.8766 20.4047L22.9044 15.2641L11.982 8.78826C11.585 8.54472 11.1215 8.40475 10.626 8.40475C9.4124 8.40475 8.38859 9.24922 8.09021 10.3951C8.09021 10.396 8.08929 10.397 8.08929 10.3979L17.8766 20.4047Z" fill="#34A853"/>
<path d="M43.61 12.1148C43.61 13.1148 43.3133 13.9115 42.72 14.5048C42.0533 15.2115 41.1767 15.5648 40.09 15.5648C39.05 15.5648 38.17 15.2048 37.45 14.4848C36.73 13.7648 36.37 12.8781 36.37 11.8248C36.37 10.7715 36.73 9.88478 37.45 9.16479C38.17 8.44478 39.05 8.08478 40.09 8.08478C40.6167 8.08478 41.1133 8.17812 41.58 8.36478C42.0467 8.55145 42.43 8.81478 42.73 9.15479L42.07 9.81479C41.85 9.54812 41.5633 9.34145 41.21 9.19478C40.8633 9.04145 40.49 8.96478 40.09 8.96478C39.31 8.96478 38.65 9.23478 38.11 9.77478C37.5767 10.3215 37.31 11.0048 37.31 11.8248C37.31 12.6448 37.5767 13.3281 38.11 13.8748C38.65 14.4148 39.31 14.6848 40.09 14.6848C40.8033 14.6848 41.3967 14.4848 41.87 14.0848C42.3433 13.6848 42.6167 13.1348 42.69 12.4348H40.09V11.5748H43.56C43.5933 11.7615 43.61 11.9415 43.61 12.1148ZM48.9078 8.24478V9.12478H45.6478V11.3948H48.5878V12.2548H45.6478V14.5248H48.9078V15.4048H44.7278V8.24478H48.9078ZM52.5877 9.12478V15.4048H51.6677V9.12478H49.6677V8.24478H54.5877V9.12478H52.5877ZM58.6654 15.4048H57.7454V8.24478H58.6654V15.4048ZM62.5487 9.12478V15.4048H61.6287V9.12478H59.6287V8.24478H64.5487V9.12478H62.5487ZM74.521 11.8248C74.521 12.8848 74.1677 13.7715 73.461 14.4848C72.7477 15.2048 71.8743 15.5648 70.841 15.5648C69.801 15.5648 68.9277 15.2048 68.221 14.4848C67.5143 13.7715 67.161 12.8848 67.161 11.8248C67.161 10.7648 67.5143 9.87812 68.221 9.16479C68.9277 8.44478 69.801 8.08478 70.841 8.08478C71.881 8.08478 72.7543 8.44812 73.461 9.17478C74.1677 9.88812 74.521 10.7715 74.521 11.8248ZM68.101 11.8248C68.101 12.6515 68.361 13.3348 68.881 13.8748C69.4077 14.4148 70.061 14.6848 70.841 14.6848C71.621 14.6848 72.271 14.4148 72.791 13.8748C73.3177 13.3415 73.581 12.6581 73.581 11.8248C73.581 10.9915 73.3177 10.3081 72.791 9.77478C72.271 9.23478 71.621 8.96478 70.841 8.96478C70.061 8.96478 69.4077 9.23478 68.881 9.77478C68.361 10.3148 68.101 10.9981 68.101 11.8248ZM76.5267 15.4048H75.6067V8.24478H76.7267L80.2067 13.8148H80.2467L80.2067 12.4348V8.24478H81.1267V15.4048H80.1667L76.5267 9.56478H76.4867L76.5267 10.9448V15.4048Z" fill="white"/>
<path d="M93.5181 31.8144H95.1469V20.8029H93.5181V31.8144ZM108.189 24.7694L106.322 29.5436H106.266L104.328 24.7694H102.573L105.479 31.4418L103.823 35.1537H105.521L110 24.7694H108.189ZM98.9519 30.5636C98.4176 30.5636 97.6739 30.295 97.6739 29.6282C97.6739 28.779 98.6001 28.4531 99.4005 28.4531C100.116 28.4531 100.454 28.609 100.889 28.8213C100.762 29.8413 99.892 30.5636 98.9519 30.5636ZM99.1483 24.5289C97.969 24.5289 96.7469 25.053 96.2424 26.2149L97.6879 26.8235C97.9969 26.2149 98.5721 26.0158 99.1762 26.0158C100.019 26.0158 100.875 26.5258 100.889 27.4331V27.5458C100.594 27.3758 99.9627 27.1213 99.1902 27.1213C97.632 27.1213 96.0451 27.9854 96.0451 29.6C96.0451 31.0736 97.323 32.0232 98.7546 32.0232C99.8501 32.0232 100.454 31.5273 100.833 30.9459H100.889V31.7959H102.461V27.574C102.461 25.6194 101.015 24.5289 99.1483 24.5289ZM89.0821 26.1101H86.7655V22.3356H89.0821C90.2998 22.3356 90.9911 23.353 90.9911 24.2224C90.9911 25.0759 90.2998 26.1101 89.0821 26.1101ZM89.0402 20.8029H85.1375V31.8144H86.7655V27.6427H89.0402C90.8453 27.6427 92.6199 26.3232 92.6199 24.2224C92.6199 22.1216 90.8453 20.8029 89.0402 20.8029ZM67.7583 30.5654C66.6332 30.5654 65.6913 29.615 65.6913 28.3095C65.6913 26.99 66.6332 26.0246 67.7583 26.0246C68.8695 26.0246 69.7406 26.99 69.7406 28.3095C69.7406 29.615 68.8695 30.5654 67.7583 30.5654ZM69.6289 25.386H69.5722C69.2064 24.9464 68.5038 24.5492 67.6178 24.5492C65.7611 24.5492 64.0599 26.1946 64.0599 28.3095C64.0599 30.4095 65.7611 32.0417 67.6178 32.0417C68.5038 32.0417 69.2064 31.6444 69.5722 31.1899H69.6289V31.7299C69.6289 33.163 68.8695 33.9294 67.6457 33.9294C66.6471 33.9294 66.0282 33.2053 65.7751 32.5949L64.3549 33.1912C64.7626 34.1848 65.8458 35.4048 67.6457 35.4048C69.5582 35.4048 71.1757 34.2694 71.1757 31.5026V24.7756H69.6289V25.386ZM72.3008 31.8144H73.9323V20.802H72.3008V31.8144ZM76.3362 28.1818C76.2943 26.7346 77.4474 25.9964 78.2766 25.9964C78.9243 25.9964 79.4725 26.3223 79.6549 26.7909L76.3362 28.1818ZM81.3989 26.9328C81.0899 26.096 80.1472 24.5492 78.2208 24.5492C76.3083 24.5492 74.7196 26.0669 74.7196 28.2954C74.7196 30.3954 76.2943 32.0417 78.4032 32.0417C80.1053 32.0417 81.0899 30.9917 81.4976 30.3813L80.2319 29.5295C79.8103 30.154 79.2333 30.5654 78.4032 30.5654C77.5739 30.5654 76.983 30.1822 76.6033 29.4309L81.5674 27.3582L81.3989 26.9328ZM41.8501 25.6987V27.2877H45.6184C45.5058 28.1818 45.2107 28.8345 44.7612 29.2882C44.2121 29.8422 43.3541 30.4526 41.8501 30.4526C39.5291 30.4526 37.7152 28.565 37.7152 26.2237C37.7152 23.8815 39.5291 21.9947 41.8501 21.9947C43.1018 21.9947 44.0157 22.4915 44.6905 23.1301L45.8017 22.0088C44.8589 21.1007 43.6081 20.4048 41.8501 20.4048C38.6719 20.4048 36 23.0165 36 26.2237C36 29.4309 38.6719 32.0417 41.8501 32.0417C43.5653 32.0417 44.8589 31.4736 45.8715 30.4095C46.9129 29.3595 47.2358 27.8841 47.2358 26.6914C47.2358 26.3223 47.2079 25.9823 47.1512 25.6987H41.8501ZM51.5208 30.5654C50.3957 30.5654 49.425 29.629 49.425 28.2954C49.425 26.9469 50.3957 26.0246 51.5208 26.0246C52.6451 26.0246 53.6158 26.9469 53.6158 28.2954C53.6158 29.629 52.6451 30.5654 51.5208 30.5654ZM51.5208 24.5492C49.4669 24.5492 47.7936 26.1241 47.7936 28.2954C47.7936 30.4526 49.4669 32.0417 51.5208 32.0417C53.5739 32.0417 55.2472 30.4526 55.2472 28.2954C55.2472 26.1241 53.5739 24.5492 51.5208 24.5492ZM59.65 30.5654C58.5249 30.5654 57.5542 29.629 57.5542 28.2954C57.5542 26.9469 58.5249 26.0246 59.65 26.0246C60.7752 26.0246 61.745 26.9469 61.745 28.2954C61.745 29.629 60.7752 30.5654 59.65 30.5654ZM59.65 24.5492C57.597 24.5492 55.9237 26.1241 55.9237 28.2954C55.9237 30.4526 57.597 32.0417 59.65 32.0417C61.7031 32.0417 63.3764 30.4526 63.3764 28.2954C63.3764 26.1241 61.7031 24.5492 59.65 24.5492Z" fill="white"/>
</svg>
