<svg width="120" height="41" viewBox="0 0 120 41" fill="none" xmlns="http://www.w3.org/2000/svg">
<g clip-path="url(#clip0_1_21494)">
<mask id="mask0_1_21494" style="mask-type:luminance" maskUnits="userSpaceOnUse" x="0" y="0" width="120" height="41">
<path d="M119.582 0.404785H0.427612V40.4076H119.582V0.404785Z" fill="white"/>
</mask>
<g mask="url(#mask0_1_21494)">
<path d="M111.178 0.404785H7.86814H7.05787C6.46536 0.414426 5.87428 0.473259 5.28954 0.580798C4.70859 0.690906 4.14608 0.89954 3.62131 1.19951C3.09352 1.50146 2.61109 1.89377 2.19142 2.36229C1.77184 2.83102 1.42116 3.37107 1.15234 3.96241C0.881036 4.55794 0.69296 5.1965 0.594682 5.85584C0.495913 6.5089 0.443329 7.16964 0.437395 7.83199C0.423096 8.13867 0.423096 8.43736 0.423096 8.74138V32.074C0.423096 32.3807 0.423096 32.6794 0.437395 32.9861C0.443528 33.6484 0.496115 34.3091 0.594682 34.9623C0.692111 35.6122 0.877756 36.2417 1.14519 36.829C1.6858 38.0235 2.54997 38.996 3.61416 39.6079C4.13911 39.9084 4.7015 40.1187 5.2824 40.2319C5.86718 40.3386 6.45821 40.3965 7.05072 40.4052H7.861H112.127H112.939C113.53 40.3971 114.12 40.3391 114.702 40.2319C115.289 40.1183 115.856 39.908 116.388 39.6079C116.917 39.3091 117.399 38.9164 117.818 38.4451C118.239 37.9772 118.592 37.437 118.862 36.845C119.126 36.257 119.31 35.6277 119.407 34.9783C119.506 34.325 119.56 33.6645 119.571 33.0021V32.09V31.0233V9.81876V8.75198V7.84258C119.56 7.1802 119.506 6.51968 119.407 5.86643C119.309 5.21723 119.125 4.58804 118.862 3.9996C118.321 2.80172 117.458 1.82405 116.395 1.2047C115.863 0.907811 115.296 0.701946 114.709 0.593989C114.127 0.485861 113.537 0.427027 112.946 0.417976H112.134L111.178 0.404785Z" fill="#B6B6B6"/>
</g>
<mask id="mask1_1_21494" style="mask-type:luminance" maskUnits="userSpaceOnUse" x="0" y="0" width="120" height="41">
<path d="M119.582 0.404785H0.427612V40.4076H119.582V0.404785Z" fill="white"/>
</mask>
<g mask="url(#mask1_1_21494)">
<path d="M7.87733 39.5436H7.07897C6.52649 39.5356 5.97527 39.4821 5.42986 39.3836C4.92213 39.2871 4.42992 39.1074 3.96896 38.8503C3.05329 38.325 2.30742 37.4923 1.83601 36.4687C1.60403 35.9531 1.44332 35.4009 1.35937 34.8313C1.26825 34.2195 1.21964 33.6007 1.21401 32.9804C1.21401 32.7724 1.19971 32.0791 1.19971 32.0791V8.74141C1.19971 8.74141 1.19971 8.0587 1.21401 7.85869C1.21813 7.23762 1.26594 6.6179 1.35699 6.00525C1.43986 5.4336 1.6006 4.87957 1.83362 4.36244C2.06526 3.85361 2.36863 3.38986 2.73204 2.98904C3.09503 2.58243 3.51229 2.24144 3.96889 1.97827C4.42877 1.72064 4.92031 1.54089 5.42738 1.4449C5.97425 1.34426 6.52714 1.28988 7.08132 1.28223H112.938C113.487 1.28749 114.035 1.34099 114.577 1.44224C115.089 1.53625 115.586 1.71607 116.05 1.97562C116.967 2.5054 117.713 3.34521 118.18 4.37579C118.412 4.88894 118.572 5.43826 118.657 6.0052C118.749 6.62247 118.799 7.24639 118.809 7.87204V8.7521V9.81888V30.9934V32.0601V32.9801C118.801 33.5934 118.75 34.2049 118.659 34.8097C118.578 35.3833 118.417 35.9393 118.183 36.4578C117.709 37.4774 116.965 38.3076 116.052 38.8339C115.589 39.0938 115.093 39.2736 114.582 39.3673C114.036 39.4664 113.485 39.5199 112.932 39.5273H112.142H7.8758L7.87733 39.5436Z" fill="black"/>
</g>
<mask id="mask2_1_21494" style="mask-type:luminance" maskUnits="userSpaceOnUse" x="0" y="0" width="120" height="41">
<path d="M119.582 0.404785H0.427612V40.4076H119.582V0.404785Z" fill="white"/>
</mask>
<g mask="url(#mask2_1_21494)">
<path d="M44.6566 27.4098H40.4646L39.447 30.5406H37.6049L41.7039 18.8438H43.4435L47.6355 30.5406H45.7076L44.6566 27.4098ZM40.9984 25.8096H44.1204L43.0027 22.46C42.8501 21.9987 42.6977 21.4866 42.5499 20.9266C42.414 21.4226 42.2663 21.9267 42.109 22.444L40.9984 25.8096Z" fill="white"/>
</g>
<mask id="mask3_1_21494" style="mask-type:luminance" maskUnits="userSpaceOnUse" x="0" y="0" width="120" height="41">
<path d="M119.582 0.404785H0.427612V40.4076H119.582V0.404785Z" fill="white"/>
</mask>
<g mask="url(#mask3_1_21494)">
<path d="M48.377 23.9615C48.377 23.316 48.3579 22.6049 48.3198 21.8279H49.988C50.0507 22.1936 50.0937 22.5633 50.1167 22.9347C50.4086 22.5433 50.7727 22.2271 51.1841 22.008C51.5954 21.7888 52.0443 21.6719 52.4998 21.6653C53.034 21.6558 53.5585 21.8248 54.0064 22.1507C54.4542 22.4767 54.8051 22.9446 55.0141 23.4947C55.3072 24.2511 55.4465 25.0709 55.4215 25.8949C55.4397 26.7934 55.2769 27.6847 54.9449 28.5031C54.6674 29.1822 54.2141 29.7527 53.6437 30.1405C53.057 30.52 52.3887 30.7127 51.711 30.6979C51.1778 30.6975 50.6485 30.5965 50.1453 30.3992V34.0075L48.3627 34.1782L48.377 23.9615ZM53.0622 28.4071C53.4245 27.8737 53.608 27.0737 53.608 26.0069C53.608 25.0344 53.4571 24.3232 53.1552 23.8735C53.0188 23.6643 52.8392 23.4954 52.6317 23.3812C52.4241 23.2669 52.1948 23.2107 51.9636 23.2174C51.6306 23.2124 51.3021 23.3043 51.0103 23.484C50.7005 23.6805 50.4185 23.9278 50.1739 24.2175V28.8844C50.3714 28.9886 50.5794 29.0656 50.7935 29.1138C51.0237 29.1695 51.2586 29.1981 51.4942 29.1991C51.7933 29.2191 52.0924 29.1575 52.3655 29.0196C52.6387 28.8816 52.8778 28.6714 53.0622 28.4071Z" fill="white"/>
</g>
<mask id="mask4_1_21494" style="mask-type:luminance" maskUnits="userSpaceOnUse" x="0" y="0" width="120" height="41">
<path d="M119.582 0.404785H0.427612V40.4076H119.582V0.404785Z" fill="white"/>
</mask>
<g mask="url(#mask4_1_21494)">
<path d="M56.5059 23.9615C56.5059 23.316 56.4869 22.6049 56.4487 21.8279H58.117C58.1816 22.1933 58.2254 22.5631 58.2481 22.9347C58.9423 22.0884 59.7367 21.6653 60.6312 21.6653C61.1653 21.6558 61.6898 21.8248 62.1377 22.1507C62.5855 22.4767 62.9364 22.9446 63.1454 23.4947C63.4386 24.2511 63.5778 25.0709 63.5529 25.8949C63.5748 26.7923 63.416 27.6837 63.0882 28.5031C62.8099 29.1826 62.3558 29.7531 61.7846 30.1405C61.1979 30.5203 60.5295 30.7131 59.8519 30.6979C59.3187 30.6975 58.7894 30.5965 58.2861 30.3992V34.0075L56.5036 34.1782L56.5059 23.9615ZM61.1984 28.4071C61.5606 27.8612 61.7417 27.0612 61.7417 26.0069C61.7417 25.0344 61.5916 24.3232 61.2913 23.8735C61.1549 23.6643 60.9752 23.4954 60.7677 23.3812C60.5602 23.2669 60.331 23.2107 60.0998 23.2174C59.7668 23.2129 59.4384 23.3047 59.1465 23.484C58.8366 23.6805 58.5546 23.9278 58.31 24.2175V28.8844C58.5078 28.9878 58.7157 29.0648 58.9296 29.1138C59.1599 29.1695 59.3947 29.1981 59.6302 29.1991C59.9293 29.2187 60.2283 29.1569 60.5014 29.0189C60.7745 28.881 61.0136 28.6711 61.1984 28.4071Z" fill="white"/>
</g>
<mask id="mask5_1_21494" style="mask-type:luminance" maskUnits="userSpaceOnUse" x="0" y="0" width="120" height="41">
<path d="M119.582 0.404785H0.427612V40.4076H119.582V0.404785Z" fill="white"/>
</mask>
<g mask="url(#mask5_1_21494)">
<path d="M66.8297 29.9879C66.0682 29.5205 65.4496 28.8079 65.0543 27.9424C64.6222 26.9644 64.4095 25.8835 64.4346 24.7929C64.4037 23.626 64.6504 22.471 65.1495 21.4459C65.6002 20.5564 66.2772 19.837 67.0942 19.3791C67.9529 18.9097 68.8984 18.673 69.8539 18.6885C70.4334 18.6856 71.0111 18.7609 71.5746 18.9125C72.1015 19.0513 72.613 19.2552 73.0997 19.5205L72.6374 21.0539C71.7944 20.5781 70.867 20.3193 69.9231 20.2966C69.2567 20.2841 68.5992 20.4681 68.0165 20.8299C67.4636 21.185 67.0193 21.7186 66.7415 22.3607C66.4221 23.1223 66.267 23.9572 66.2887 24.7982C66.2768 25.5558 66.395 26.3091 66.6366 27.017C66.8561 27.6436 67.242 28.1797 67.7425 28.5532C68.3125 28.9523 68.9771 29.1493 69.649 29.1185C69.9971 29.1175 70.3447 29.0845 70.688 29.0198C71.0202 28.9607 71.3467 28.8661 71.6627 28.7372V26.3583H69.2462V24.8089H73.3953V29.7398C72.7933 30.0538 72.1629 30.2943 71.515 30.4573C70.8725 30.6229 70.2154 30.707 69.556 30.7079C68.6071 30.7334 67.6683 30.4855 66.8297 29.9879Z" fill="white"/>
</g>
<mask id="mask6_1_21494" style="mask-type:luminance" maskUnits="userSpaceOnUse" x="0" y="0" width="120" height="41">
<path d="M119.582 0.404785H0.427612V40.4076H119.582V0.404785Z" fill="white"/>
</mask>
<g mask="url(#mask6_1_21494)">
<path d="M79.7273 30.5399C79.6599 30.1591 79.6185 29.7731 79.6034 29.3853C79.3057 29.7729 78.942 30.0901 78.5334 30.3186C78.0721 30.58 77.5609 30.7119 77.0439 30.7027C76.6209 30.7087 76.2021 30.6074 75.819 30.4066C75.4545 30.2153 75.1498 29.906 74.9443 29.5186C74.7166 29.0795 74.6036 28.5778 74.6179 28.0705C74.6045 27.6856 74.6714 27.3026 74.8132 26.9517C74.9552 26.6009 75.1681 26.2917 75.4352 26.049C75.9786 25.5441 76.885 25.2925 78.1545 25.2943C78.6273 25.2941 79.0995 25.3315 79.5676 25.4063V25.2356C79.5676 24.4675 79.4215 23.9253 79.1292 23.6088C78.7797 23.2723 78.3261 23.1028 77.8661 23.1368C77.4541 23.1424 77.0442 23.2051 76.6459 23.3234C76.2514 23.4299 75.8667 23.5781 75.4973 23.7662L75.216 22.3154C75.6202 22.1223 76.0399 21.9732 76.4696 21.87C77.0099 21.7333 77.5623 21.6653 78.1163 21.6673C78.7033 21.6494 79.2873 21.7665 79.8322 22.0113C80.3114 22.2485 80.7017 22.6654 80.9356 23.1901C81.2281 23.8927 81.3646 24.6639 81.3335 25.4383V28.9052C81.3335 29.2608 81.3527 29.8066 81.3907 30.5426L79.7273 30.5399ZM78.6597 28.9398C79.0032 28.7612 79.3118 28.5084 79.5676 28.1958V26.5957C79.1721 26.5434 78.7744 26.514 78.3761 26.5077C77.6405 26.5077 77.1313 26.6411 76.8485 26.9077C76.7105 27.0381 76.6009 27.2019 76.5278 27.3867C76.4548 27.5715 76.4202 27.7725 76.4267 27.9745C76.4137 28.149 76.4346 28.3245 76.4876 28.4892C76.5406 28.654 76.6246 28.804 76.7341 28.9292C76.9664 29.1484 77.2648 29.2601 77.5682 29.2413C77.9477 29.2348 78.321 29.1317 78.6597 28.9398Z" fill="white"/>
</g>
<mask id="mask7_1_21494" style="mask-type:luminance" maskUnits="userSpaceOnUse" x="0" y="0" width="120" height="41">
<path d="M119.582 0.404785H0.427612V40.4076H119.582V0.404785Z" fill="white"/>
</mask>
<g mask="url(#mask7_1_21494)">
<path d="M82.7104 28.4498V18.1561L84.4835 17.9961V28.0958C84.4583 28.3761 84.5179 28.6579 84.6528 28.8959C84.7209 28.9778 84.8048 29.0413 84.8981 29.0815C84.9914 29.1217 85.0918 29.1376 85.1913 29.1279C85.353 29.1201 85.5131 29.0896 85.668 29.0372L85.8777 30.4667C85.6782 30.551 85.4713 30.6117 85.2605 30.648C85.033 30.6921 84.8027 30.7153 84.5717 30.7173C83.3309 30.7084 82.7104 29.9521 82.7104 28.4498Z" fill="white"/>
</g>
<mask id="mask8_1_21494" style="mask-type:luminance" maskUnits="userSpaceOnUse" x="0" y="0" width="120" height="41">
<path d="M119.582 0.404785H0.427612V40.4076H119.582V0.404785Z" fill="white"/>
</mask>
<g mask="url(#mask8_1_21494)">
<path d="M87.1458 28.4498V18.1561L88.9212 17.9961V28.0958C88.8959 28.3761 88.9555 28.6579 89.0905 28.8959C89.1584 28.9778 89.2424 29.0413 89.3354 29.0815C89.4292 29.1217 89.5293 29.1376 89.6294 29.1279C89.7902 29.1201 89.9511 29.0896 90.1057 29.0372L90.313 30.4667C90.1147 30.551 89.9082 30.6118 89.6982 30.648C89.4694 30.6923 89.2388 30.7155 89.0074 30.7173C87.7678 30.7084 87.1474 29.9521 87.1458 28.4498Z" fill="white"/>
</g>
<mask id="mask9_1_21494" style="mask-type:luminance" maskUnits="userSpaceOnUse" x="0" y="0" width="120" height="41">
<path d="M119.582 0.404785H0.427612V40.4076H119.582V0.404785Z" fill="white"/>
</mask>
<g mask="url(#mask9_1_21494)">
<path d="M97.6027 26.4386H92.5096C92.5909 28.2646 93.3676 29.1775 94.8403 29.1775C95.2184 29.1753 95.5955 29.1252 95.9628 29.0281C96.339 28.9303 96.7063 28.7965 97.062 28.6281L97.4526 29.9936C96.5348 30.4774 95.5303 30.7202 94.5168 30.703C93.7903 30.7265 93.07 30.5428 92.4238 30.1696C91.8644 29.8312 91.4158 29.3027 91.1423 28.6601C90.8393 27.9158 90.6928 27.104 90.7133 26.2866C90.6928 25.4301 90.8492 24.5799 91.1682 23.8012C91.4399 23.1402 91.8805 22.5837 92.4337 22.201C93.0003 21.8273 93.6491 21.6372 94.3068 21.6516C94.9592 21.6258 95.6035 21.8281 96.1487 22.2303C96.6411 22.6124 97.0218 23.1474 97.2452 23.7692C97.491 24.4464 97.6125 25.1719 97.6027 25.9026V26.4386ZM95.8654 25.1719C95.869 24.6057 95.701 24.0549 95.3891 23.6091C95.2488 23.4338 95.0763 23.2951 94.8832 23.2029C94.6902 23.1108 94.4811 23.0673 94.2711 23.0757C94.0602 23.0709 93.8501 23.1158 93.6553 23.2077C93.4605 23.2996 93.2853 23.4364 93.1415 23.6091C92.8054 24.0472 92.5999 24.5916 92.5525 25.1666L95.8654 25.1719Z" fill="white"/>
</g>
<mask id="mask10_1_21494" style="mask-type:luminance" maskUnits="userSpaceOnUse" x="0" y="0" width="120" height="41">
<path d="M119.582 0.404785H0.427612V40.4076H119.582V0.404785Z" fill="white"/>
</mask>
<g mask="url(#mask10_1_21494)">
<path d="M98.9522 24.0175C98.9522 23.5401 98.9307 22.8094 98.8932 21.8306H100.561C100.589 22.0734 100.616 22.364 100.645 22.6974C100.673 23.0307 100.688 23.3081 100.697 23.5188C100.876 23.1788 101.08 22.856 101.307 22.5534C101.504 22.2948 101.741 22.0787 102.008 21.916C102.287 21.7467 102.602 21.6613 102.92 21.6679C103.161 21.6613 103.403 21.6946 103.635 21.7666L103.412 23.4948C103.132 23.4044 102.839 23.3814 102.552 23.4274C102.264 23.4734 101.988 23.5873 101.743 23.7615C101.349 24.0895 101.005 24.4877 100.725 24.9402V30.5406H98.9522V24.0175Z" fill="white"/>
</g>
<mask id="mask11_1_21494" style="mask-type:luminance" maskUnits="userSpaceOnUse" x="0" y="0" width="120" height="41">
<path d="M119.582 0.404785H0.427612V40.4076H119.582V0.404785Z" fill="white"/>
</mask>
<g mask="url(#mask11_1_21494)">
<path d="M104.627 34.1061C104.409 34.0667 104.195 34.0088 103.985 33.9327L104.31 32.4793C104.46 32.5245 104.612 32.5609 104.765 32.5886C104.936 32.6227 105.11 32.6406 105.285 32.642C106.078 32.642 106.67 32.074 107.058 30.9379L107.174 30.6152L104.303 21.8306H106.209L107.667 26.7402C107.854 27.3718 108.005 28.0157 108.12 28.6684C108.256 28.039 108.414 27.4097 108.597 26.7802L110.051 21.8306H111.845L108.985 30.6552C108.769 31.366 108.476 32.0441 108.111 32.674C107.833 33.1498 107.452 33.5403 107.005 33.8101C106.525 34.072 105.996 34.2001 105.463 34.1834C105.183 34.1846 104.903 34.1587 104.627 34.1061Z" fill="white"/>
</g>
<mask id="mask12_1_21494" style="mask-type:luminance" maskUnits="userSpaceOnUse" x="0" y="0" width="120" height="41">
<path d="M119.582 0.404785H0.427612V40.4076H119.582V0.404785Z" fill="white"/>
</mask>
<g mask="url(#mask12_1_21494)">
<path d="M37.6045 7.70667H40.7741L40.6859 8.5654H38.5292V10.2268H40.5619V11.0268H38.5292V12.867H40.8003L40.7216 13.739H37.6045V7.70667Z" fill="white"/>
</g>
<mask id="mask13_1_21494" style="mask-type:luminance" maskUnits="userSpaceOnUse" x="0" y="0" width="120" height="41">
<path d="M119.582 0.404785H0.427612V40.4076H119.582V0.404785Z" fill="white"/>
</mask>
<g mask="url(#mask13_1_21494)">
<path d="M42.9649 10.6616L41.2966 7.70667H42.3548L43.4891 9.87752L44.6807 7.70667H45.7079L44.0396 10.6243L45.8437 13.7391H44.7713L43.4867 11.3656L42.1784 13.7391H41.1512L42.9649 10.6616Z" fill="white"/>
</g>
<mask id="mask14_1_21494" style="mask-type:luminance" maskUnits="userSpaceOnUse" x="0" y="0" width="120" height="41">
<path d="M119.582 0.404785H0.427612V40.4076H119.582V0.404785Z" fill="white"/>
</mask>
<g mask="url(#mask14_1_21494)">
<path d="M46.5271 7.70667H47.9809C48.6624 7.70667 49.1851 7.86224 49.5489 8.17337C49.7299 8.33271 49.8738 8.5386 49.9684 8.77355C50.063 9.0085 50.1055 9.26553 50.0923 9.52279C50.1024 9.89026 50.0198 10.2535 49.854 10.5709C49.6922 10.8693 49.4561 11.1084 49.1748 11.2589C48.8622 11.4243 48.5196 11.5064 48.1739 11.4989C47.9338 11.4951 47.6946 11.4675 47.4589 11.4163V13.7391H46.5271V7.70667ZM48.8626 10.4002C48.9643 10.2909 49.0435 10.1583 49.095 10.0114C49.1464 9.86452 49.1687 9.70691 49.1605 9.54944C49.1726 9.39852 49.1513 9.24658 49.0986 9.10705C49.0458 8.96751 48.9631 8.84468 48.8578 8.74938C48.5896 8.56659 48.2775 8.4809 47.9641 8.50402H47.4589V10.6375C47.636 10.6732 47.8153 10.6937 47.9951 10.6988C48.3076 10.7251 48.6173 10.6184 48.8626 10.4002Z" fill="white"/>
</g>
<mask id="mask15_1_21494" style="mask-type:luminance" maskUnits="userSpaceOnUse" x="0" y="0" width="120" height="41">
<path d="M119.582 0.404785H0.427612V40.4076H119.582V0.404785Z" fill="white"/>
</mask>
<g mask="url(#mask15_1_21494)">
<path d="M51.0125 7.70667H51.9419V12.8484H54.1725L54.0939 13.7391H51.0125V7.70667Z" fill="white"/>
</g>
<mask id="mask16_1_21494" style="mask-type:luminance" maskUnits="userSpaceOnUse" x="0" y="0" width="120" height="41">
<path d="M119.582 0.404785H0.427612V40.4076H119.582V0.404785Z" fill="white"/>
</mask>
<g mask="url(#mask16_1_21494)">
<path d="M55.5881 13.4427C55.1975 13.1967 54.882 12.8251 54.6825 12.376C54.4657 11.8782 54.3587 11.3295 54.3704 10.7759C54.3589 10.1973 54.4734 9.62439 54.704 9.10636C54.9153 8.63945 55.2475 8.25469 55.6573 8.00228C56.1159 7.73345 56.6292 7.60293 57.1467 7.62358C57.636 7.60889 58.1201 7.73858 58.5504 7.99961C58.9386 8.24642 59.2517 8.61807 59.4488 9.06638C59.6613 9.55901 59.7667 10.101 59.7562 10.6479C59.7692 11.2328 59.6538 11.8125 59.4202 12.336C59.2069 12.8013 58.8751 13.1855 58.467 13.4401C58.0163 13.7083 57.5117 13.8424 57.0014 13.8294C56.5079 13.8434 56.0201 13.7099 55.5881 13.4427ZM57.9999 12.704C58.2626 12.5092 58.4668 12.2304 58.5861 11.904C58.7198 11.5302 58.7855 11.1303 58.7792 10.7279C58.7852 10.3327 58.727 9.93966 58.6076 9.56779C58.5006 9.24568 58.3096 8.96694 58.0595 8.76773C57.7692 8.56903 57.4357 8.46388 57.0955 8.46388C56.7552 8.46388 56.4216 8.56903 56.1315 8.76773C55.868 8.97228 55.6628 9.25746 55.5405 9.58913C55.4049 9.94745 55.3375 10.3335 55.3426 10.7225C55.3369 11.1234 55.4 11.5218 55.5286 11.896C55.6427 12.2383 55.8515 12.531 56.1245 12.7316C56.3975 12.932 56.7205 13.0298 57.0466 13.0107C57.3849 13.0201 57.7177 12.9129 57.9999 12.704Z" fill="white"/>
</g>
<mask id="mask17_1_21494" style="mask-type:luminance" maskUnits="userSpaceOnUse" x="0" y="0" width="120" height="41">
<path d="M119.582 0.404785H0.427612V40.4076H119.582V0.404785Z" fill="white"/>
</mask>
<g mask="url(#mask17_1_21494)">
<path d="M60.7928 7.70658H62.4801C62.9744 7.66742 63.4664 7.81279 63.879 8.11995C64.0373 8.25902 64.1633 8.43881 64.2463 8.64401C64.3292 8.84922 64.3668 9.0738 64.3556 9.29869C64.3612 9.59112 64.3022 9.88057 64.184 10.1414C64.0806 10.3701 63.9362 10.5726 63.7599 10.7362C63.6021 10.8786 63.4252 10.9921 63.2355 11.0722L64.9038 13.739H63.8194L62.4158 11.3388H61.7317V13.739H60.7928V7.70658ZM62.2537 10.5602C62.4606 10.5652 62.6657 10.5149 62.8519 10.4135C63.0195 10.3234 63.1608 10.1819 63.2594 10.0054C63.3577 9.8171 63.408 9.60217 63.4047 9.38407C63.4144 9.25818 63.3959 9.1316 63.3509 9.0157C63.306 8.89979 63.2361 8.79818 63.1473 8.72002C62.9239 8.56349 62.6621 8.48976 62.3991 8.50933H61.7246V10.5708L62.2537 10.5602Z" fill="white"/>
</g>
<mask id="mask18_1_21494" style="mask-type:luminance" maskUnits="userSpaceOnUse" x="0" y="0" width="120" height="41">
<path d="M119.582 0.404785H0.427612V40.4076H119.582V0.404785Z" fill="white"/>
</mask>
<g mask="url(#mask18_1_21494)">
<path d="M65.6304 7.70667H68.8071L68.7166 8.5654H66.5718V10.2268H68.5855V11.0268H66.5526V12.867H68.8238L68.7547 13.739H65.6304V7.70667Z" fill="white"/>
</g>
<mask id="mask19_1_21494" style="mask-type:luminance" maskUnits="userSpaceOnUse" x="0" y="0" width="120" height="41">
<path d="M119.582 0.404785H0.427612V40.4076H119.582V0.404785Z" fill="white"/>
</mask>
<g mask="url(#mask19_1_21494)">
<path d="M72.2633 7.70667H73.1927V13.7391H72.2633V7.70667Z" fill="white"/>
</g>
<mask id="mask20_1_21494" style="mask-type:luminance" maskUnits="userSpaceOnUse" x="0" y="0" width="120" height="41">
<path d="M119.582 0.404785H0.427612V40.4076H119.582V0.404785Z" fill="white"/>
</mask>
<g mask="url(#mask20_1_21494)">
<path d="M75.654 8.57606H73.9857L74.0668 7.70667H78.2611L78.1753 8.57606H76.5858V13.739H75.654V8.57606Z" fill="white"/>
</g>
<mask id="mask21_1_21494" style="mask-type:luminance" maskUnits="userSpaceOnUse" x="0" y="0" width="120" height="41">
<path d="M119.582 0.404785H0.427612V40.4076H119.582V0.404785Z" fill="white"/>
</mask>
<g mask="url(#mask21_1_21494)">
<path d="M82.3011 13.4427C81.9112 13.1966 81.5965 12.825 81.3979 12.376C81.1791 11.8789 81.0712 11.3298 81.0833 10.7759C81.0719 10.1974 81.1865 9.62443 81.4169 9.10639C81.6289 8.63997 81.9609 8.25538 82.3702 8.00231C82.8254 7.73215 83.3351 7.59804 83.8502 7.61294C84.3452 7.59803 84.8347 7.73154 85.2681 7.99964C85.6569 8.24567 85.9701 8.61752 86.1666 9.06642C86.3799 9.55881 86.4861 10.1007 86.4763 10.6479C86.4896 11.2332 86.3734 11.8131 86.138 12.336C85.9253 12.8019 85.5935 13.1862 85.1847 13.4401C84.7343 13.709 84.2294 13.8432 83.7191 13.8295C83.224 13.8444 82.7345 13.7108 82.3011 13.4427ZM84.7152 12.704C84.9766 12.5083 85.18 12.2297 85.2991 11.904C85.4328 11.5303 85.4985 11.1303 85.4921 10.7279C85.4981 10.3327 85.4399 9.93969 85.3205 9.56782C85.2145 9.24589 85.0244 8.96712 84.7748 8.76776C84.4842 8.56883 84.1503 8.46355 83.8096 8.46355C83.469 8.46355 83.135 8.56883 82.8444 8.76776C82.581 8.97231 82.3758 9.25749 82.2534 9.58915C82.119 9.94786 82.0516 10.3336 82.0557 10.7225C82.0499 11.1235 82.113 11.5218 82.2415 11.896C82.3552 12.2249 82.5534 12.5089 82.8111 12.7121C83.0932 12.9204 83.4266 13.0249 83.7644 13.0107C84.1017 13.0185 84.4333 12.9116 84.7152 12.704Z" fill="white"/>
</g>
<mask id="mask22_1_21494" style="mask-type:luminance" maskUnits="userSpaceOnUse" x="0" y="0" width="120" height="41">
<path d="M119.582 0.404785H0.427612V40.4076H119.582V0.404785Z" fill="white"/>
</mask>
<g mask="url(#mask22_1_21494)">
<path d="M87.5077 7.70667H88.5754L91.2422 12.3817C91.2181 11.9364 91.2091 11.5283 91.2091 11.1523V7.70667H92.0715V13.7391H91.0376L88.3299 8.98946C88.3562 9.52282 88.3705 10.0055 88.3705 10.4243V13.7391H87.5077V7.70667Z" fill="white"/>
</g>
<mask id="mask23_1_21494" style="mask-type:luminance" maskUnits="userSpaceOnUse" x="0" y="0" width="120" height="41">
<path d="M119.582 0.404785H0.427612V40.4076H119.582V0.404785Z" fill="white"/>
</mask>
<g mask="url(#mask23_1_21494)">
<path fill-rule="evenodd" clip-rule="evenodd" d="M24.4978 7.73865H14.6056C9.94178 7.73865 8.23547 9.64808 8.23547 14.8672V25.9449C8.23547 31.1639 9.94178 33.0735 14.6056 33.0735H24.4978C29.1616 33.0735 30.8704 31.1639 30.8704 25.9449V14.8672C30.8751 9.64818 29.1688 7.73865 24.4978 7.73865Z" fill="#C8102E"/>
</g>
<mask id="mask24_1_21494" style="mask-type:luminance" maskUnits="userSpaceOnUse" x="0" y="0" width="120" height="41">
<path d="M119.582 0.404785H0.427612V40.4076H119.582V0.404785Z" fill="white"/>
</mask>
<g mask="url(#mask24_1_21494)">
<path d="M12.7173 20.4062H13.3178V23.7212H12.7173V22.3744H11.3613V23.7212H10.7607V20.4062H11.3613V21.7396H12.7173V20.4062ZM16.1014 22.3024C16.1014 22.8357 15.863 23.1291 15.4293 23.1291C14.9956 23.1291 14.7525 22.8357 14.7525 22.2731V20.4062H14.152V22.2997C14.152 23.2305 14.6143 23.7638 15.4198 23.7638C16.2253 23.7638 16.7019 23.2305 16.7019 22.2704V20.4062H16.1014V22.3024ZM23.0411 22.6837L22.369 20.4062H21.8757L21.2085 22.6864L20.5531 20.4062H19.9144L20.9463 23.7212H21.4444L22.1141 21.545L22.7861 23.7212H23.289L24.3208 20.4062H23.6965L23.0411 22.6837ZM25.3957 22.2917H26.4895V21.6916H25.3957V21.0143H26.9828V20.4062H24.8047V23.7132H27.04V23.1157H25.3957V22.2917ZM27.755 23.7132H28.3484V20.4062H27.755V23.7132ZM17.8887 23.0277L17.6195 23.7158H17.0069L18.301 20.4062H18.8301L20.1289 23.7158H19.5093L19.2543 23.0304L17.8887 23.0277ZM18.1128 22.4304H19.0159L18.5632 21.2463L18.1128 22.4304Z" fill="white"/>
</g>
<mask id="mask25_1_21494" style="mask-type:luminance" maskUnits="userSpaceOnUse" x="0" y="0" width="120" height="41">
<path d="M119.582 0.404785H0.427612V40.4076H119.582V0.404785Z" fill="white"/>
</mask>
<g mask="url(#mask25_1_21494)">
<path d="M19.5549 16.1899C18.5557 16.1892 17.5978 15.7448 16.8913 14.9542C16.1849 14.1637 15.7877 13.0916 15.7871 11.9736H16.3185C16.3185 12.9341 16.6595 13.8553 17.2664 14.5345C17.8733 15.2137 18.6965 15.5952 19.5549 15.5952C20.4132 15.5952 21.2363 15.2137 21.8432 14.5345C22.4502 13.8553 22.7912 12.9341 22.7912 11.9736H23.3226C23.322 13.0916 22.9248 14.1637 22.2184 14.9542C21.5119 15.7448 20.5539 16.1892 19.5549 16.1899Z" fill="white"/>
</g>
</g>
<defs>
<clipPath id="clip0_1_21494">
<rect width="120" height="40" fill="white" transform="translate(0 0.404785)"/>
</clipPath>
</defs>
</svg>
