<svg width="20" height="20" viewBox="0 0 20 20" fill="none" xmlns="http://www.w3.org/2000/svg">
<path fill-rule="evenodd" clip-rule="evenodd" d="M5.62501 10C5.62501 7.58379 7.58376 5.62504 10 5.62504C12.4163 5.62504 14.375 7.58379 14.375 10C14.375 12.4163 12.4163 14.375 10 14.375C7.58376 14.375 5.62501 12.4163 5.62501 10ZM10 6.87504C8.27412 6.87504 6.87501 8.27415 6.87501 10C6.87501 11.7259 8.27412 13.125 10 13.125C11.7259 13.125 13.125 11.7259 13.125 10C13.125 8.27415 11.7259 6.87504 10 6.87504Z" fill="#161616"/>
<path d="M14.5899 6.25004C15.0501 6.25004 15.4232 5.87694 15.4232 5.41671C15.4232 4.95647 15.0501 4.58337 14.5899 4.58337H14.5824C14.1221 4.58337 13.749 4.95647 13.749 5.41671C13.749 5.87694 14.1221 6.25004 14.5824 6.25004H14.5899Z" fill="#161616"/>
<path fill-rule="evenodd" clip-rule="evenodd" d="M10.0477 1.45837C11.8732 1.45836 13.3071 1.45836 14.4267 1.60887C15.5739 1.76311 16.4841 2.08564 17.1993 2.8008C17.9144 3.51597 18.2369 4.42618 18.3912 5.57339C18.5417 6.6929 18.5417 8.12679 18.5417 9.95237V10.0477C18.5417 11.8733 18.5417 13.3072 18.3912 14.4267C18.2369 15.5739 17.9144 16.4841 17.1993 17.1993C16.4841 17.9144 15.5739 18.237 14.4267 18.3912C13.3071 18.5417 11.8733 18.5417 10.0477 18.5417H9.95237C8.12679 18.5417 6.69287 18.5417 5.57336 18.3912C4.42615 18.237 3.51594 17.9144 2.80077 17.1993C2.08561 16.4841 1.76308 15.5739 1.60884 14.4267C1.45832 13.3072 1.45833 11.8733 1.45834 10.0477V9.95239C1.45833 8.12681 1.45832 6.69291 1.60884 5.57339C1.76308 4.42618 2.08561 3.51597 2.80077 2.8008C3.51594 2.08564 4.42615 1.76311 5.57336 1.60887C6.69287 1.45836 8.12676 1.45836 9.95234 1.45837H10.0477ZM5.73992 2.84772C4.73132 2.98333 4.12886 3.24048 3.68465 3.68469C3.24045 4.12889 2.9833 4.73135 2.84769 5.73995C2.70967 6.76654 2.70834 8.11639 2.70834 10C2.70834 11.8837 2.70967 13.2335 2.84769 14.2601C2.9833 15.2687 3.24045 15.8712 3.68465 16.3154C4.12886 16.7596 4.73132 17.0168 5.73992 17.1524C6.76651 17.2904 8.11637 17.2917 10 17.2917C11.8837 17.2917 13.2335 17.2904 14.2601 17.1524C15.2687 17.0168 15.8712 16.7596 16.3154 16.3154C16.7596 15.8712 17.0167 15.2687 17.1523 14.2601C17.2904 13.2335 17.2917 11.8837 17.2917 10C17.2917 8.11639 17.2904 6.76654 17.1523 5.73995C17.0167 4.73135 16.7596 4.12889 16.3154 3.68469C15.8712 3.24048 15.2687 2.98333 14.2601 2.84772C13.2335 2.7097 11.8837 2.70837 10 2.70837C8.11637 2.70837 6.76651 2.7097 5.73992 2.84772Z" fill="#161616"/>
</svg>
