<svg width="20" height="20" viewBox="0 0 20 20" fill="none" xmlns="http://www.w3.org/2000/svg">
<path fill-rule="evenodd" clip-rule="evenodd" d="M1.04166 3.54169C1.04166 2.16098 2.16094 1.04169 3.54166 1.04169C4.92237 1.04169 6.04166 2.16098 6.04166 3.54169C6.04166 4.9224 4.92237 6.04169 3.54166 6.04169C2.16094 6.04169 1.04166 4.9224 1.04166 3.54169ZM3.54166 2.29169C2.8513 2.29169 2.29166 2.85133 2.29166 3.54169C2.29166 4.23204 2.8513 4.79169 3.54166 4.79169C4.23201 4.79169 4.79166 4.23204 4.79166 3.54169C4.79166 2.85133 4.23201 2.29169 3.54166 2.29169Z" fill="#161616"/>
<path fill-rule="evenodd" clip-rule="evenodd" d="M3.29604 7.29169H3.78729C4.14797 7.29165 4.47866 7.29161 4.74767 7.32778C5.0439 7.3676 5.35701 7.46131 5.61453 7.71883C5.87205 7.97635 5.96575 8.28945 6.00558 8.58569C6.04175 8.85469 6.04171 9.18539 6.04167 9.54606L6.04167 16.704C6.04171 17.0647 6.04175 17.3954 6.00558 17.6644C5.96575 17.9606 5.87205 18.2737 5.61453 18.5312C5.35701 18.7887 5.0439 18.8824 4.74767 18.9223C4.47866 18.9584 4.14796 18.9584 3.78728 18.9584H3.29604C2.93536 18.9584 2.60467 18.9584 2.33566 18.9223C2.03942 18.8824 1.72632 18.7887 1.4688 18.5312C1.21128 18.2737 1.11757 17.9606 1.07775 17.6644C1.04158 17.3954 1.04162 17.0647 1.04166 16.704L1.04166 9.54607C1.04162 9.18539 1.04158 8.8547 1.07775 8.58569C1.11757 8.28945 1.21128 7.97635 1.4688 7.71883C1.72632 7.46131 2.03942 7.3676 2.33566 7.32778C2.60467 7.29161 2.93536 7.29165 3.29604 7.29169ZM2.35269 8.60272L2.35472 8.60158C2.35633 8.60074 2.3591 8.59939 2.3633 8.59766C2.38145 8.59019 2.42175 8.57745 2.50222 8.56663C2.67782 8.54302 2.92282 8.54169 3.33333 8.54169H3.75C4.1605 8.54169 4.40551 8.54302 4.58111 8.56663C4.66157 8.57745 4.70188 8.59019 4.72003 8.59766C4.72423 8.59939 4.72699 8.60074 4.7286 8.60158L4.73063 8.60272L4.73178 8.60475C4.73262 8.60636 4.73397 8.60913 4.7357 8.61333C4.74316 8.63148 4.75591 8.67178 4.76673 8.75225C4.79034 8.92785 4.79166 9.17285 4.79166 9.58336L4.79166 16.6667C4.79166 17.0772 4.79034 17.3222 4.76673 17.4978C4.75591 17.5783 4.74316 17.6186 4.7357 17.6367C4.73397 17.6409 4.73262 17.6437 4.73178 17.6453L4.73063 17.6473L4.7286 17.6485C4.72699 17.6493 4.72423 17.6507 4.72003 17.6524C4.70188 17.6599 4.66157 17.6726 4.58111 17.6834C4.40551 17.707 4.1605 17.7084 3.75 17.7084H3.33333C2.92282 17.7084 2.67782 17.707 2.50222 17.6834C2.42175 17.6726 2.38145 17.6599 2.3633 17.6524C2.3591 17.6507 2.35633 17.6493 2.35472 17.6485L2.35269 17.6473L2.35155 17.6453C2.3507 17.6437 2.34936 17.6409 2.34763 17.6367C2.34016 17.6186 2.32742 17.5783 2.3166 17.4978C2.29299 17.3222 2.29166 17.0772 2.29166 16.6667L2.29166 9.58336C2.29166 9.17285 2.29299 8.92785 2.3166 8.75225C2.32742 8.67178 2.34016 8.63148 2.34763 8.61333C2.34936 8.60913 2.3507 8.60636 2.35155 8.60475L2.35269 8.60272Z" fill="#161616"/>
<path fill-rule="evenodd" clip-rule="evenodd" d="M9.54604 7.29169C9.78736 7.29167 10.7592 7.29165 10.9437 7.30856C11.1432 7.32683 11.3605 7.36884 11.5698 7.49129C11.7858 7.61768 11.9657 7.79754 12.0921 8.01356L12.1021 8.03097C12.7602 7.56627 13.5546 7.29189 14.414 7.29189C16.66 7.29189 18.9584 9.20374 18.9584 11.6669L18.9573 16.288C18.9572 16.6486 18.9572 16.9792 18.921 17.2481C18.8811 17.5443 18.7873 17.8573 18.5298 18.1148C18.2723 18.3722 17.9593 18.4659 17.6631 18.5057C17.3941 18.5419 17.0635 18.5418 16.7029 18.5418H16.2127C15.852 18.5418 15.5213 18.5419 15.2523 18.5057C14.9561 18.4659 14.643 18.3722 14.3854 18.1147C14.1279 17.8571 14.0342 17.544 13.9944 17.2478C13.9582 16.9788 13.9583 16.6481 13.9583 16.2874L13.9583 12.5001C13.9583 12.1189 13.6763 11.8751 13.4066 11.8751C12.9755 11.8751 12.7439 12.0404 12.5846 12.3048C12.3974 12.6157 12.2917 13.1074 12.2917 13.7501L12.2917 16.704C12.2917 17.0647 12.2918 17.3954 12.2556 17.6644C12.2158 17.9606 12.122 18.2737 11.8645 18.5312C11.607 18.7887 11.2939 18.8825 10.9977 18.9223C10.7287 18.9584 10.398 18.9584 10.0373 18.9584H9.54602C9.18535 18.9584 8.85466 18.9584 8.58566 18.9223C8.28942 18.8824 7.97632 18.7887 7.7188 18.5312C7.46128 18.2737 7.36757 17.9606 7.32775 17.6644C7.29158 17.3954 7.29162 17.0647 7.29166 16.704L7.29166 9.54607C7.29162 9.18539 7.29158 8.8547 7.32775 8.58569C7.36757 8.28945 7.46128 7.97635 7.7188 7.71883C7.97632 7.46131 8.28942 7.3676 8.58566 7.32778C8.85467 7.29161 9.18536 7.29165 9.54604 7.29169ZM9.58332 8.54169C9.17282 8.54169 8.92781 8.54301 8.75221 8.56662C8.69583 8.56443 8.57976 8.59848 8.56659 8.75224C8.54298 8.92784 8.54166 9.17285 8.54166 9.58335L8.54166 16.6667C8.54166 17.0772 8.54298 17.3222 8.56659 17.4978C8.57665 17.5994 8.69453 17.6639 8.75221 17.6834C8.92781 17.707 9.17282 17.7084 9.58332 17.7084H10C10.4105 17.7084 10.6555 17.707 10.8311 17.6834C10.8885 17.6689 11.0059 17.6115 11.0167 17.4978C11.0403 17.3222 11.0417 17.0772 11.0417 16.6667L11.0417 13.7501C11.0417 13.0121 11.1561 12.2539 11.5138 11.6599C11.8995 11.0195 12.5378 10.6251 13.4065 10.6251C14.4366 10.6251 15.2083 11.5007 15.2083 12.5001V16.2501C15.2083 16.6606 15.2096 16.9056 15.2332 17.0812C15.2332 17.2129 15.3128 17.235 15.375 17.2523C15.3914 17.2568 15.4066 17.261 15.4188 17.2668C15.5944 17.2905 15.8395 17.2918 16.25 17.2918L16.6656 17.2918C17.076 17.2918 17.321 17.2905 17.4965 17.2669C17.5543 17.2454 17.6724 17.1783 17.6821 17.0813C17.7058 16.9057 17.7072 16.6608 17.7073 16.2504L17.7084 11.6667C17.7083 9.98782 16.0673 8.54189 14.414 8.54189C13.516 8.54189 12.7036 8.98091 12.1641 9.69005C12.0017 9.90353 11.7212 9.98958 11.467 9.9039C11.2129 9.81821 11.0417 9.5799 11.0417 9.31167C11.0417 9.03753 11.0411 8.87417 11.03 8.75368C11.0232 8.62764 10.8936 8.5676 10.8297 8.55334C10.7092 8.5423 10.5458 8.54169 10.2717 8.54169L9.58332 8.54169Z" fill="#161616"/>
</svg>
