<svg width="20" height="22" viewBox="0 0 20 22" fill="none" xmlns="http://www.w3.org/2000/svg">
<path fill-rule="evenodd" clip-rule="evenodd" d="M10.0002 5.75C7.65303 5.75 5.75024 7.65279 5.75024 10C5.75024 12.3472 7.65303 14.25 10.0002 14.25C12.3475 14.25 14.2502 12.3472 14.2502 10C14.2502 7.65279 12.3475 5.75 10.0002 5.75ZM7.25024 10C7.25024 8.48122 8.48146 7.25 10.0002 7.25C11.519 7.25 12.7502 8.48122 12.7502 10C12.7502 11.5188 11.519 12.75 10.0002 12.75C8.48146 12.75 7.25024 11.5188 7.25024 10Z" fill="#384250"/>
<path fill-rule="evenodd" clip-rule="evenodd" d="M10.0013 0.25C6.17513 0.25 2.5248 2.51303 0.996891 6.08468C-0.425064 9.40865 0.344719 12.2373 1.94747 14.6595C3.26153 16.6454 5.1781 18.4178 6.90718 20.0168C7.23685 20.3217 7.55985 20.6204 7.87041 20.9129L7.87207 20.9145C8.44709 21.4528 9.21091 21.75 10.0013 21.75C10.7917 21.75 11.5555 21.4528 12.1305 20.9145C12.424 20.6396 12.7283 20.3592 13.0387 20.0732C14.7866 18.4628 16.7302 16.672 18.058 14.6609C19.6588 12.2362 20.4259 9.40453 19.0057 6.08468C17.4778 2.51303 13.8275 0.25 10.0013 0.25ZM2.376 6.67465C3.65482 3.68528 6.74191 1.75 10.0013 1.75C13.2607 1.75 16.3478 3.68528 17.6266 6.67465C18.7986 9.4144 18.2072 11.7124 16.8062 13.8344C15.5886 15.6786 13.8051 17.3242 12.0519 18.9418C11.7342 19.235 11.4175 19.5272 11.1053 19.8195C10.813 20.0932 10.4175 20.25 10.0013 20.25C9.58545 20.25 9.19021 20.0934 8.89792 19.8201C8.56547 19.5069 8.22778 19.1942 7.88915 18.8806C6.15828 17.2778 4.40299 15.6523 3.19841 13.8318C1.79604 11.7124 1.20245 9.41794 2.376 6.67465Z" fill="#384250"/>
</svg>
