<svg width="64" height="44" viewBox="0 0 64 44" fill="none" xmlns="http://www.w3.org/2000/svg">
<path d="M1.47957 6.51072C1.47957 3.2146 4.15161 0.542561 7.44774 0.542561H57.3633C60.6595 0.542561 63.3315 3.2146 63.3315 6.51073V36.8941C63.3315 40.1903 60.6595 42.8623 57.3633 42.8623H7.44775C4.15162 42.8623 1.47957 40.1903 1.47957 36.8941V6.51072Z" fill="white"/>
<path d="M1.47957 6.51072C1.47957 3.2146 4.15161 0.542561 7.44774 0.542561H57.3633C60.6595 0.542561 63.3315 3.2146 63.3315 6.51073V36.8941C63.3315 40.1903 60.6595 42.8623 57.3633 42.8623H7.44775C4.15162 42.8623 1.47957 40.1903 1.47957 36.8941V6.51072Z" stroke="#D2D6DB" stroke-width="1.08512"/>
<path d="M28.8141 23.2615H7.448V30.3793H28.8141V23.2615Z" fill="#84B740"/>
<path d="M28.8142 13.5491H7.44812V20.6732H28.8142V13.5491Z" fill="#259BD6"/>
<path d="M50.1802 28.9328L50.085 28.9519C49.7551 29.0153 49.6346 29.0407 49.3935 29.0407C48.8353 29.0407 48.1755 28.7552 48.1755 27.4103C48.1755 26.7188 48.2897 25.799 49.3301 25.799H49.3364C49.5141 25.8117 49.7171 25.8307 50.0977 25.9449L50.1802 25.9702V28.9328ZM50.3515 22.2274L50.1802 22.2591V24.7459L50.0279 24.7015L49.9835 24.6888C49.8122 24.638 49.4189 24.5239 49.0383 24.5239C46.9575 24.5239 46.5198 26.0971 46.5198 27.4166C46.5198 29.2246 47.5348 30.265 49.3047 30.265C50.0533 30.265 50.6052 30.1889 51.1635 30.0049C51.6773 29.84 51.8613 29.6053 51.8613 29.1041V21.9673C51.3665 22.0561 50.8526 22.1449 50.3515 22.2274Z" fill="#27292D"/>
<path d="M56.3653 28.9773L56.2765 29.0027L55.9593 29.0851C55.6612 29.1613 55.3947 29.2057 55.1917 29.2057C54.7033 29.2057 54.4114 28.9646 54.4114 28.5522C54.4114 28.2858 54.532 27.8354 55.3313 27.8354H56.3653V28.9773ZM55.6358 24.4922C54.9951 24.4922 54.3353 24.6064 53.517 24.8601L52.9841 25.0187L53.1617 26.2241L53.6819 26.0528C54.2275 25.8751 54.9063 25.761 55.4138 25.761C55.6421 25.761 56.34 25.761 56.34 26.5159V26.8458H55.3694C53.5994 26.8458 52.7811 27.4104 52.7811 28.622C52.7811 29.6561 53.536 30.2778 54.8048 30.2778C55.1981 30.2778 55.7436 30.2016 56.2131 30.0875L56.2385 30.0811L56.2638 30.0875L56.4224 30.1128C56.9172 30.2016 57.4311 30.2905 57.9323 30.3856V26.4271C57.9323 25.1456 57.1583 24.4922 55.6358 24.4922Z" fill="#27292D"/>
<path d="M44.0389 28.9773L43.95 29.0027L43.6329 29.0851C43.3347 29.1613 43.0746 29.2057 42.8652 29.2057C42.3768 29.2057 42.085 28.9646 42.085 28.5522C42.085 28.2858 42.2055 27.8354 42.9985 27.8354H44.0325V28.9773H44.0389ZM43.3157 24.4922C42.6686 24.4922 42.0152 24.6064 41.1968 24.8601L40.6639 25.0187L40.8416 26.2241L41.3618 26.0528C41.9073 25.8751 42.5861 25.761 43.0936 25.761C43.322 25.761 44.0198 25.761 44.0198 26.5159V26.8458H43.0492C41.2793 26.8458 40.4546 27.4104 40.4546 28.622C40.4546 29.6561 41.2095 30.2778 42.4846 30.2778C42.8779 30.2778 43.4235 30.2016 43.8929 30.0875L43.9183 30.0811L43.9437 30.0875L44.096 30.1128C44.5971 30.2016 45.1046 30.2905 45.6058 30.392V26.4334C45.6121 25.1393 44.8382 24.4922 43.3157 24.4922Z" fill="#27292D"/>
<path d="M37.3593 24.5049C36.5537 24.5049 35.8876 24.7713 35.6402 24.8855L35.5767 24.9172L35.5196 24.8728C35.1771 24.6254 34.6759 24.4985 33.9781 24.4985C33.3627 24.4985 32.7854 24.5873 32.1574 24.7713C31.6182 24.9363 31.4088 25.1964 31.4088 25.6848V30.208H33.0963V26.0274L33.1787 26.002C33.5213 25.8878 33.7243 25.8688 33.921 25.8688C34.4095 25.8688 34.6569 26.1289 34.6569 26.6364V30.2143H36.3189V26.5666C36.3189 26.3509 36.2745 26.2241 36.2682 26.1987L36.2111 26.0908L36.3253 26.0401C36.579 25.9259 36.8582 25.8688 37.15 25.8688C37.4862 25.8688 37.8859 26.002 37.8859 26.6364V30.2143H39.5416V26.4715C39.5416 25.1456 38.8311 24.5049 37.3593 24.5049Z" fill="#27292D"/>
<path d="M55.1217 18.1928C54.8743 18.1928 54.462 18.1674 54.1384 18.104L54.0433 18.0849V15.6425C54.0433 15.4395 54.0052 15.3127 53.9989 15.2936L53.9481 15.1921L54.056 15.1477C54.0813 15.135 54.1067 15.1287 54.1384 15.116L54.1575 15.1033C54.1955 15.0906 54.2336 15.0779 54.2717 15.0653C54.2907 15.0589 54.3034 15.0526 54.3161 15.0526C54.6903 14.9511 55.0329 14.9637 55.1852 14.9511H55.1915C56.2256 14.9511 56.3461 15.8709 56.3461 16.5624C56.3397 17.9073 55.6736 18.1928 55.1217 18.1928ZM55.1154 13.5491C55.1027 13.5491 55.0837 13.5491 55.071 13.5491C54.1004 13.5491 53.1044 13.8155 52.7491 14.3357C52.5588 14.5895 52.451 14.9067 52.4446 15.2809V17.7994C52.4446 18.0151 52.4002 18.0976 52.3939 18.1166L52.3368 18.2245H49.2727V16.4736H49.2664C49.2283 14.6275 48.1372 13.6125 46.5575 13.6125H46.3736H45.016C44.9525 14.0629 44.9018 14.3801 44.8384 14.8305H46.3736C47.1792 14.8305 47.6043 15.5157 47.6043 16.5687V18.3323L47.4964 18.2752C47.4774 18.2689 47.3442 18.2245 47.1348 18.2245H44.4831C44.4324 18.5607 44.3689 18.9984 44.2991 19.4362H52.451C52.7301 19.3791 53.0536 19.3283 53.3328 19.2839C53.7451 19.4869 54.5127 19.5948 55.0393 19.5948C56.8092 19.5948 57.9574 18.4085 57.9574 16.5814C57.9511 14.7734 56.8409 13.5871 55.1154 13.5491Z" fill="#27292D"/>
<path d="M40.8231 20.1783H40.8992C42.6691 20.1783 43.4938 19.5947 43.4938 18.1546C43.4938 17.1206 42.7389 16.2959 41.4701 16.2959H39.8398C39.3513 16.2959 39.0595 16.0167 39.0595 15.5473C39.0595 15.2301 39.18 14.8368 39.9793 14.8368H43.5446C43.6207 14.3737 43.6588 14.0819 43.7286 13.6188H40.0238C38.2982 13.6188 37.4291 14.342 37.4291 15.5473C37.4291 16.7399 38.184 17.3616 39.4528 17.3616H41.0832C41.5716 17.3616 41.8635 17.7486 41.8635 18.1546C41.8635 18.4211 41.7429 18.973 40.95 18.973H40.6772L35.4562 18.9603H34.5046C33.6989 18.9603 33.1343 18.5035 33.1343 17.4441V16.7146C33.1343 15.6107 33.5721 14.9256 34.5046 14.9256H36.0525C36.1223 14.4562 36.1667 14.158 36.2301 13.7139H34.3016H34.1176C32.538 13.7139 31.4469 14.7734 31.4088 16.6194V16.6892V17.4441C31.4469 19.2902 32.538 20.172 34.1176 20.172H34.3016H35.6592L38.4885 20.1783H40.176H40.8231Z" fill="#27292D"/>
</svg>
