<svg width="22" height="23" viewBox="0 0 22 23" fill="none" xmlns="http://www.w3.org/2000/svg">
<path fill-rule="evenodd" clip-rule="evenodd" d="M4.31677 0.691109C4.88346 0.808233 5.33476 1.18897 5.61515 1.692L6.50836 3.29444C6.83737 3.88465 7.11424 4.38134 7.29505 4.81311C7.48686 5.27112 7.60078 5.72278 7.5487 6.22214C7.49663 6.72151 7.29197 7.13994 7.0098 7.54853C6.74379 7.93371 6.3704 8.36258 5.92669 8.87221L3.69884 11.4312C5.46568 14.3272 8.07461 16.9373 10.9736 18.706L13.5326 16.4781C14.0422 16.0344 14.4711 15.661 14.8563 15.395C15.2649 15.1128 15.6833 14.9082 16.1827 14.8561C16.682 14.804 17.1337 14.9179 17.5917 15.1098C18.0235 15.2906 18.5202 15.5674 19.1104 15.8965L20.7128 16.7897C21.2158 17.07 21.5966 17.5213 21.7137 18.088C21.832 18.6606 21.6575 19.2362 21.2719 19.7092C19.873 21.4256 17.6317 22.5184 15.2805 22.0441C13.8353 21.7526 12.4093 21.2669 10.6846 20.2777C7.21921 18.2904 4.11214 15.1816 2.12706 11.7202C1.13795 9.99553 0.652231 8.56954 0.360688 7.12428C-0.113608 4.77306 0.979227 2.53178 2.69559 1.13287C3.16862 0.747333 3.74417 0.572761 4.31677 0.691109ZM12.3707 19.4784C13.5371 20.0532 14.5516 20.3668 15.5771 20.5737C17.2732 20.9159 18.9854 20.1403 20.1092 18.7615C20.2568 18.5805 20.2577 18.4541 20.2447 18.3916C20.2306 18.3232 20.1733 18.2062 19.9825 18.0999L18.416 17.2267C17.7803 16.8724 17.3572 16.6378 17.0123 16.4933C16.6849 16.3562 16.4971 16.3315 16.3382 16.348C16.1794 16.3646 16.0007 16.4276 15.7087 16.6293C15.401 16.8417 15.0354 17.1586 14.4865 17.6365L12.3707 19.4784ZM2.92636 10.0341L4.76835 7.91831C5.24618 7.36944 5.56306 7.00379 5.77553 6.69613C5.97721 6.4041 6.04023 6.2254 6.05679 6.06656C6.07336 5.90773 6.04857 5.71987 5.91148 5.39251C5.76705 5.04764 5.53243 4.62447 5.17812 3.98883L4.30494 2.42232C4.19856 2.23147 4.08158 2.1742 4.01317 2.16006C3.95066 2.14714 3.82429 2.14805 3.64326 2.2956C2.26448 3.41936 1.48894 5.13162 1.83107 6.82767C2.03795 7.85325 2.35164 8.86773 2.92636 10.0341Z" fill="#1B8354"/>
</svg>
