<svg width="38" height="35" viewBox="0 0 38 35" fill="none" xmlns="http://www.w3.org/2000/svg">
<path d="M14.208 33.6905L0 33.9465V19.7385C0 17.1785 0.256001 14.7465 0.768001 12.4425C1.28 10.1385 2.176 8.0905 3.328 6.4265C4.48 4.7625 5.888 3.3545 7.68 2.3305C9.472 1.3065 11.648 0.794495 14.08 0.794495V7.1945C12.672 7.1945 11.52 7.5785 10.624 8.3465C9.728 9.1145 8.96 10.0105 8.32 11.1625C7.68 12.3145 7.296 13.5945 7.04 15.1305C6.784 16.6665 6.656 18.0745 6.656 19.4825H14.208V33.6905ZM37.632 33.9465L23.424 34.2025V19.9945C23.424 17.4345 23.68 15.0025 24.192 12.6985C24.704 10.3945 25.6 8.3465 26.752 6.6825C27.904 5.0185 29.312 3.6105 31.104 2.58649C32.896 1.5625 35.072 1.0505 37.504 1.0505V7.4505C36.096 7.4505 34.944 7.8345 34.048 8.6025C33.152 9.3705 32.384 10.2665 31.744 11.4185C31.104 12.5705 30.72 13.8505 30.464 15.3865C30.208 16.9225 30.08 18.3305 30.08 19.7385H37.632V33.9465Z" fill="#290C51"/>
</svg>
