<svg width="63" height="44" viewBox="0 0 63 44" fill="none" xmlns="http://www.w3.org/2000/svg">
<path d="M0.542561 6.51072C0.542561 3.2146 3.2146 0.542561 6.51073 0.542561H56.4263C59.7224 0.542561 62.3945 3.2146 62.3945 6.51073V36.8941C62.3945 40.1903 59.7225 42.8623 56.4263 42.8623H6.51074C3.21461 42.8623 0.542561 40.1903 0.542561 36.8941V6.51072Z" fill="white"/>
<path d="M0.542561 6.51072C0.542561 3.2146 3.2146 0.542561 6.51073 0.542561H56.4263C59.7224 0.542561 62.3945 3.2146 62.3945 6.51073V36.8941C62.3945 40.1903 59.7225 42.8623 56.4263 42.8623H6.51074C3.21461 42.8623 0.542561 40.1903 0.542561 36.8941V6.51072Z" stroke="#D2D6DB" stroke-width="1.08512"/>
<path d="M38.6218 25.3399V17.9445H39.876V18.5375C40.2577 18.0604 40.8234 17.8014 41.5254 17.8014C42.9704 17.8014 44.0064 18.9533 44.0064 20.6028C44.0064 22.2522 42.9636 23.4246 41.5254 23.4246C40.8166 23.4246 40.2577 23.1519 39.876 22.6748V25.3399H38.6218ZM39.876 19.9212V21.2844C40.1418 21.8364 40.6189 22.2386 41.3073 22.2386C42.1389 22.2386 42.6978 21.6183 42.6978 20.5959C42.6978 19.5872 42.1389 18.9737 41.3073 18.9737C40.6189 18.9806 40.1418 19.3554 39.876 19.9212Z" fill="#02AA7C"/>
<path d="M44.8176 21.7479C44.8176 20.8482 45.3765 20.2211 46.3035 20.1052L48.4369 19.8326V19.5668C48.4369 19.2464 48.2733 19.076 47.9734 19.076H45.2947V17.9377H48.0211C49.1049 17.9377 49.6979 18.4694 49.6979 19.41V23.261H48.4301V22.6135C48.062 23.1315 47.4554 23.4246 46.6716 23.4246C45.5674 23.4246 44.8176 22.7498 44.8176 21.7479ZM46.9783 22.4022C47.619 22.4022 48.212 22.041 48.4301 21.5093V20.8413L46.8011 21.0663C46.3512 21.1276 46.099 21.3662 46.099 21.7547C46.099 22.1705 46.4194 22.4022 46.9783 22.4022Z" fill="#02AA7C"/>
<path d="M50.6112 24.2016H51.5246C51.8722 24.2016 52.029 24.0585 52.1448 23.7313L52.3084 23.261L50.3727 17.9377H51.6813L52.8878 21.6456H52.915L54.0669 17.9377H55.3552L53.2354 24.0517C52.9491 24.89 52.5674 25.3399 51.6336 25.3399H50.6112V24.2016Z" fill="#02AA7C"/>
<path d="M12.3395 29C13.7982 29 14.9978 28.5433 15.7884 27.7799C16.3814 27.1938 16.729 26.4031 16.729 25.4898C16.729 24.665 16.4223 23.9221 15.8566 23.3564C15.2909 22.7907 14.4798 22.3749 13.4574 22.1772L11.7806 21.85C11.0854 21.7205 10.6901 21.3729 10.6901 20.889C10.6901 20.2551 11.3035 19.8189 12.285 19.8189C12.8985 19.8189 13.4233 20.0166 13.7709 20.3642C13.989 20.6027 14.139 20.9094 14.1867 21.2571L16.6063 20.7118C16.5382 20.0166 16.211 19.4031 15.7135 18.8987C14.916 18.1149 13.6959 17.6173 12.2578 17.6173C10.9286 17.6173 9.81764 18.0536 9.04744 18.7488C8.3931 19.3622 8.02504 20.187 8.02504 21.1071C8.02504 21.9114 8.28405 22.593 8.80888 23.111C9.33371 23.6358 10.0971 24.0243 11.099 24.2697L12.7553 24.665C13.5869 24.8627 13.9549 25.1694 13.9549 25.7147C13.9549 26.3895 13.3415 26.7848 12.3395 26.7848C11.6171 26.7848 11.0309 26.5463 10.6628 26.1509C10.4038 25.8919 10.247 25.5375 10.2266 25.149L7.73877 25.6943C7.80693 26.4372 8.15454 27.0915 8.67937 27.6164C9.50411 28.482 10.84 29 12.3395 29ZM30.7563 29C32.3717 29 33.6122 28.4138 34.4642 27.5823C35.139 26.9279 35.5547 26.1646 35.7728 25.3807L33.2237 24.5287C33.1146 24.924 32.8965 25.3398 32.5489 25.6602C32.1331 26.0555 31.5674 26.335 30.7563 26.335C30.0134 26.335 29.3181 26.0487 28.8137 25.5511C28.3094 25.0263 28.0026 24.2629 28.0026 23.3018C28.0026 22.3203 28.3094 21.5774 28.8137 21.0526C29.3113 20.5482 29.9929 20.2892 30.7358 20.2892C31.5197 20.2892 32.065 20.5482 32.4603 20.9435C32.7875 21.2707 32.9851 21.6865 33.1146 22.1022L35.7115 21.2298C35.5138 20.4664 35.0981 19.703 34.4914 19.0691C33.619 18.2171 32.3512 17.6105 30.6745 17.6105C29.1273 17.6105 27.73 18.1967 26.7281 19.2055C25.7261 20.2278 25.1127 21.6524 25.1127 23.3087C25.1127 24.9649 25.7466 26.3827 26.769 27.4119C27.7641 28.4138 29.1818 29 30.7563 29ZM21.9432 29C23.0747 29 23.8858 28.6524 24.2334 28.3457V25.9873C23.9676 26.185 23.4496 26.4236 22.768 26.4236C22.284 26.4236 21.9364 26.3145 21.6774 26.0759C21.4593 25.8578 21.3503 25.483 21.3503 24.9854V15H18.4671V17.9445H24.2266V20.739H18.4671V25.6943C18.4671 26.6962 18.7738 27.5073 19.3191 28.073C19.9325 28.6728 20.8322 29 21.9432 29Z" fill="#502C84"/>
</svg>
