<svg width="120" height="41" viewBox="0 0 120 41" fill="none" xmlns="http://www.w3.org/2000/svg">
<rect x="0.5" y="0.904785" width="119" height="39" rx="5.5" fill="black"/>
<rect x="0.5" y="0.904785" width="119" height="39" rx="5.5" stroke="#A6A6A6"/>
<path d="M24.7045 21.1679C24.7166 20.248 24.9669 19.346 25.4321 18.5459C25.8972 17.7458 26.5621 17.0736 27.3648 16.5918C26.8548 15.8807 26.1821 15.2956 25.4 14.8828C24.6178 14.47 23.7479 14.2409 22.8592 14.2137C20.9635 14.0195 19.1258 15.3212 18.1598 15.3212C17.1751 15.3212 15.6878 14.233 14.0862 14.2652C13.0502 14.2979 12.0406 14.592 11.1557 15.1189C10.2708 15.6457 9.54075 16.3874 9.03674 17.2717C6.85352 20.9621 8.48201 26.3857 10.5734 29.3688C11.6197 30.8295 12.8426 32.4611 14.4428 32.4033C16.0086 32.3399 16.5934 31.4284 18.4835 31.4284C20.3561 31.4284 20.9048 32.4033 22.5374 32.3665C24.2176 32.3399 25.2762 30.8993 26.2859 29.4247C27.0377 28.3839 27.6162 27.2336 28 26.0164C27.0238 25.6133 26.1908 24.9386 25.6048 24.0764C25.0187 23.2142 24.7056 22.2027 24.7045 21.1679Z" fill="white"/>
<path d="M21.6208 12.2519C22.5369 11.1782 22.9883 9.79814 22.879 8.40479C21.4793 8.5483 20.1865 9.20138 19.258 10.2339C18.804 10.7383 18.4563 11.3251 18.2348 11.9608C18.0132 12.5965 17.9222 13.2685 17.9669 13.9386C18.6669 13.9456 19.3595 13.7975 19.9924 13.5053C20.6253 13.2132 21.1821 12.7846 21.6208 12.2519Z" fill="white"/>
<path d="M36.791 8.90625H38.8608C40.6494 8.90625 41.5195 9.96973 41.5195 11.8989C41.5195 13.8281 40.6406 14.9048 38.8608 14.9048H36.791V8.90625ZM37.7886 9.74561V14.0654H38.751C39.9375 14.0654 40.4956 13.3491 40.4956 11.9121C40.4956 10.4663 39.9331 9.74561 38.751 9.74561H37.7886ZM44.6748 10.1807C45.8877 10.1807 46.7358 10.9673 46.7358 12.2725V12.8745C46.7358 14.2236 45.8877 14.9839 44.6748 14.9839C43.4443 14.9839 42.605 14.2324 42.605 12.8789V12.2769C42.605 11.0068 43.4575 10.1807 44.6748 10.1807ZM44.6792 10.9673C43.9849 10.9673 43.5894 11.5474 43.5894 12.3252V12.8438C43.5894 13.6216 43.9585 14.1973 44.6792 14.1973C45.3911 14.1973 45.7559 13.626 45.7559 12.8438V12.3252C45.7559 11.5474 45.3735 10.9673 44.6792 10.9673ZM53.8989 10.2598L52.6772 14.9048H51.6841L50.7129 11.4771H50.6865L49.7329 14.9048H48.7354L47.4609 10.2598H48.5112L49.2583 13.8018H49.3022L50.2383 10.2598H51.1567L52.1191 13.8018H52.1631L52.9233 10.2598H53.8989ZM54.8657 14.9048V10.2598H55.8237V11.0947H55.8721C55.9907 10.73 56.3291 10.1895 57.2695 10.1895C58.2056 10.1895 58.834 10.708 58.834 11.7671V14.9048H57.8584V12.0527C57.8584 11.3452 57.4893 11.02 56.9399 11.02C56.2192 11.02 55.8413 11.5737 55.8413 12.3252V14.9048H54.8657ZM60.3105 14.9048V8.58984H61.2861V14.9048H60.3105ZM64.6348 10.1807C65.8477 10.1807 66.6958 10.9673 66.6958 12.2725V12.8745C66.6958 14.2236 65.8477 14.9839 64.6348 14.9839C63.4043 14.9839 62.5649 14.2324 62.5649 12.8789V12.2769C62.5649 11.0068 63.4175 10.1807 64.6348 10.1807ZM64.6392 10.9673C63.9448 10.9673 63.5493 11.5474 63.5493 12.3252V12.8438C63.5493 13.6216 63.9185 14.1973 64.6392 14.1973C65.3511 14.1973 65.7158 13.626 65.7158 12.8438V12.3252C65.7158 11.5474 65.3335 10.9673 64.6392 10.9673ZM69.2227 14.9751C68.3218 14.9751 67.7021 14.4214 67.7021 13.5557C67.7021 12.7339 68.2734 12.1802 69.3457 12.1802H70.519V11.7451C70.519 11.2134 70.1807 10.9629 69.6445 10.9629C69.1172 10.9629 68.8799 11.1826 68.8052 11.4902H67.8779C67.9351 10.7124 68.5195 10.1895 69.6753 10.1895C70.6685 10.1895 71.4902 10.6025 71.4902 11.7583V14.9048H70.563V14.3027H70.519C70.3125 14.6587 69.9082 14.9751 69.2227 14.9751ZM69.5259 14.2192C70.0796 14.2192 70.519 13.8413 70.519 13.3359V12.835H69.4995C68.9326 12.835 68.6821 13.1206 68.6821 13.5073C68.6821 13.9907 69.0864 14.2192 69.5259 14.2192ZM74.4961 10.1982C75.1509 10.1982 75.6519 10.4883 75.832 10.9585H75.8804V8.58984H76.856V14.9048H75.9067V14.1621H75.8584C75.7178 14.6323 75.1597 14.9663 74.4829 14.9663C73.415 14.9663 72.7207 14.2061 72.7207 12.98V12.1846C72.7207 10.9585 73.4282 10.1982 74.4961 10.1982ZM74.7686 10.998C74.1182 10.998 73.7139 11.4814 73.7139 12.3252V12.835C73.7139 13.6831 74.1226 14.1665 74.7905 14.1665C75.4497 14.1665 75.8804 13.6875 75.8804 12.8965V12.1934C75.8804 11.4771 75.4102 10.998 74.7686 10.998ZM82.2129 10.1807C83.4258 10.1807 84.2739 10.9673 84.2739 12.2725V12.8745C84.2739 14.2236 83.4258 14.9839 82.2129 14.9839C80.9824 14.9839 80.1431 14.2324 80.1431 12.8789V12.2769C80.1431 11.0068 80.9956 10.1807 82.2129 10.1807ZM82.2173 10.9673C81.5229 10.9673 81.1274 11.5474 81.1274 12.3252V12.8438C81.1274 13.6216 81.4966 14.1973 82.2173 14.1973C82.9292 14.1973 83.2939 13.626 83.2939 12.8438V12.3252C83.2939 11.5474 82.9116 10.9673 82.2173 10.9673ZM85.5308 14.9048V10.2598H86.4888V11.0947H86.5371C86.6558 10.73 86.9941 10.1895 87.9346 10.1895C88.8706 10.1895 89.499 10.708 89.499 11.7671V14.9048H88.5234V12.0527C88.5234 11.3452 88.1543 11.02 87.605 11.02C86.8843 11.02 86.5063 11.5737 86.5063 12.3252V14.9048H85.5308ZM93.2739 10.2905V9.13037H94.2275V10.2905H95.269V11.0552H94.2275V13.5205C94.2275 14.0259 94.4165 14.1665 94.9395 14.1665C95.0713 14.1665 95.2471 14.1577 95.3218 14.1489V14.896C95.2427 14.9092 94.9175 14.9355 94.6978 14.9355C93.5684 14.9355 93.2607 14.5312 93.2607 13.5996V11.0552H92.5532V10.2905H93.2739ZM96.4995 14.9048V8.58984H97.4707V11.0947H97.519C97.6201 10.7651 97.998 10.1895 98.9297 10.1895C99.835 10.1895 100.481 10.7124 100.481 11.7715V14.9048H99.5098V12.0571C99.5098 11.3496 99.1187 11.02 98.5649 11.02C97.8662 11.02 97.4707 11.5693 97.4707 12.3252V14.9048H96.4995ZM103.755 14.9839C102.489 14.9839 101.703 14.2061 101.703 12.8965V12.2681C101.703 10.9497 102.564 10.1807 103.698 10.1807C104.862 10.1807 105.684 10.9893 105.684 12.2681V12.813H102.669V13.0415C102.669 13.7095 103.065 14.2017 103.75 14.2017C104.26 14.2017 104.612 13.96 104.678 13.6699H105.631C105.574 14.2061 105.007 14.9839 103.755 14.9839ZM102.669 12.1758H104.73V12.1143C104.73 11.4155 104.322 10.9497 103.702 10.9497C103.083 10.9497 102.669 11.4155 102.669 12.1143V12.1758Z" fill="white"/>
<path d="M38.2061 30.9048H36.1758L40.3066 18.9077H42.5391L46.6611 30.9048H44.5518L43.4883 27.5825H39.2783L38.2061 30.9048ZM41.4316 20.9819H41.3525L39.7266 26.0532H43.04L41.4316 20.9819ZM52.2644 31.0366C51.0603 31.0366 50.1462 30.4653 49.654 29.6128H49.5837V33.9897H47.6325V21.6147H49.531V22.9771H49.6013C50.1111 22.0894 51.0603 21.4917 52.3083 21.4917C54.3913 21.4917 55.8767 23.0649 55.8767 25.8423V26.6685C55.8767 29.4282 54.4089 31.0366 52.2644 31.0366ZM51.8161 29.4282C53.0554 29.4282 53.8991 28.4351 53.8991 26.563V25.9126C53.8991 24.1108 53.1081 23.0825 51.781 23.0825C50.4187 23.0825 49.5661 24.1899 49.5661 25.9038V26.563C49.5661 28.3208 50.4275 29.4282 51.8161 29.4282ZM62.183 31.0366C60.9789 31.0366 60.0649 30.4653 59.5727 29.6128H59.5024V33.9897H57.5512V21.6147H59.4496V22.9771H59.52C60.0297 22.0894 60.9789 21.4917 62.227 21.4917C64.31 21.4917 65.7954 23.0649 65.7954 25.8423V26.6685C65.7954 29.4282 64.3276 31.0366 62.183 31.0366ZM61.7348 29.4282C62.9741 29.4282 63.8178 28.4351 63.8178 26.563V25.9126C63.8178 24.1108 63.0268 23.0825 61.6996 23.0825C60.3373 23.0825 59.4848 24.1899 59.4848 25.9038V26.563C59.4848 28.3208 60.3461 29.4282 61.7348 29.4282ZM69.8387 27.5737H71.7899C71.8778 28.6108 72.7919 29.4985 74.4882 29.4985C76.0438 29.4985 76.9667 28.769 76.9667 27.6353C76.9667 26.7212 76.3514 26.229 75.0682 25.9214L73.0995 25.4292C71.5526 25.0688 70.1639 24.146 70.1639 22.1948C70.1639 19.9009 72.1679 18.644 74.497 18.644C76.8261 18.644 78.7684 19.9009 78.8124 22.1421H76.8964C76.8085 21.1226 76.0262 20.2788 74.4706 20.2788C73.0995 20.2788 72.1679 20.9292 72.1679 22.0454C72.1679 22.8276 72.7128 23.3901 73.829 23.645L75.7889 24.1284C77.5907 24.5679 78.9618 25.4204 78.9618 27.4595C78.9618 29.8149 77.0546 31.1421 74.3387 31.1421C70.9989 31.1421 69.8827 29.1909 69.8387 27.5737ZM81.3395 21.6147V19.356H83.2555V21.6147H85.066V23.1792H83.2555V28.1362C83.2555 29.147 83.6334 29.4282 84.6793 29.4282C84.8463 29.4282 85.0045 29.4282 85.1188 29.4106V30.9048C84.9605 30.9312 84.5914 30.9663 84.1959 30.9663C81.9371 30.9663 81.3131 30.1577 81.3131 28.2944V23.1792H80.0299V21.6147H81.3395ZM90.3353 21.4565C93.0071 21.4565 94.4573 23.3374 94.4573 25.8687V26.6157C94.4573 29.2349 93.0159 31.063 90.3353 31.063C87.6546 31.063 86.1956 29.2349 86.1956 26.6157V25.8687C86.1956 23.3462 87.6634 21.4565 90.3353 21.4565ZM90.3353 23.021C88.8851 23.021 88.1644 24.2075 88.1644 25.895V26.6069C88.1644 28.2681 88.8763 29.4897 90.3353 29.4897C91.7943 29.4897 92.4974 28.2769 92.4974 26.6069V25.895C92.4974 24.1987 91.7855 23.021 90.3353 23.021ZM96.1055 30.9048V21.6147H98.0567V22.8364H98.127C98.3643 22.2563 99.0586 21.4829 100.351 21.4829C100.606 21.4829 100.825 21.5005 101.01 21.5356V23.2583C100.843 23.2144 100.5 23.188 100.175 23.188C98.6104 23.188 98.083 24.1548 98.083 25.4028V30.9048H96.1055ZM105.743 31.063C103.256 31.063 101.674 29.4194 101.674 26.6685V25.728C101.674 23.1353 103.22 21.4565 105.664 21.4565C108.142 21.4565 109.636 23.1968 109.636 25.8159V26.7036H103.598V26.9233C103.598 28.4878 104.442 29.5249 105.769 29.5249C106.762 29.5249 107.439 29.0327 107.677 28.2329H109.531C109.25 29.7358 108.037 31.063 105.743 31.063ZM103.598 25.3413H107.729V25.3237C107.729 24.0054 106.912 22.9683 105.673 22.9683C104.416 22.9683 103.598 24.0054 103.598 25.3237V25.3413Z" fill="white"/>
</svg>
