<svg width="48" height="48" viewBox="0 0 48 48" fill="none" xmlns="http://www.w3.org/2000/svg">
<path d="M0 24C0 10.7452 10.7452 0 24 0C37.2548 0 48 10.7452 48 24C48 37.2548 37.2548 48 24 48C10.7452 48 0 37.2548 0 24Z" fill="#F3FCF6"/>
<path d="M28.5529 21.5068C28.8328 21.2015 28.8121 20.727 28.5068 20.4471C28.2015 20.1672 27.727 20.1879 27.4471 20.4932L22.4764 25.9158L20.5303 23.9697C20.2374 23.6768 19.7626 23.6768 19.4697 23.9697C19.1768 24.2626 19.1768 24.7374 19.4697 25.0303L21.9697 27.5303C22.1143 27.675 22.3118 27.7543 22.5163 27.7498C22.7208 27.7454 22.9146 27.6576 23.0529 27.5068L28.5529 21.5068Z" fill="#067647"/>
<path fill-rule="evenodd" clip-rule="evenodd" d="M24 34.75C18.0629 34.75 13.25 29.9371 13.25 24C13.25 18.0629 18.0629 13.25 24 13.25C29.9371 13.25 34.75 18.0629 34.75 24C34.75 29.9371 29.9371 34.75 24 34.75ZM14.75 24C14.75 29.1086 18.8914 33.25 24 33.25C29.1086 33.25 33.25 29.1086 33.25 24C33.25 18.8914 29.1086 14.75 24 14.75C18.8914 14.75 14.75 18.8914 14.75 24Z" fill="#067647"/>
</svg>
