<svg width="22" height="22" viewBox="0 0 22 22" fill="none" xmlns="http://www.w3.org/2000/svg">
<path d="M15.5303 7.53033C15.8232 7.23744 15.8232 6.76256 15.5303 6.46967C15.2374 6.17678 14.7626 6.17678 14.4697 6.46967L11.0001 9.93927L9.03031 7.96965C8.73741 7.67677 8.26253 7.67678 7.96965 7.96969C7.67677 8.26259 7.67678 8.73747 7.96969 9.03035L9.93941 10.9999L9.46967 11.4697C9.17678 11.7626 9.17678 12.2374 9.46967 12.5303C9.76256 12.8232 10.2374 12.8232 10.5303 12.5303L11.0001 12.0606L11.4696 12.53C11.7625 12.8229 12.2373 12.8228 12.5302 12.5299C12.8231 12.237 12.8231 11.7622 12.5302 11.4693L12.0608 10.9999L15.5303 7.53033Z" fill="#384250"/>
<path fill-rule="evenodd" clip-rule="evenodd" d="M11 0.25C5.06294 0.25 0.25 5.06294 0.25 11C0.25 16.9371 5.06294 21.75 11 21.75C16.9371 21.75 21.75 16.9371 21.75 11C21.75 5.06294 16.9371 0.25 11 0.25ZM1.75 11C1.75 5.89137 5.89137 1.75 11 1.75C16.1086 1.75 20.25 5.89137 20.25 11C20.25 16.1086 16.1086 20.25 11 20.25C5.89137 20.25 1.75 16.1086 1.75 11Z" fill="#384250"/>
</svg>
