<svg width="20" height="22" viewBox="0 0 20 22" fill="none" xmlns="http://www.w3.org/2000/svg">
<path fill-rule="evenodd" clip-rule="evenodd" d="M9.99988 0.25C7.10038 0.25 4.74988 2.6005 4.74988 5.5C4.74988 8.39949 7.10038 10.75 9.99988 10.75C12.8994 10.75 15.2499 8.39949 15.2499 5.5C15.2499 2.6005 12.8994 0.25 9.99988 0.25ZM6.24988 5.5C6.24988 3.42893 7.92881 1.75 9.99988 1.75C12.0709 1.75 13.7499 3.42893 13.7499 5.5C13.7499 7.57107 12.0709 9.25 9.99988 9.25C7.92881 9.25 6.24988 7.57107 6.24988 5.5Z" fill="#1B8354"/>
<path fill-rule="evenodd" clip-rule="evenodd" d="M16.2287 14.0792C16.0661 13.9874 15.9225 13.9064 15.8062 13.8372C12.2521 11.7209 7.74797 11.7209 4.19392 13.8372C4.0776 13.9064 3.93393 13.9875 3.77126 14.0793C3.05845 14.4814 1.98094 15.0893 1.24277 15.8118C0.781106 16.2637 0.342452 16.8592 0.262706 17.5888C0.1779 18.3646 0.516363 19.0927 1.19538 19.7396C2.36683 20.8556 3.77261 21.75 5.59092 21.75H14.4092C16.2275 21.75 17.6333 20.8556 18.8047 19.7396C19.4837 19.0927 19.8222 18.3646 19.7374 17.5888C19.6577 16.8592 19.219 16.2637 18.7573 15.8118C18.0192 15.0893 16.9415 14.4813 16.2287 14.0792ZM4.96134 15.126C8.04251 13.2913 11.9576 13.2913 15.0388 15.126C15.2067 15.226 15.3906 15.3303 15.5833 15.4397C16.2959 15.8439 17.128 16.316 17.7081 16.8838C18.0682 17.2363 18.2217 17.5271 18.2463 17.7517C18.2658 17.9301 18.2207 18.2242 17.7701 18.6535C16.7342 19.6404 15.6816 20.25 14.4092 20.25H5.59092C4.31848 20.25 3.2659 19.6404 2.23005 18.6535C1.77942 18.2242 1.73433 17.9301 1.75382 17.7517C1.77838 17.5271 1.93189 17.2363 2.29202 16.8838C2.87211 16.316 3.70413 15.844 4.41674 15.4397C4.60941 15.3304 4.79348 15.226 4.96134 15.126Z" fill="#1B8354"/>
</svg>
