<svg width="24" height="24" viewBox="0 0 24 24" fill="none" xmlns="http://www.w3.org/2000/svg">
<path fill-rule="evenodd" clip-rule="evenodd" d="M11.9998 1.25C9.10026 1.25 6.74976 3.6005 6.74976 6.5C6.74976 9.39949 9.10026 11.75 11.9998 11.75C14.8993 11.75 17.2498 9.39949 17.2498 6.5C17.2498 3.6005 14.8993 1.25 11.9998 1.25ZM8.24976 6.5C8.24976 4.42893 9.92869 2.75 11.9998 2.75C14.0708 2.75 15.7498 4.42893 15.7498 6.5C15.7498 8.57107 14.0708 10.25 11.9998 10.25C9.92869 10.25 8.24976 8.57107 8.24976 6.5Z" fill="#161616"/>
<path fill-rule="evenodd" clip-rule="evenodd" d="M18.2286 15.0792C18.066 14.9874 17.9224 14.9064 17.8061 14.8372C14.252 12.7209 9.74785 12.7209 6.1938 14.8372C6.07748 14.9064 5.93381 14.9875 5.77114 15.0793C5.05833 15.4814 3.98082 16.0893 3.24265 16.8118C2.78098 17.2637 2.34233 17.8592 2.26258 18.5888C2.17778 19.3646 2.51624 20.0927 3.19526 20.7396C4.36671 21.8556 5.77249 22.75 7.5908 22.75H16.4091C18.2274 22.75 19.6332 21.8556 20.8046 20.7396C21.4836 20.0927 21.8221 19.3646 21.7373 18.5888C21.6575 17.8592 21.2189 17.2637 20.7572 16.8118C20.019 16.0893 18.9414 15.4813 18.2286 15.0792ZM6.96122 16.126C10.0424 14.2913 13.9575 14.2913 17.0386 16.126C17.2065 16.226 17.3905 16.3303 17.5832 16.4397C18.2958 16.8439 19.1279 17.316 19.708 17.8838C20.0681 18.2363 20.2216 18.5271 20.2462 18.7517C20.2657 18.9301 20.2206 19.2242 19.7699 19.6535C18.7341 20.6404 17.6815 21.25 16.4091 21.25H7.5908C6.31835 21.25 5.26578 20.6404 4.22993 19.6535C3.7793 19.2242 3.7342 18.9301 3.7537 18.7517C3.77826 18.5271 3.93177 18.2363 4.2919 17.8838C4.87199 17.316 5.70401 16.844 6.41662 16.4397C6.60928 16.3304 6.79335 16.226 6.96122 16.126Z" fill="#161616"/>
</svg>
