<svg width="22" height="22" viewBox="0 0 22 22" fill="none" xmlns="http://www.w3.org/2000/svg">
<path d="M16.5 9.5C15.9477 9.5 15.5 9.94772 15.5 10.5C15.5 11.0523 15.9477 11.5 16.5 11.5H16.509C17.0613 11.5 17.509 11.0523 17.509 10.5C17.509 9.94772 17.0613 9.5 16.509 9.5H16.5Z" fill="#1B8354"/>
<path fill-rule="evenodd" clip-rule="evenodd" d="M15.948 0.250001H17.052C17.9505 0.249973 18.6997 0.249949 19.2945 0.329915C19.9223 0.414319 20.4891 0.59999 20.9445 1.05546C21.4 1.51093 21.5857 2.07773 21.6701 2.70552C21.7501 3.30027 21.75 4.04943 21.75 4.94784V9.052C21.75 9.95041 21.7501 10.6997 21.6701 11.2945C21.5857 11.9223 21.4 12.4891 20.9445 12.9445C20.4891 13.4 19.9223 13.5857 19.2945 13.6701C18.6997 13.7501 17.9505 13.75 17.052 13.75H15.948C15.0495 13.75 14.3003 13.7501 13.7055 13.6701C13.0777 13.5857 12.5109 13.4 12.0555 12.9445C11.6 12.4891 11.4143 11.9223 11.3299 11.2945C11.2499 10.6997 11.25 9.95048 11.25 9.052V4.948C11.25 4.04954 11.2499 3.3003 11.3299 2.70552C11.4143 2.07773 11.6 1.51093 12.0555 1.05546C12.5109 0.59999 13.0777 0.414319 13.7055 0.329914C14.3003 0.249949 15.0495 0.249973 15.948 0.250001ZM13.9054 1.81654C13.4439 1.87858 13.2464 1.9858 13.1161 2.11612C12.9858 2.24644 12.8786 2.44393 12.8165 2.9054C12.7516 3.38843 12.75 4.03599 12.75 5V9C12.75 9.96402 12.7516 10.6116 12.8165 11.0946C12.8786 11.5561 12.9858 11.7536 13.1161 11.8839C13.2464 12.0142 13.4439 12.1214 13.9054 12.1835C14.3884 12.2484 15.036 12.25 16 12.25H17C17.964 12.25 18.6116 12.2484 19.0946 12.1835C19.5561 12.1214 19.7536 12.0142 19.8839 11.8839C20.0142 11.7536 20.1214 11.5561 20.1835 11.0946C20.2484 10.6116 20.25 9.96401 20.25 9V5C20.25 4.03599 20.2484 3.38843 20.1835 2.9054C20.1214 2.44393 20.0142 2.24644 19.8839 2.11612C19.7536 1.9858 19.5561 1.87858 19.0946 1.81654C18.6116 1.7516 17.964 1.75 17 1.75H16C15.036 1.75 14.3884 1.7516 13.9054 1.81654Z" fill="#1B8354"/>
<path d="M8.92035 0.250001H8.96412C9.37833 0.250001 9.71412 0.585788 9.71412 1C9.71412 1.41421 9.37833 1.75 8.96412 1.75C7.31557 1.75 6.13798 1.75098 5.22587 1.84756C4.32731 1.9427 3.77328 2.12377 3.34178 2.42727C2.98538 2.67795 2.67522 2.98945 2.42544 3.34779C2.12261 3.78222 1.942 4.34017 1.84718 5.24386C1.75097 6.16072 1.75 7.34424 1.75 9C1.75 10.6558 1.75097 11.8393 1.84718 12.7561C1.942 13.6598 2.12261 14.2178 2.42544 14.6522C2.67522 15.0106 2.98538 15.3221 3.34178 15.5727C3.77328 15.8762 4.32731 16.0573 5.22587 16.1524C6.13798 16.249 7.31557 16.25 8.96412 16.25H12.9462C14.5947 16.25 15.7723 16.249 16.6844 16.1524C17.583 16.0573 18.137 15.8762 18.5685 15.5727C18.9073 15.3344 19.3752 15.4159 19.6135 15.7547C19.8518 16.0935 19.7703 16.5613 19.4315 16.7996C18.7059 17.31 17.8653 17.5358 16.8424 17.6441C15.8421 17.75 14.5851 17.75 12.9899 17.75H11.75V20.25H15C15.4142 20.25 15.75 20.5858 15.75 21C15.75 21.4142 15.4142 21.75 15 21.75H7C6.58579 21.75 6.25 21.4142 6.25 21C6.25 20.5858 6.58579 20.25 7 20.25H10.25V17.75H8.92037C7.32519 17.75 6.06822 17.75 5.06793 17.6441C4.04498 17.5358 3.20436 17.31 2.47882 16.7996C1.97908 16.4481 1.54458 16.0116 1.1949 15.51C0.687557 14.7822 0.46308 13.9392 0.355367 12.9127C0.249985 11.9084 0.249992 10.6462 0.25 9.04343V8.95657C0.249992 7.35376 0.249985 6.09158 0.355367 5.08732C0.46308 4.06083 0.687557 3.21784 1.1949 2.49002C1.54458 1.98836 1.97908 1.55186 2.47882 1.20036C3.20436 0.690047 4.04498 0.46421 5.06793 0.355897C6.06822 0.249985 7.32518 0.249992 8.92035 0.250001Z" fill="#1B8354"/>
</svg>
